<?xml version="1.0" encoding="UTF-8"?>
<svg xmlns="http://www.w3.org/2000/svg" viewBox="0 0 500 500">
  <defs>
    <style>
      .cls-1 {
        fill: #16db65;
      }

      .cls-1, .cls-2, .cls-3, .cls-4, .cls-5, .cls-6, .cls-7, .cls-8, .cls-9 {
        stroke-width: 0px;
      }

      .cls-2 {
        fill: #263238;
      }

      .cls-3 {
        fill: #455a64;
      }

      .cls-4, .cls-9 {
        fill: #000;
      }

      .cls-5 {
        fill: #ffbf9d;
      }

      .cls-10, .cls-9 {
        opacity: .3;
      }

      .cls-6 {
        fill: #ebebeb;
      }

      .cls-7 {
        fill: #fff;
      }

      .cls-8 {
        fill: #ff9a6c;
      }
    </style>
  </defs>
  <g id="Background_Complete" data-name="Background Complete">
    <g>
      <path class="cls-6" d="M319.23,249.81c-47.98-.45-91.4-.85-122.87-1.15-15.7-.07-28.41-.13-37.24-.18-4.37.01-7.77.02-10.12.02-1.13.01-2.01.03-2.63.03-.59.01-.9.03-.9.05s.3.04.9.06c.63.01,1.5.03,2.63.06,2.35.03,5.75.07,10.12.12,8.83.05,21.54.11,37.24.2,31.47.02,74.9.05,122.88.08,47.96,0,91.39.06,122.83.28,15.72.11,28.44.26,37.23.42,4.4.08,7.81.17,10.12.26,2.31.09,3.53.18,3.53.26,0,.08-1.22.16-3.53.22-2.31.06-5.73.12-10.13.16-8.79.08-21.52.1-37.24.05-31.44-.09-74.87-.46-122.82-.94Z"/>
      <path class="cls-6" d="M318.28,260.33c-47.32-7.69-90.15-14.66-121.19-19.7-15.5-2.44-28.04-4.42-36.76-5.79-4.32-.65-7.68-1.15-10.01-1.5-1.12-.16-1.99-.28-2.61-.36-.59-.08-.89-.1-.89-.09,0,.02.29.08.88.19.62.11,1.47.26,2.59.46,2.32.38,5.67.94,9.98,1.65,8.71,1.38,21.26,3.37,36.75,5.82,31.09,4.77,73.98,11.35,121.37,18.62,47.38,7.23,90.27,13.85,121.29,18.82,15.51,2.48,28.05,4.55,36.71,6.04,4.33.75,7.69,1.35,9.96,1.79,2.27.44,3.46.71,3.44.79-.01.08-1.23-.02-3.52-.31-2.3-.28-5.68-.75-10.03-1.37-8.7-1.25-21.27-3.15-36.79-5.57-31.04-4.83-73.88-11.76-121.18-19.49Z"/>
      <path class="cls-6" d="M315.63,270.57c-45.49-14.84-86.65-28.27-116.49-38.01-14.91-4.78-26.98-8.66-35.36-11.35-4.16-1.3-7.4-2.31-9.64-3.01-1.08-.33-1.92-.58-2.52-.76-.57-.16-.86-.24-.87-.22,0,.02.28.13.83.33.59.2,1.41.48,2.48.85,2.22.73,5.45,1.8,9.59,3.16,8.38,2.7,20.45,6.58,35.35,11.37,29.93,9.47,71.22,22.53,116.84,36.96,45.61,14.39,86.9,27.49,116.73,37.14,14.92,4.83,26.97,8.79,35.28,11.59,4.15,1.4,7.37,2.51,9.54,3.29,2.17.78,3.3,1.23,3.27,1.31-.03.08-1.21-.21-3.43-.84-2.22-.63-5.49-1.61-9.68-2.89-8.39-2.56-20.49-6.37-35.43-11.13-29.87-9.53-71.05-22.93-116.51-37.8Z"/>
      <path class="cls-6" d="M311.37,280.28c-42.52-21.61-81-41.17-108.89-55.34-13.95-7.01-25.24-12.68-33.08-16.61-3.9-1.92-6.93-3.42-9.03-4.45-1.02-.49-1.8-.86-2.36-1.13-.53-.25-.81-.37-.82-.35,0,.02.25.17.77.45.55.29,1.32.69,2.32,1.22,2.08,1.06,5.09,2.61,8.96,4.59,7.84,3.94,19.13,9.62,33.07,16.64,28.02,13.93,66.68,33.14,109.4,54.38,42.71,21.19,81.36,40.44,109.26,54.54,13.95,7.05,25.21,12.8,32.96,16.83,3.88,2.02,6.88,3.6,8.9,4.7,2.02,1.1,3.06,1.72,3.02,1.79-.04.08-1.16-.39-3.25-1.36-2.09-.97-5.16-2.43-9.09-4.34-7.87-3.82-19.21-9.42-33.18-16.42-27.96-13.98-66.46-33.51-108.94-55.14Z"/>
      <path class="cls-6" d="M305.59,289.22c-38.52-27.8-73.38-52.97-98.65-71.21-12.65-9.04-22.89-16.35-30-21.44-3.54-2.49-6.3-4.43-8.2-5.77-.93-.64-1.64-1.13-2.15-1.48-.49-.33-.74-.49-.76-.47-.01.01.22.2.69.56.5.37,1.19.89,2.09,1.56,1.88,1.37,4.61,3.35,8.11,5.89,7.11,5.09,17.34,12.41,29.99,21.46,25.44,18.01,60.53,42.87,99.31,70.33,38.78,27.42,73.86,52.3,99.14,70.47,12.64,9.08,22.84,16.47,29.85,21.64,3.5,2.58,6.21,4.6,8.03,6,1.82,1.39,2.75,2.16,2.69,2.23-.05.07-1.08-.56-2.99-1.84-1.91-1.27-4.7-3.18-8.28-5.66-7.16-4.97-17.46-12.23-30.14-21.25-25.37-18.05-60.25-43.19-98.73-71.01Z"/>
      <path class="cls-6" d="M298.45,297.17c-33.6-33.29-64.01-63.41-86.05-85.25-11.05-10.84-19.99-19.62-26.21-25.71-3.1-3-5.51-5.33-7.18-6.94-.81-.77-1.44-1.36-1.89-1.78-.43-.4-.66-.59-.67-.58-.01.01.19.24.59.66.43.44,1.03,1.06,1.82,1.85,1.64,1.64,4.02,4,7.07,7.05,6.21,6.1,15.15,14.88,26.19,25.73,22.24,21.64,52.93,51.5,86.84,84.49,33.92,32.95,64.59,62.83,86.66,84.6,11.04,10.88,19.93,19.72,26.02,25.88,3.05,3.08,5.4,5.49,6.97,7.14,1.57,1.65,2.37,2.55,2.31,2.61-.06.06-.98-.72-2.66-2.27-1.68-1.54-4.14-3.85-7.27-6.85-6.28-5.99-15.29-14.72-26.37-25.55-22.17-21.67-52.61-51.77-86.17-85.07Z"/>
      <path class="cls-6" d="M290.13,303.94c-27.87-37.96-53.08-72.32-71.36-97.22-9.18-12.38-16.61-22.4-21.77-29.36-2.58-3.43-4.59-6.1-5.98-7.94-.68-.88-1.2-1.56-1.58-2.05-.36-.46-.55-.69-.57-.68-.02.01.15.26.48.74.36.5.85,1.2,1.5,2.11,1.36,1.86,3.33,4.56,5.85,8.03,5.16,6.96,12.58,16.99,21.75,29.37,18.51,24.74,44.05,58.87,72.27,96.59,28.24,37.68,53.75,71.83,72.07,96.67,9.16,12.42,16.53,22.5,21.56,29.5,2.52,3.5,4.46,6.24,5.74,8.11,1.29,1.87,1.93,2.88,1.86,2.93-.07.05-.85-.86-2.27-2.64-1.42-1.78-3.47-4.43-6.09-7.86-5.24-6.86-12.75-16.85-21.96-29.23-18.43-24.75-43.68-59.1-71.5-97.06Z"/>
      <path class="cls-6" d="M280.82,309.37c-21.41-41.73-40.79-79.5-54.84-106.87-7.08-13.62-12.81-24.65-16.78-32.31-2-3.78-3.56-6.72-4.63-8.75-.53-.97-.94-1.72-1.23-2.26-.28-.51-.44-.76-.45-.75-.02,0,.1.28.35.8.27.55.65,1.31,1.14,2.31,1.04,2.05,2.55,5.01,4.49,8.82,3.97,7.66,9.69,18.69,16.76,32.32,14.3,27.25,34.04,64.84,55.84,106.38,21.83,41.5,41.53,79.11,55.63,106.43,7.05,13.65,12.7,24.73,16.55,32.42,1.92,3.84,3.4,6.84,4.37,8.88.97,2.04,1.44,3.14,1.36,3.17-.08.04-.7-.98-1.82-2.95-1.11-1.97-2.72-4.9-4.75-8.69-4.07-7.57-9.88-18.58-16.99-32.2-14.22-27.25-33.64-65.01-55.01-106.73Z"/>
      <path class="cls-6" d="M270.75,313.32c-14.39-44.49-27.41-84.74-36.85-113.93-4.78-14.53-8.66-26.3-11.34-34.47-1.36-4.04-2.42-7.18-3.16-9.35-.37-1.04-.65-1.85-.85-2.42-.2-.54-.31-.82-.33-.81-.02,0,.06.29.22.85.18.58.43,1.4.75,2.45.7,2.18,1.71,5.34,3,9.4,2.68,8.17,6.55,19.94,11.32,34.48,9.72,29.1,23.12,69.24,37.93,113.59,14.84,44.32,28.21,84.48,37.71,113.61,4.75,14.56,8.54,26.37,11.1,34.54,1.28,4.09,2.25,7.27,2.88,9.44.63,2.17.92,3.32.83,3.34-.08.03-.54-1.07-1.32-3.19-.78-2.12-1.89-5.26-3.29-9.31-2.8-8.1-6.75-19.86-11.56-34.4-9.63-29.09-22.69-69.34-37.04-113.82Z"/>
      <path class="cls-6" d="M260.16,315.67c-7.01-46.13-13.35-87.88-17.95-118.14-2.37-15.08-4.29-27.3-5.62-35.78-.69-4.2-1.23-7.46-1.6-9.72-.19-1.09-.34-1.92-.45-2.52-.11-.57-.17-.86-.19-.85-.02,0,0,.3.08.87.08.6.2,1.44.35,2.54.34,2.26.82,5.53,1.45,9.74,1.33,8.48,3.24,20.69,5.6,35.78,4.88,30.22,11.62,71.91,19.06,117.98,7.48,46.04,14.18,87.74,18.85,117.96,2.34,15.11,4.17,27.34,5.37,35.81.6,4.23,1.04,7.52,1.31,9.76.27,2.24.37,3.42.28,3.43-.09.01-.35-1.14-.78-3.35-.43-2.21-1.01-5.48-1.74-9.7-1.45-8.43-3.45-20.64-5.85-35.74-4.81-30.2-11.19-71.95-18.16-118.06Z"/>
      <path class="cls-6" d="M249.32,316.39c.43-46.63.82-88.83,1.11-119.42.07-15.26.12-27.61.16-36.19-.01-4.25-.02-7.56-.03-9.84-.02-1.1-.03-1.95-.04-2.56-.01-.58-.03-.87-.05-.87-.02,0-.04.3-.06.87-.01.61-.03,1.46-.06,2.56-.03,2.28-.07,5.59-.12,9.84-.04,8.58-.1,20.93-.18,36.19,0,30.59,0,72.79,0,119.42.03,46.61,0,88.82-.21,119.37-.1,15.28-.24,27.64-.41,36.19-.08,4.27-.17,7.59-.26,9.84-.09,2.25-.18,3.43-.26,3.43-.09,0-.17-1.18-.23-3.43-.07-2.25-.12-5.57-.17-9.84-.08-8.55-.11-20.91-.07-36.19.07-30.56.43-72.76.89-119.37Z"/>
      <path class="cls-6" d="M238.49,315.46c7.89-46,15.02-87.63,20.2-117.8,2.5-15.06,4.53-27.26,5.94-35.73.67-4.2,1.18-7.47,1.54-9.73.16-1.09.28-1.93.37-2.53.08-.57.11-.87.09-.87-.02,0-.09.29-.2.85-.11.6-.27,1.43-.47,2.52-.39,2.25-.96,5.51-1.7,9.7-1.41,8.47-3.45,20.66-5.97,35.72-4.89,30.22-11.63,71.91-19.09,117.97-7.41,46.05-14.19,87.74-19.29,117.89-2.54,15.08-4.66,27.27-6.19,35.69-.76,4.21-1.38,7.47-1.83,9.68-.45,2.21-.73,3.36-.81,3.35-.09-.01.02-1.19.31-3.43.29-2.23.77-5.52,1.41-9.75,1.28-8.46,3.23-20.67,5.71-35.76,4.95-30.17,12.06-71.81,19.98-117.78Z"/>
      <path class="cls-6" d="M227.95,312.9c15.24-44.22,29.04-84.23,39.04-113.24,4.91-14.49,8.89-26.23,11.65-34.37,1.34-4.05,2.38-7.19,3.1-9.37.33-1.05.59-1.86.78-2.45.17-.55.25-.84.23-.84-.02,0-.13.27-.33.81-.21.57-.5,1.37-.87,2.41-.75,2.16-1.85,5.29-3.25,9.32-2.77,8.15-6.76,19.87-11.68,34.36-9.72,29.09-23.14,69.23-37.96,113.58-14.78,44.34-28.23,84.48-38.14,113.47-4.96,14.5-9.02,26.22-11.9,34.29-1.44,4.04-2.58,7.17-3.38,9.28-.8,2.11-1.26,3.21-1.35,3.18-.08-.03.21-1.18.86-3.34.65-2.16,1.65-5.33,2.97-9.41,2.63-8.15,6.54-19.92,11.43-34.44,9.78-29.04,23.55-69.07,38.82-113.26Z"/>
      <path class="cls-6" d="M217.96,308.76c22.21-41.34,42.31-78.75,56.87-105.86,7.2-13.56,13.03-24.54,17.07-32.16,1.98-3.79,3.51-6.74,4.58-8.78.5-.99.89-1.75,1.16-2.3.26-.52.38-.79.36-.8-.02,0-.17.25-.46.75-.3.53-.71,1.28-1.25,2.25-1.09,2.02-2.68,4.95-4.71,8.71-4.05,7.62-9.89,18.59-17.1,32.15-14.31,27.24-34.06,64.83-55.88,106.36-21.78,41.53-41.56,79.1-56.05,106.22-7.24,13.56-13.15,24.51-17.3,32.05-2.07,3.77-3.7,6.68-4.84,8.65-1.13,1.96-1.77,2.98-1.84,2.94-.08-.04.4-1.13,1.4-3.16.99-2.03,2.49-5.01,4.46-8.84,3.92-7.65,9.68-18.67,16.87-32.26,14.36-27.18,34.43-64.61,56.66-105.91Z"/>
      <path class="cls-6" d="M208.76,303.15c28.58-37.45,54.45-71.35,73.2-95.92,9.29-12.3,16.81-22.26,22.04-29.17,2.56-3.44,4.55-6.12,5.93-7.97.65-.9,1.16-1.59,1.52-2.09.34-.47.5-.72.49-.73-.01-.01-.21.22-.58.67-.38.48-.91,1.16-1.6,2.03-1.41,1.83-3.44,4.48-6.06,7.88-5.23,6.91-12.76,16.86-22.06,29.16-18.52,24.73-44.07,58.86-72.3,96.56-28.19,37.71-53.77,71.82-72.44,96.4-9.33,12.29-16.93,22.21-22.24,29.02-2.65,3.41-4.73,6.04-6.17,7.81-1.43,1.77-2.22,2.67-2.29,2.62-.07-.05.58-1.05,1.89-2.91,1.31-1.86,3.27-4.57,5.82-8.05,5.1-6.96,12.57-16.97,21.85-29.3,18.56-24.67,44.4-58.59,73-96Z"/>
      <path class="cls-6" d="M200.57,296.22c34.23-32.68,65.21-62.25,87.66-83.69,11.15-10.75,20.17-19.44,26.44-25.49,3.08-3.01,5.48-5.36,7.14-6.98.79-.79,1.4-1.4,1.83-1.84.41-.42.61-.64.6-.65-.01-.01-.24.18-.68.58-.45.42-1.08,1.01-1.91,1.77-1.68,1.59-4.12,3.9-7.24,6.87-6.27,6.04-15.3,14.73-26.45,25.47-22.25,21.63-52.95,51.48-86.88,84.46-33.88,32.99-64.61,62.81-86.99,84.28-11.19,10.73-20.28,19.38-26.62,25.31-3.17,2.96-5.64,5.25-7.34,6.78-1.7,1.53-2.62,2.3-2.68,2.24-.06-.06.74-.95,2.33-2.59,1.59-1.64,3.96-4.02,7.04-7.07,6.16-6.1,15.13-14.87,26.27-25.64,22.28-21.56,53.24-51.16,87.48-83.8Z"/>
      <path class="cls-6" d="M193.6,288.13c39.04-27.11,74.38-51.64,99.99-69.42,12.73-8.93,23.04-16.16,30.19-21.18,3.53-2.51,6.27-4.47,8.17-5.82.91-.66,1.61-1.17,2.11-1.54.47-.35.71-.54.69-.55-.01-.01-.27.14-.76.47-.51.35-1.23.83-2.17,1.46-1.92,1.32-4.69,3.23-8.26,5.69-7.16,5.02-17.47,12.24-30.21,21.16-25.44,18.01-60.55,42.85-99.33,70.3-38.75,27.47-73.88,52.28-99.42,70.1-12.77,8.91-23.14,16.08-30.34,20.98-3.6,2.45-6.41,4.33-8.34,5.59-1.92,1.25-2.96,1.88-3.01,1.81-.05-.07.88-.83,2.72-2.21,1.83-1.38,4.56-3.38,8.09-5.92,7.06-5.1,17.33-12.4,30.06-21.36,25.46-17.93,60.78-42.49,99.82-69.55Z"/>
      <path class="cls-6" d="M188,279.09c42.93-20.84,81.77-39.7,109.93-53.37,14.01-6.89,25.35-12.46,33.23-16.33,3.89-1.95,6.91-3.46,9-4.51,1-.52,1.77-.91,2.33-1.2.52-.28.78-.43.78-.44s-.29.1-.83.34c-.56.26-1.35.63-2.37,1.11-2.1,1.01-5.15,2.48-9.07,4.37-7.88,3.87-19.23,9.43-33.24,16.31-28.03,13.92-66.69,33.12-109.42,54.34-42.69,21.24-81.38,40.42-109.47,54.13-14.05,6.86-25.44,12.36-33.34,16.11-3.95,1.87-7.03,3.31-9.13,4.25-2.1.95-3.23,1.4-3.27,1.33-.04-.08,1.01-.68,3.04-1.77,2.03-1.08,5.04-2.64,8.94-4.62,7.79-3.96,19.11-9.61,33.12-16.53,28.03-13.84,66.87-32.73,109.79-53.53Z"/>
      <path class="cls-6" d="M183.94,269.3c45.76-14.01,87.18-26.7,117.2-35.89,14.95-4.66,27.05-8.43,35.46-11.05,4.15-1.33,7.39-2.36,9.62-3.07,1.07-.36,1.9-.63,2.49-.83.56-.19.84-.3.84-.32,0-.02-.3.05-.87.21-.6.17-1.44.42-2.52.73-2.24.68-5.49,1.66-9.67,2.93-8.41,2.61-20.51,6.37-35.47,11.02-29.93,9.46-71.22,22.51-116.85,36.93-45.59,14.45-86.9,27.47-116.87,36.72-14.98,4.63-27.12,8.32-35.54,10.81-4.21,1.24-7.48,2.19-9.71,2.8-2.23.61-3.41.89-3.44.81-.03-.08,1.1-.52,3.28-1.28,2.18-.76,5.41-1.84,9.58-3.2,8.34-2.72,20.43-6.57,35.39-11.26,29.92-9.38,71.33-22.1,117.08-36.07Z"/>
      <path class="cls-6" d="M181.51,259.01c47.46-6.84,90.41-13.03,121.55-17.52,15.52-2.31,28.08-4.19,36.81-5.49,4.32-.68,7.68-1.2,10-1.56,1.12-.19,1.98-.33,2.59-.44.58-.1.88-.17.88-.19,0-.02-.31,0-.9.08-.62.08-1.49.19-2.61.34-2.32.33-5.69.8-10.02,1.41-8.73,1.29-21.29,3.16-36.81,5.46-31.09,4.76-73.98,11.34-121.38,18.6-47.37,7.3-90.27,13.84-121.36,18.39-15.54,2.28-28.13,4.07-36.84,5.24-4.36.59-7.74,1.02-10.04,1.28-2.3.26-3.51.36-3.53.28-.01-.08,1.18-.35,3.45-.76,2.28-.42,5.64-.99,9.98-1.69,8.67-1.41,21.24-3.37,36.77-5.71,31.07-4.69,74.02-10.92,121.47-17.72Z"/>
      <path class="cls-6" d="M180.77,248.48c47.98.39,91.4.74,122.87,1,15.7.05,28.41.1,37.24.13,4.37-.02,7.77-.03,10.12-.04,1.13-.02,2.01-.03,2.63-.04.59-.01.9-.03.9-.05,0-.02-.3-.04-.9-.06-.63-.01-1.5-.03-2.63-.06-2.35-.03-5.75-.06-10.12-.11-8.83-.04-21.54-.09-37.24-.15-31.47.02-74.89.04-122.88.07-47.96.06-91.39.05-122.83-.13-15.72-.09-28.44-.22-37.23-.38-4.4-.08-7.81-.16-10.12-.24-2.31-.08-3.53-.17-3.53-.26,0-.08,1.22-.16,3.53-.23,2.32-.07,5.73-.12,10.13-.17,8.79-.09,21.52-.12,37.24-.09,31.44.05,74.87.37,122.82.79Z"/>
      <path class="cls-6" d="M181.71,237.96c47.33,7.63,90.17,14.54,121.22,19.55,15.5,2.42,28.05,4.39,36.76,5.75,4.32.64,7.69,1.14,10.01,1.49,1.12.15,1.99.27,2.61.36.59.07.89.1.89.09,0-.02-.29-.08-.88-.19-.62-.11-1.48-.26-2.59-.46-2.32-.38-5.67-.93-9.98-1.64-8.71-1.37-21.26-3.34-36.76-5.77-31.09-4.73-73.99-11.26-121.4-18.47-47.39-7.17-90.29-13.74-121.31-18.67-15.51-2.46-28.06-4.51-36.72-6-4.33-.74-7.69-1.34-9.96-1.77-2.27-.43-3.46-.7-3.45-.79.01-.08,1.23.02,3.53.3,2.3.28,5.68.74,10.03,1.36,8.7,1.24,21.27,3.13,36.8,5.53,31.05,4.8,73.9,11.67,121.2,19.34Z"/>
      <path class="cls-6" d="M184.34,227.71c45.51,14.79,86.69,28.17,116.54,37.87,14.91,4.77,26.99,8.62,35.37,11.3,4.16,1.3,7.4,2.31,9.64,3,1.08.32,1.92.57,2.52.75.57.16.86.24.87.22,0-.02-.28-.13-.83-.32-.59-.2-1.41-.48-2.48-.85-2.23-.73-5.45-1.79-9.59-3.15-8.38-2.69-20.45-6.55-35.36-11.33-29.94-9.43-71.25-22.44-116.89-36.82-45.63-14.33-86.94-27.38-116.78-37-14.92-4.81-26.98-8.75-35.29-11.54-4.16-1.39-7.38-2.5-9.55-3.28-2.17-.78-3.3-1.23-3.27-1.31.03-.08,1.21.21,3.43.84,2.22.63,5.49,1.6,9.69,2.88,8.39,2.55,20.5,6.34,35.45,11.09,29.89,9.49,71.08,22.84,116.56,37.65Z"/>
      <path class="cls-6" d="M188.59,218c42.55,21.56,81.05,41.07,108.96,55.21,13.96,6.99,25.26,12.64,33.1,16.57,3.9,1.92,6.94,3.41,9.03,4.44,1.02.49,1.8.86,2.36,1.13.54.25.81.37.82.35,0-.02-.25-.17-.77-.45-.55-.29-1.32-.69-2.32-1.22-2.08-1.06-5.09-2.6-8.96-4.58-7.84-3.93-19.14-9.6-33.09-16.6-28.04-13.89-66.72-33.06-109.47-54.24-42.74-21.14-81.42-40.34-109.33-54.4-13.96-7.03-25.23-12.77-32.98-16.79-3.88-2.01-6.88-3.6-8.9-4.69-2.02-1.1-3.06-1.71-3.02-1.79.04-.08,1.16.39,3.25,1.36,2.09.96,5.16,2.42,9.1,4.33,7.87,3.81,19.22,9.4,33.21,16.37,27.98,13.94,66.5,33.42,109.01,55Z"/>
      <path class="cls-6" d="M194.36,209.05c38.56,27.76,73.45,52.88,98.74,71.08,12.66,9.02,22.91,16.33,30.03,21.4,3.55,2.49,6.3,4.42,8.21,5.76.93.63,1.64,1.12,2.15,1.47.49.33.74.49.76.47.01-.01-.22-.2-.69-.56-.5-.37-1.19-.88-2.09-1.55-1.88-1.36-4.61-3.34-8.12-5.88-7.11-5.08-17.36-12.39-30.01-21.42-25.46-17.98-60.59-42.79-99.4-70.21-38.82-27.37-73.93-52.21-99.23-70.35-12.65-9.06-22.86-16.44-29.88-21.6-3.51-2.58-6.22-4.6-8.04-5.99-1.82-1.39-2.75-2.16-2.7-2.23.05-.07,1.08.56,3,1.83,1.91,1.27,4.71,3.18,8.29,5.65,7.16,4.96,17.47,12.2,30.16,21.22,25.39,18.02,60.31,43.12,98.82,70.89Z"/>
      <path class="cls-6" d="M201.49,201.09c33.64,33.25,64.09,63.34,86.16,85.14,11.06,10.83,20.02,19.59,26.24,25.68,3.1,2.99,5.52,5.32,7.19,6.93.81.77,1.44,1.36,1.89,1.78.43.4.66.59.67.58.01-.01-.19-.23-.59-.66-.43-.44-1.04-1.05-1.82-1.85-1.64-1.63-4.02-4-7.08-7.04-6.22-6.09-15.17-14.86-26.22-25.7-22.27-21.61-53-51.43-86.95-84.38-33.96-32.91-64.67-62.75-86.77-84.49-11.05-10.87-19.95-19.7-26.06-25.85-3.05-3.08-5.41-5.48-6.98-7.13-1.57-1.65-2.37-2.55-2.31-2.61.06-.06.98.72,2.66,2.26,1.69,1.54,4.14,3.85,7.28,6.84,6.28,5.98,15.31,14.7,26.4,25.52,22.2,21.64,52.68,51.71,86.28,84.96Z"/>
      <path class="cls-6" d="M209.8,194.31c27.91,37.93,53.18,72.25,71.49,97.13,9.2,12.37,16.64,22.38,21.81,29.33,2.59,3.43,4.6,6.09,5.99,7.93.68.88,1.21,1.56,1.58,2.05.36.46.55.69.57.68.02-.01-.15-.26-.48-.74-.36-.5-.85-1.2-1.5-2.1-1.36-1.86-3.33-4.56-5.86-8.02-5.16-6.96-12.6-16.97-21.79-29.35-18.54-24.72-44.12-58.82-72.39-96.5-28.28-37.64-53.84-71.77-72.19-96.58-9.18-12.4-16.56-22.48-21.6-29.48-2.52-3.5-4.46-6.23-5.75-8.1-1.29-1.87-1.93-2.88-1.86-2.92.07-.05.85.86,2.27,2.64,1.42,1.78,3.48,4.43,6.1,7.86,5.25,6.86,12.77,16.83,22,29.2,18.46,24.73,43.76,59.04,71.63,96.97Z"/>
      <path class="cls-6" d="M219.11,188.87c21.47,41.71,40.9,79.45,54.98,106.8,7.09,13.61,12.84,24.63,16.83,32.29,2,3.78,3.56,6.72,4.64,8.74.53.97.94,1.72,1.23,2.26.28.51.44.76.45.75.02,0-.1-.28-.36-.8-.27-.55-.65-1.31-1.14-2.31-1.04-2.05-2.56-5.01-4.5-8.81-3.98-7.66-9.72-18.68-16.8-32.3-14.34-27.23-34.12-64.8-55.98-106.31-21.88-41.48-41.64-79.06-55.77-106.36-7.07-13.65-12.74-24.72-16.59-32.4-1.93-3.84-3.41-6.83-4.38-8.87-.97-2.04-1.45-3.13-1.37-3.17.08-.04.7.98,1.82,2.95,1.12,1.97,2.72,4.9,4.76,8.69,4.08,7.57,9.9,18.56,17.03,32.18,14.26,27.23,33.72,64.97,55.14,106.67Z"/>
      <path class="cls-6" d="M229.17,184.91c14.45,44.47,27.53,84.71,37,113.88,4.8,14.53,8.69,26.29,11.39,34.46,1.37,4.04,2.43,7.18,3.17,9.35.37,1.04.65,1.85.85,2.42.2.54.31.82.33.81.02,0-.06-.29-.22-.85-.18-.58-.43-1.4-.75-2.45-.7-2.18-1.71-5.34-3.02-9.39-2.69-8.17-6.57-19.93-11.36-34.46-9.75-29.08-23.21-69.21-38.08-113.54-14.9-44.3-28.32-84.45-37.86-113.56-4.77-14.56-8.58-26.36-11.14-34.53-1.28-4.09-2.26-7.27-2.89-9.43s-.92-3.32-.84-3.34c.08-.03.54,1.07,1.32,3.19.78,2.12,1.9,5.26,3.3,9.31,2.81,8.1,6.78,19.85,11.61,34.39,9.67,29.07,22.78,69.31,37.19,113.77Z"/>
      <path class="cls-6" d="M239.76,182.54c7.07,46.12,13.47,87.86,18.11,118.12,2.39,15.08,4.33,27.29,5.67,35.77.7,4.2,1.24,7.46,1.62,9.71.19,1.09.34,1.92.45,2.52.11.57.17.86.19.85.02,0,0-.3-.08-.87-.08-.6-.2-1.44-.35-2.54-.34-2.26-.83-5.53-1.46-9.74-1.34-8.48-3.26-20.69-5.64-35.77-4.92-30.21-11.71-71.89-19.22-117.95-7.54-46.03-14.3-87.72-19-117.94-2.36-15.11-4.2-27.34-5.41-35.8-.61-4.23-1.05-7.52-1.33-9.76-.27-2.24-.37-3.42-.29-3.43.09-.01.36,1.14.79,3.35.43,2.21,1.02,5.48,1.75,9.69,1.46,8.43,3.48,20.64,5.9,35.73,4.85,30.19,11.28,71.93,18.31,118.04Z"/>
      <path class="cls-6" d="M250.59,181.81c-.37,46.63-.71,88.83-.95,119.42-.05,15.26-.08,27.61-.11,36.19.02,4.25.03,7.56.04,9.84.02,1.1.03,1.95.04,2.56.02.58.03.87.05.87.02,0,.04-.3.06-.87.01-.61.03-1.46.06-2.56.03-2.28.06-5.59.11-9.84.03-8.58.08-20.93.13-36.19-.04-30.59-.09-72.79-.15-119.42-.09-46.61-.11-88.82.06-119.37.08-15.28.21-27.64.36-36.19.08-4.27.16-7.59.24-9.84.09-2.25.17-3.43.26-3.43.09,0,.17,1.18.24,3.43.07,2.25.13,5.57.18,9.84.1,8.55.14,20.91.12,36.19-.03,30.56-.33,72.76-.74,119.37Z"/>
      <path class="cls-6" d="M261.42,182.72c-7.83,46.01-14.91,87.64-20.04,117.82-2.48,15.07-4.49,27.26-5.89,35.73-.66,4.2-1.17,7.47-1.53,9.73-.16,1.09-.28,1.93-.37,2.53-.08.57-.11.87-.09.87.02,0,.09-.29.2-.85.11-.6.27-1.43.47-2.52.39-2.25.96-5.51,1.68-9.7,1.4-8.47,3.42-20.66,5.92-35.73,4.85-30.22,11.54-71.92,18.93-118,7.35-46.06,14.08-87.76,19.13-117.92,2.52-15.08,4.63-27.28,6.15-35.69.76-4.21,1.37-7.47,1.82-9.68.45-2.21.72-3.36.81-3.35.09.01-.02,1.19-.31,3.43-.29,2.23-.76,5.52-1.39,9.75-1.27,8.46-3.2,20.68-5.66,35.77-4.91,30.18-11.96,71.83-19.82,117.81Z"/>
      <path class="cls-6" d="M271.97,185.27c-15.18,44.24-28.93,84.27-38.89,113.29-4.89,14.5-8.86,26.24-11.61,34.39-1.33,4.05-2.37,7.2-3.08,9.37-.33,1.05-.59,1.86-.77,2.45-.17.55-.24.84-.23.85.02,0,.13-.27.33-.81.21-.57.5-1.38.87-2.42.75-2.16,1.84-5.3,3.24-9.32,2.76-8.15,6.73-19.88,11.63-34.38,9.68-29.11,23.04-69.26,37.81-113.63,14.72-44.36,28.11-84.51,37.99-113.52,4.94-14.51,8.99-26.23,11.85-34.31,1.43-4.04,2.57-7.17,3.37-9.28.8-2.11,1.26-3.21,1.34-3.18.08.03-.21,1.18-.86,3.34-.65,2.16-1.64,5.34-2.95,9.41-2.62,8.16-6.51,19.93-11.39,34.46-9.74,29.05-23.45,69.1-38.67,113.3Z"/>
      <path class="cls-6" d="M281.96,189.4c-22.15,41.37-42.2,78.8-56.73,105.93-7.18,13.57-12.99,24.56-17.03,32.18-1.97,3.79-3.5,6.75-4.56,8.78-.5.99-.88,1.75-1.16,2.3-.26.52-.38.79-.36.8.02,0,.17-.25.46-.75.3-.54.71-1.28,1.25-2.25,1.09-2.02,2.67-4.95,4.7-8.71,4.04-7.62,9.86-18.61,17.06-32.17,14.28-27.26,33.98-64.87,55.74-106.43,21.72-41.55,41.45-79.15,55.91-106.29,7.22-13.57,13.12-24.53,17.26-32.07,2.07-3.77,3.69-6.69,4.82-8.65,1.13-1.97,1.76-2.98,1.84-2.94.08.04-.4,1.13-1.39,3.16-.99,2.04-2.49,5.02-4.44,8.84-3.91,7.65-9.66,18.69-16.83,32.28-14.33,27.2-34.35,64.65-56.53,105.98Z"/>
      <path class="cls-6" d="M291.17,195c-28.54,37.49-54.36,71.42-73.08,96.01-9.28,12.31-16.78,22.28-22,29.2-2.56,3.45-4.55,6.13-5.92,7.98-.65.9-1.16,1.6-1.52,2.09-.34.48-.5.72-.49.73.01.01.21-.22.57-.67.38-.48.91-1.16,1.6-2.03,1.4-1.83,3.44-4.48,6.05-7.89,5.22-6.92,12.74-16.88,22.02-29.18,18.49-24.76,43.99-58.91,72.17-96.65,28.14-37.74,53.68-71.88,72.32-96.49,9.32-12.31,16.91-22.23,22.2-29.05,2.65-3.41,4.73-6.05,6.16-7.81,1.43-1.77,2.22-2.67,2.29-2.62.07.05-.58,1.05-1.88,2.91-1.3,1.86-3.26,4.58-5.81,8.06-5.1,6.97-12.55,16.99-21.81,29.33-18.53,24.69-44.32,58.64-72.88,96.09Z"/>
      <path class="cls-6" d="M299.37,201.92c-34.19,32.72-65.13,62.33-87.55,83.79-11.13,10.76-20.15,19.47-26.4,25.52-3.08,3.02-5.47,5.37-7.13,6.99-.79.79-1.4,1.4-1.83,1.84-.41.42-.61.64-.6.65.01.01.24-.18.67-.58.45-.42,1.08-1.01,1.9-1.77,1.68-1.6,4.11-3.91,7.24-6.88,6.26-6.04,15.28-14.75,26.42-25.5,22.22-21.66,52.88-51.54,86.77-84.56,33.84-33.03,64.53-62.89,86.88-84.38,11.17-10.75,20.26-19.4,26.58-25.34,3.16-2.97,5.63-5.26,7.33-6.79,1.7-1.53,2.62-2.31,2.68-2.25.06.06-.74.95-2.33,2.59-1.59,1.64-3.96,4.03-7.03,7.08-6.15,6.11-15.11,14.88-26.24,25.68-22.25,21.59-53.17,51.23-87.37,83.91Z"/>
      <path class="cls-6" d="M306.35,210c-39.01,27.15-74.31,51.73-99.9,69.54-12.72,8.95-23.02,16.19-30.17,21.22-3.52,2.52-6.26,4.48-8.16,5.83-.91.66-1.6,1.17-2.1,1.54-.47.35-.71.54-.69.55.01.01.27-.14.76-.47.51-.35,1.23-.83,2.16-1.46,1.91-1.32,4.69-3.24,8.25-5.7,7.15-5.02,17.46-12.26,30.18-21.2,25.42-18.04,60.49-42.92,99.24-70.42,38.71-27.51,73.81-52.37,99.33-70.22,12.76-8.93,23.12-16.11,30.32-21.01,3.6-2.45,6.41-4.34,8.33-5.6,1.92-1.26,2.96-1.88,3.01-1.81.05.07-.88.83-2.71,2.21-1.83,1.38-4.55,3.38-8.08,5.93-7.05,5.11-17.31,12.42-30.03,21.4-25.43,17.96-60.72,42.57-99.73,69.68Z"/>
      <path class="cls-6" d="M311.96,219.04c-42.9,20.89-81.72,39.8-109.86,53.5-14,6.9-25.34,12.49-33.21,16.37-3.88,1.95-6.91,3.47-8.99,4.52-1,.52-1.77.92-2.33,1.2-.52.28-.78.43-.77.44,0,.02.29-.1.83-.35.56-.26,1.35-.63,2.37-1.11,2.1-1.02,5.15-2.49,9.07-4.38,7.87-3.88,19.21-9.46,33.22-16.35,28.01-13.95,66.65-33.2,109.35-54.48,42.66-21.29,81.32-40.52,109.4-54.27,14.04-6.88,25.42-12.4,33.32-16.15,3.95-1.88,7.03-3.31,9.13-4.26,2.1-.95,3.22-1.41,3.26-1.33.04.08-1.01.68-3.03,1.77-2.03,1.09-5.04,2.65-8.93,4.64-7.79,3.97-19.1,9.64-33.1,16.57-28.01,13.88-66.82,32.82-109.72,53.66Z"/>
      <path class="cls-6" d="M316.03,228.82c-45.75,14.07-87.14,26.81-117.15,36.04-14.94,4.68-27.04,8.46-35.44,11.09-4.15,1.33-7.38,2.37-9.61,3.09-1.07.36-1.9.63-2.49.83-.56.19-.84.3-.84.32,0,.02.3-.06.87-.21.6-.17,1.44-.42,2.52-.74,2.24-.68,5.49-1.67,9.66-2.94,8.4-2.62,20.5-6.4,35.45-11.07,29.92-9.5,71.19-22.6,116.8-37.08,45.58-14.51,86.87-27.58,116.82-36.87,14.98-4.65,27.11-8.35,35.52-10.85,4.2-1.25,7.48-2.2,9.7-2.81,2.23-.62,3.41-.9,3.44-.82.03.08-1.1.52-3.28,1.29-2.18.76-5.41,1.85-9.57,3.21-8.33,2.73-20.42,6.6-35.37,11.3-29.91,9.42-71.3,22.19-117.04,36.22Z"/>
      <path class="cls-6" d="M318.48,239.1c-47.45,6.9-90.4,13.15-121.52,17.67-15.52,2.33-28.08,4.22-36.8,5.53-4.32.68-7.67,1.21-9.99,1.58-1.12.19-1.98.34-2.59.44-.58.11-.88.17-.88.19,0,.02.31,0,.89-.08.62-.08,1.49-.19,2.61-.34,2.32-.33,5.69-.81,10.02-1.42,8.72-1.31,21.29-3.18,36.8-5.51,31.08-4.8,73.97-11.43,121.35-18.75,47.36-7.36,90.25-13.95,121.34-18.54,15.54-2.3,28.13-4.1,36.84-5.28,4.35-.59,7.74-1.03,10.04-1.29,2.3-.27,3.51-.36,3.53-.28.01.08-1.17.35-3.45.77-2.28.42-5.64,1-9.97,1.71-8.67,1.42-21.23,3.39-36.76,5.75-31.06,4.73-74.01,11.01-121.44,17.87Z"/>
    </g>
  </g>
  <g id="Desk">
    <path class="cls-2" d="M457.75,483.75c0,.14-93.73.26-209.34.26s-209.36-.12-209.36-.26,93.71-.26,209.36-.26,209.34.12,209.34.26Z"/>
  </g>
  <g id="Character">
    <g>
      <g>
        <g>
          <path class="cls-5" d="M346.69,428.11s-4.49,10.15-2.94,19.25c1.55,9.1-.2,19.86,3.78,21.75,3.98,1.9,5.7-.3,5.93-4.57.23-4.27.73-10.81.86-15.85.13-5.04.41-6.4.41-6.4l1.7-13.66-9.74-.53Z"/>
          <path class="cls-5" d="M363.92,422.17s6.24,24.89,6.22,27.97c-.02,3.08-2,7.41-2,7.41,0,0-1.89,10.9-2.92,12.22-1.02,1.32-11.18,3.06-11.18,3.06l-6.51-3.71,2.64-5.66,5.62.92,1.29-4.67-3.65-5.39-3.12-26,13.6-6.14Z"/>
          <path class="cls-8" d="M357.41,441.37s-.09.47-.35,1.28c-.24.82-.6,1.99-.99,3.47-.77,2.94-1.63,7.06-2,11.69-.1,1.15-.15,2.28-.19,3.38-.03,1.09-.05,2.16-.2,3.18-.25,2.04-1.25,3.85-2.65,4.66-1.41.84-2.87.51-3.59.05-.38-.23-.61-.49-.74-.68-.13-.19-.17-.31-.16-.31.05-.04.26.43.99.82.7.37,2.05.61,3.3-.19,1.25-.78,2.15-2.46,2.37-4.41.13-.98.14-2.03.16-3.13.03-1.1.08-2.24.18-3.41.37-4.66,1.29-8.81,2.16-11.74.43-1.47.85-2.63,1.15-3.43.31-.8.5-1.23.54-1.22Z"/>
        </g>
        <path class="cls-5" d="M346.69,428.11l-4.5-15.37s16.47-11.64,17.37-10.87c.9.77,5.03,22.98,5.03,22.98l-8.44,9.07-9.46-5.8Z"/>
      </g>
      <path class="cls-1" d="M313.67,199.92c-5.59-8.4-34.91-16.61-34.91-16.61l7.88,6.57,17.02,91.73,37.6,135.21,29.29-5.48s-37.9-182.87-56.89-211.43Z"/>
      <g>
        <g>
          <path class="cls-2" d="M330.52,380.08l-69.23,34.01s-5.51,41.22-.77,69.66h62.6c15.85-54.63,7.4-103.67,7.4-103.67Z"/>
          <path class="cls-2" d="M271.4,419.02l-72.79-59.11s-29.25,44.51-20.05,88.78c1.38,6.64,5.76,25.48,8.63,35.06h85.96c-2.18-31.3-1.75-64.73-1.75-64.73Z"/>
          <path class="cls-2" d="M330.86,381.05c.27-.1-58.8,43.18-58.8,43.18l-79.2-53.77,14.61-27.97s40.53,17.28,61.55,12.95c21.01-4.33,44.04-23.09,44.04-23.09,5.17,11.25,14.56,36.24,17.79,48.71Z"/>
        </g>
        <path class="cls-3" d="M291.73,391.97c-.26.36-.61.85-1.07,1.49-.95,1.35-2.33,3.3-4.11,5.82-3.59,5.14-8.8,12.61-15.38,22.06l-.06.08v.1c.76,8.26,1.04,17.85,1.55,28.53.51,10.68.14,21.1.74,33.73l.83-.04c-.65-12.62-.31-23.04-.86-33.72-.56-10.63-.89-20.2-1.7-28.44,6.47-9.47,11.59-16.96,15.11-22.12,1.73-2.56,3.06-4.53,3.99-5.91.43-.65.76-1.16,1.01-1.53.22-.35.33-.52.32-.53-.01,0-.14.16-.38.49Z"/>
      </g>
      <g>
        <path class="cls-2" d="M288.26,81.46c7.9,6.23,12.41,16.52,11.64,26.55-.38,4.87-1.72,10.43,1.45,14.15,3.14,3.68,9.3,3.58,12.31,7.37,3.54,4.46.58,11.1,1.84,16.65,1.19,5.21,6.69,9.05,11.99,8.38-6.22,5.08-13.86,8.39-21.82,9.47-2.03-2.61-4.07-5.22-6.1-7.84,2.31,2.74,1.7,7.12-.54,9.92-2.24,2.8-5.7,4.33-9.12,5.42-16.34,5.18-35.07,2.14-48.93-7.95"/>
        <path class="cls-2" d="M196.64,124.52c1.22-3.74,3.27-7.2,4.09-11.04,1.77-8.26-2.26-17.56,1.75-24.99,2.85-5.29,8.93-7.88,14.68-9.65,5.75-1.77,11.91-3.27,16.2-7.49,3.14-3.09,4.93-7.35,8.06-10.46,4.46-4.42,11.05-5.92,17.33-6.31,6.44-.4,13.1.22,18.89,3.07,5.79,2.84,10.6,8.18,11.64,14.55.5,3.11.12,6.36,1.1,9.35,1.08,3.29,3.66,5.85,5.25,8.92,3.36,6.49,1.54,15.23-4.14,19.84l-44.22,57.12c-9.29,3.51-31.8-.73-38.98-7.6-7.18-6.86-14.73-25.86-11.65-35.3Z"/>
        <path class="cls-5" d="M290.32,103.04c-1.82-12.97-11.68-28.29-24.56-25.92l-39.76,13.36c-3.91.72-1.11,7.1-.73,11.06l8.64,89.66c-.06.02-5.37,3.83-7.29,3.1-.5-.19-.94.37-.64.81,4.77,6.93,27.31,37.24,50.54,27.99,5.19-2.07-.54-18.42.06-24.48l-.69-15.47c-.51-7.9-.76-11.14-.75-11.06,0,0,16.44-4.04,18.22-26.03.89-10.93-1.02-28.6-3.04-43.01Z"/>
        <path class="cls-2" d="M283.65,122.57c.16,1.47-.94,2.82-2.47,3.02-1.53.2-2.9-.82-3.06-2.29-.16-1.47.94-2.82,2.47-3.02,1.53-.2,2.9.83,3.07,2.29Z"/>
        <path class="cls-2" d="M256.39,124c.17,1.47-.94,2.82-2.47,3.02-1.53.2-2.9-.82-3.06-2.29-.16-1.47.94-2.82,2.47-3.02,1.53-.2,2.9.83,3.07,2.29Z"/>
        <path class="cls-2" d="M288.55,113.81c-.3.51-2.89-1.13-6.14-.66-3.25.42-5.33,2.7-5.75,2.29-.21-.18.05-1.06.95-2.08.88-1.02,2.49-2.12,4.52-2.4,2.02-.27,3.86.35,4.98,1.09,1.14.75,1.61,1.53,1.45,1.76Z"/>
        <path class="cls-2" d="M259.41,116.22c-.38.47-2.93-1.38-6.42-1.23-3.49.1-5.96,2.12-6.36,1.68-.19-.2.17-1.03,1.25-1.94,1.06-.91,2.89-1.83,5.07-1.91,2.18-.07,4.04.71,5.14,1.55,1.11.84,1.52,1.65,1.33,1.86Z"/>
        <path class="cls-2" d="M270.35,136.77c-.03-.17,1.81-.63,4.8-1.25.76-.14,1.47-.35,1.56-.88.14-.57-.25-1.37-.68-2.23-.86-1.8-1.76-3.68-2.71-5.65-3.78-8.06-6.58-14.71-6.26-14.85.33-.15,3.66,6.26,7.44,14.32.91,1.99,1.79,3.88,2.62,5.7.36.85.93,1.8.63,2.97-.16.59-.69,1.05-1.17,1.22-.48.19-.91.23-1.29.28-3.03.4-4.91.56-4.93.39Z"/>
        <path class="cls-8" d="M275.15,172.08s-14.54,2.07-29.69-5.52c0,0,8.48,14.68,30.07,10.98l-.38-5.46Z"/>
        <path class="cls-8" d="M261.21,145.52c.41-.7.84-1.42,1.54-1.83.77-.45,1.72-.42,2.59-.26,1.27.24,2.52.77,3.4,1.73.87.95,1.3,2.37.86,3.59h0c-.34,1.25-2.21,1.94-3.48,2.16-1.28.22-2.6-.15-3.74-.79-.95-.53-1.86-1.39-1.91-2.47-.03-.76.36-1.47.75-2.13Z"/>
        <path class="cls-2" d="M261.82,141.3c.49-.07.74,3.19,3.7,5.28,2.96,2.1,6.4,1.47,6.46,1.92.06.2-.72.69-2.18.84-1.43.16-3.56-.14-5.38-1.42-1.81-1.29-2.68-3.12-2.9-4.45-.23-1.35.07-2.18.3-2.18Z"/>
        <path class="cls-2" d="M259.15,104.49c-.23.84-3.26.68-6.74,1.38-3.5.62-6.26,1.87-6.78,1.18-.23-.33.2-1.14,1.29-2.02,1.08-.87,2.83-1.76,4.93-2.16,2.09-.39,4.05-.21,5.37.22,1.33.42,2.03,1.01,1.93,1.41Z"/>
        <path class="cls-2" d="M286.7,102.85c-.55.73-2.96.2-5.8.39-2.85.1-5.21.86-5.81.19-.27-.33.06-1.04,1.06-1.76.99-.72,2.68-1.38,4.63-1.48,1.95-.1,3.69.39,4.73,1.01,1.06.62,1.44,1.3,1.2,1.65Z"/>
        <path class="cls-2" d="M217.21,93.61c2.01-3.09,5.61-4.68,9.04-6,14.81-5.72,30.3-9.66,46.05-11.73,1.96,3.23.15,7.63-2.81,9.98-2.96,2.35-6.76,3.28-10.3,4.61-3.54,1.32-7.17,3.36-8.63,6.85-1.55,3.71-.24,8.1-1.6,11.88-2.34,6.51-11.42,8.61-13.73,15.12-1.74,4.93,1.11,10.18,1.83,15.36.81,5.87-1.37,12.08-5.66,16.16-3.39,3.22-8.03,5.03-12.69,5.12-1.08-18.67-2.15-37.34-3.23-56.01-.22-3.89-.37-8.08,1.75-11.34Z"/>
        <path class="cls-2" d="M179.59,140.78c2.95-2.64,6.65-4.93,7.82-8.71,1.71-5.51-2.71-11.98.14-17,2.6-4.57,10.25-4.34,12.67-9.02,1.89-3.65-.28-6.88.44-10.09.72-3.21,5.27-6.02,8.53-5.63l25.5,36.96c2.37,12.4,4.75,19,2.09,26.25-1.46,3.98-3.36,7.86-3.94,12.05-.57,4.2.5,8.96,3.93,11.44-15.24,1.2-29.53-6.78-42.74-14.5-4.66-2.72-9.32-5.44-13.97-8.16-1.45-.85-2.97-1.76-3.84-3.2-2.05-3.39.43-7.75,3.37-10.39Z"/>
        <path class="cls-3" d="M193.65,158.8s.54.2,1.63.31c1.08.11,2.72.16,4.75-.34,2.01-.49,4.45-1.52,6.62-3.57,2.18-2.02,3.93-5.17,4.36-8.91.21-1.87.08-3.87-.5-5.85-.59-1.99-1.69-3.83-2.83-5.67-1.13-1.84-2.35-3.72-2.92-5.88-.56-2.12-.56-4.64.82-6.46,1.39-1.86,3.96-2.31,6.35-3.28,1.2-.48,2.45-1.23,3.25-2.41.8-1.18,1.08-2.63,1.05-4-.03-2.79-1.22-5.34-1.73-7.94-.26-1.3-.36-2.65-.02-3.89.32-1.25,1.11-2.34,2.2-3.09,2.2-1.57,5.01-1.82,7.71-2.06,2.72-.2,5.56-.81,7.86-2.31,2.32-1.43,4.18-3.49,5.38-5.83,1.18-2.37,1.61-4.91,1.98-7.31.37-2.41.7-4.74,1.49-6.85.8-2.1,2.08-3.92,3.59-5.4,3.07-2.93,6.96-4.48,10.55-4.78,3.61-.31,6.89.65,9.44,1.97,2.57,1.32,4.5,2.97,5.87,4.47,2.75,3.05,3.52,5.27,3.63,5.2.01,0-.04-.14-.15-.4-.12-.25-.26-.64-.53-1.12-.49-.97-1.34-2.35-2.7-3.92-1.36-1.56-3.28-3.29-5.9-4.68-2.59-1.39-5.96-2.43-9.72-2.15-3.73.27-7.77,1.84-11.01,4.87-1.58,1.54-2.95,3.45-3.81,5.66-.85,2.21-1.19,4.61-1.57,7-.38,2.39-.82,4.84-1.93,7.05-1.13,2.19-2.89,4.13-5.08,5.47-2.18,1.41-4.77,1.97-7.48,2.17-2.67.24-5.68.47-8.14,2.22-1.22.84-2.17,2.14-2.54,3.59-.38,1.45-.26,2.93.01,4.29.56,2.75,1.71,5.22,1.73,7.79.03,1.26-.22,2.51-.89,3.5-.67.99-1.72,1.65-2.87,2.11-1.14.48-2.36.81-3.54,1.31-1.17.48-2.35,1.19-3.13,2.25-1.6,2.16-1.52,4.91-.92,7.16.63,2.32,1.92,4.24,3.05,6.07,1.15,1.82,2.23,3.6,2.8,5.48.57,1.88.71,3.79.53,5.58-.37,3.6-2.01,6.64-4.08,8.62-2.07,2.01-4.42,3.06-6.37,3.59-3.98,1.01-6.3.2-6.29.36Z"/>
        <path class="cls-2" d="M173.32,132.52s-.31.37-.5,1.25c-.2.86-.18,2.27.65,3.78.43.73,1.05,1.5,1.95,2.05.89.55,2.03.89,3.26.87,2.43.03,5.29-1.44,6.68-4.24.7-1.37,1.09-2.97,1.09-4.65,0-1.68-.44-3.39-1.07-5.04-1.21-3.3-3.41-6.51-3.45-10.37-.04-1.87.4-3.9,1.77-5.24,1.36-1.38,3.46-1.71,5.54-1.73,2.09-.07,4.37.2,6.6-.68,1.1-.45,2.09-1.26,2.71-2.29.64-1.02.97-2.19,1.11-3.36.28-2.38-.27-4.63-.55-6.78-.33-2.15-.2-4.27.35-6.28,1.12-4.01,3.81-7.38,7.1-9.31,3.3-1.99,7.13-2.21,10.57-2.41,3.47-.18,6.82-.4,9.65-1.52,2.83-1.06,5.11-2.65,6.83-4.3,1.74-1.64,2.92-3.35,3.74-4.8,1.62-2.95,1.81-4.84,1.81-4.84-.11-.04-.43,1.82-2.11,4.67-.85,1.4-2.05,3.05-3.78,4.61-1.71,1.57-3.95,3.09-6.71,4.07-2.74,1.04-5.99,1.22-9.47,1.38-3.44.18-7.41.35-10.95,2.44-3.49,2.03-6.32,5.55-7.52,9.78-.6,2.11-.74,4.42-.39,6.63.29,2.2.81,4.4.55,6.56-.22,2.15-1.33,4.2-3.29,4.94-1.92.78-4.14.57-6.28.63-2.12.02-4.52.37-6.12,2-1.6,1.6-2.04,3.87-1.99,5.86.04,2.03.64,3.97,1.4,5.68.74,1.73,1.56,3.33,2.19,4.94.63,1.6,1.05,3.21,1.07,4.78.02,1.57-.32,3.08-.96,4.36-1.26,2.62-3.86,4-6.13,4.03-1.14.04-2.19-.25-3.03-.73-.84-.49-1.44-1.18-1.87-1.86-.83-1.4-.91-2.74-.78-3.57.13-.85.37-1.26.33-1.28Z"/>
        <path class="cls-2" d="M333.99,141.63c-.14,0,.83,1.46-.05,3.99-.44,1.19-1.43,2.63-3.17,3.21-1.69.58-4.04.13-5.6-1.53-.78-.81-1.23-1.95-1.31-3.19-.08-1.24.16-2.55.58-3.86.81-2.58,2.46-5.39,2.21-8.75-.18-3.26-1.84-6.6-4.64-8.81-1.38-1.11-3.01-1.96-4.75-2.5-1.75-.56-3.62-.69-5.43-.78-1.82-.09-3.61-.14-5.27-.55-1.65-.4-3.15-1.24-4.1-2.55-.95-1.3-1.37-2.92-1.48-4.51-.11-1.6.08-3.17.39-4.7.62-3.05,1.54-6.01,1.37-8.92-.15-2.9-1.25-5.47-2.72-7.41-1.48-1.98-3.38-3.19-4.97-4.2-1.61-1.01-2.98-1.88-3.97-2.74-2.04-1.72-2.39-3.28-2.5-3.21-.01,0,0,.1.07.27.07.17.13.44.31.75.3.64.9,1.54,1.9,2.45.99.93,2.36,1.86,3.93,2.9,1.57,1.05,3.37,2.25,4.74,4.16,1.37,1.87,2.38,4.34,2.49,7.07.13,2.74-.77,5.62-1.43,8.72-.33,1.55-.55,3.22-.44,4.92.11,1.69.55,3.48,1.63,4.97,1.08,1.5,2.81,2.47,4.59,2.89,1.79.44,3.63.48,5.44.58,1.81.09,3.57.21,5.21.74,1.64.51,3.17,1.3,4.47,2.34,2.62,2.05,4.17,5.15,4.36,8.18.27,3.08-1.26,5.77-2.09,8.48-.42,1.37-.67,2.77-.56,4.13.1,1.36.64,2.67,1.54,3.57,1.78,1.82,4.35,2.25,6.21,1.57,1.91-.7,2.92-2.3,3.33-3.57.43-1.31.31-2.42.15-3.1-.19-.69-.42-1-.42-1Z"/>
      </g>
      <g>
        <path class="cls-1" d="M292.06,188.06s20.64,35.36,28.04,51.94c4.12,9.23,5.14,26.67-1.68,53.39-5.11,20.04,5.68,47.18,7.32,51.07,3.7,8.79-19.95,21.12-23.25,23.3-29.25,19.28-94.82-16.13-94.82-16.13l18.03-40.27-15.18-34.02-5.62-88.57,28.02-9.75c14.87,7.32,36.85,7.5,42.92,3.25l16.22,5.79Z"/>
        <path class="cls-2" d="M289.48,373.51s.15-.05.45-.12c.32-.08.76-.18,1.33-.31.59-.14,1.31-.3,2.15-.5.84-.27,1.79-.58,2.87-.92,1.09-.32,2.22-.88,3.51-1.39,1.27-.53,2.59-1.26,4.03-1.98,2.8-1.59,5.88-3.6,9.01-6.18,3.13-2.58,6.3-5.71,9.29-9.42.39-.45.73-.94,1.1-1.43.37-.48.72-.98,1.06-1.49.36-.5.68-1.02,1-1.56.17-.26.31-.54.44-.81l.21-.41.11-.41c.14-1.2-.05-2.5-.25-3.78-.21-1.28-.47-2.58-.77-3.89-1.18-5.23-2.71-10.66-4.27-16.3-.78-2.82-1.59-5.68-2.36-8.6-.38-1.46-.76-2.94-1.09-4.44-.17-.75-.32-1.51-.42-2.29-.08-.79-.09-1.56-.09-2.35.11-6.2.76-12.2,1.39-18v-.02s0-.02,0-.02c2.51-9.91,4.71-19.32,5.09-27.96.06-2.15.05-4.25-.24-6.26-.29-1.99-.87-3.89-1.39-5.71-1.09-3.64-2.4-6.92-3.7-9.84-2.6-5.86-5.22-10.29-7.07-13.29-.93-1.5-1.68-2.64-2.2-3.4-.25-.37-.44-.66-.59-.87-.13-.2-.2-.3-.19-.3,0,0,.09.09.23.27.15.19.36.47.62.84.54.75,1.32,1.87,2.27,3.36,1.9,2.97,4.56,7.39,7.22,13.25,1.32,2.93,2.66,6.21,3.77,9.86.53,1.83,1.12,3.73,1.43,5.77.3,2.04.32,4.16.27,6.33-.35,8.7-2.54,18.14-5.04,28.07v-.03c-.62,5.78-1.27,11.79-1.37,17.94,0,.77,0,1.54.08,2.29.09.75.24,1.5.41,2.24.33,1.49.71,2.96,1.09,4.42.77,2.92,1.57,5.78,2.35,8.6,1.56,5.64,3.08,11.07,4.25,16.33.29,1.31.55,2.62.76,3.92.19,1.3.39,2.59.24,3.93-.05.17-.09.35-.14.51l-.22.44c-.14.29-.29.58-.46.84-.32.55-.66,1.08-1.02,1.58-.34.52-.7,1.02-1.08,1.5-.37.48-.72.98-1.11,1.43-3.03,3.72-6.24,6.86-9.4,9.43-3.16,2.58-6.27,4.58-9.1,6.16-1.46.71-2.78,1.43-4.07,1.95-1.3.49-2.44,1.04-3.54,1.35-1.09.33-2.05.62-2.9.88-.85.2-1.58.33-2.17.45-.57.11-1.01.2-1.34.26-.3.06-.46.07-.46.07Z"/>
        <g class="cls-10">
          <path class="cls-4" d="M324.94,335.35c-3.66-14.54-4.6-29.76-2.75-44.64,1.51-12.09,3.95-24.37,1.35-36.28.09,10.98-2.19,19.51-5.11,32.53-2.75,12.26-1.02,18.22-.83,22.82"/>
        </g>
        <path class="cls-9" d="M207.67,351.63s5.39,2.46,10.33-5.09,10.94-32.88,11.78-35.59c.53-1.72,2.39-54.75,2.39-54.75l-8.63,50.33,2.16,4.83c-2.54,6.88-4.63,10.01-7.15,16.65-3.68,9.65-7.73,21.88-10.88,23.62Z"/>
      </g>
      <g>
        <path class="cls-1" d="M230.41,255.86s-8.87,86.89-22.74,95.77c-3.47,2.22-7.68,2.92-12.04,2.73-15.52-.69-27.58-13.83-27.62-29.37-.05-18.43,3.06-43.47,4.25-53.77,2.38-20.63,10.75-76.68,32.64-82.45,21.89-5.78,25.51,25.64,25.51,25.64v41.46Z"/>
        <path class="cls-5" d="M174.61,183.35s-4.01,5.32-3.99,11.01c0,1.62,3,13.42,3,13.42l12.39,9.52,23.14,7.47-1.85,12.93,19.91,3.38s.39-15.32,0-24.97c-.39-9.66-12.02-19.36-12.02-19.36,0,0-9.66-11.63-13.79-11.03-4.14.59-3.94,5.12-1.97,7.68,1.97,2.56,7.49,8.67,7.49,8.67l-22.86-1.97-6.9-5.91s2.28-5.98,1.58-8.08c-1.12-3.34-4.14-2.76-4.14-2.76Z"/>
        <path class="cls-8" d="M176.97,199.64c.04-.06.86.44,2.16,1.3,1.3.86,3.07,2.07,5,3.44.13.09.27.19.39.27h-.3c1.97-1.33,4.22-1.46,5.67-1.16.74.14,1.3.35,1.67.54.37.19.55.32.54.35-.04.09-.84-.36-2.26-.54-1.4-.19-3.49,0-5.32,1.24l-.15.1-.15-.1c-.12-.09-.26-.18-.39-.27-1.94-1.37-3.67-2.63-4.92-3.57-1.24-.94-1.99-1.54-1.95-1.6Z"/>
        <g>
          <path class="cls-2" d="M176.08,209.17c.13.07-5.59,10.66-12.77,23.64-7.18,12.99-13.1,23.46-13.23,23.39-.13-.07,5.59-10.65,12.77-23.64,7.18-12.99,13.1-23.46,13.22-23.39Z"/>
          <path class="cls-2" d="M187.13,200.2c.14,0-.29,9.96-.96,22.22-.67,12.26-1.34,22.2-1.48,22.19-.14,0,.29-9.95.96-22.22.67-12.26,1.34-22.2,1.48-22.19Z"/>
          <path class="cls-2" d="M188.07,200.44c.14-.01,1.1,10.87,2.13,24.31,1.03,13.44,1.75,24.34,1.61,24.35-.14.01-1.1-10.87-2.13-24.31-1.03-13.43-1.75-24.34-1.61-24.35Z"/>
          <g>
            <polygon class="cls-3" points="73.29 390.72 134.81 249.01 207.16 231.17 146.78 382.53 73.29 390.72"/>
            <polygon class="cls-3" points="105.24 406.35 73.29 390.72 146.78 382.53 187.61 401.83 105.24 406.35"/>
            <polygon class="cls-9" points="105.24 406.35 73.29 390.72 146.78 382.53 187.61 401.83 105.24 406.35"/>
            <polygon class="cls-3" points="207.16 231.17 208.78 237.78 219.99 237.44 187.61 401.83 146.78 382.53 207.16 231.17"/>
            <path class="cls-2" d="M207.16,231.17s-.06.19-.19.56c-.15.38-.35.92-.62,1.62-.56,1.44-1.38,3.53-2.43,6.21-2.14,5.41-5.21,13.2-9.01,22.81-7.66,19.26-18.24,45.84-29.92,75.2-6.45,16.13-12.56,31.43-18,45.04l-.32-.3c10.08-5.05,19.2-9.62,27.08-13.56l.18-.09.08.19c4.22,10.16,7.63,18.4,10,24.11,1.16,2.84,2.07,5.05,2.69,6.57.3.74.53,1.31.69,1.71.15.39.22.59.22.59,0,0-.1-.19-.27-.57-.17-.4-.42-.96-.74-1.69-.64-1.51-1.58-3.71-2.79-6.53-2.41-5.7-5.87-13.91-10.16-24.04l.26.1c-7.87,3.97-16.98,8.57-27.04,13.65l-.56.28.23-.58c5.43-13.62,11.52-28.92,17.95-45.06,11.73-29.33,22.36-55.89,30.06-75.14,3.86-9.59,6.99-17.36,9.17-22.75,1.09-2.67,1.93-4.75,2.52-6.18.29-.69.51-1.22.67-1.6.15-.36.24-.54.24-.54Z"/>
            <path class="cls-2" d="M208.78,237.78c.14.04-7.57,29.43-17.22,65.64-9.65,36.22-17.58,65.55-17.72,65.51-.14-.04,7.57-29.42,17.22-65.64,9.65-36.21,17.58-65.54,17.72-65.5Z"/>
            <polygon class="cls-9" points="207.16 231.17 208.78 237.78 173.84 368.92 146.78 382.53 207.16 231.17"/>
          </g>
        </g>
        <g>
          <path class="cls-2" d="M171.22,197.73c.11.1-9.64,10.84-21.75,23.99-12.12,13.16-22.03,23.74-22.14,23.64-.11-.1,9.63-10.84,21.76-23.99,12.12-13.15,22.03-23.74,22.14-23.64Z"/>
          <g>
            <polygon class="cls-1" points="50.54 356.95 112.06 235.6 184.4 220.33 124.02 349.93 50.54 356.95"/>
            <polygon class="cls-1" points="82.48 370.33 50.54 356.95 124.02 349.93 164.86 366.46 82.48 370.33"/>
            <polygon class="cls-9" points="82.48 370.33 50.54 356.95 124.02 349.93 164.86 366.46 82.48 370.33"/>
            <polygon class="cls-1" points="184.4 220.33 186.02 225.99 197.23 225.7 164.86 366.46 124.02 349.93 184.4 220.33"/>
            <path class="cls-2" d="M184.4,220.33s-.06.17-.2.49c-.15.34-.36.81-.63,1.41-.57,1.26-1.4,3.07-2.46,5.4-2.17,4.7-5.29,11.47-9.15,19.83-7.78,16.74-18.51,39.83-30.36,65.34-6.19,13.27-12.07,25.88-17.37,37.23l-.31-.32c10.13-4.34,19.27-8.26,27.08-11.6l.17-.07.08.16c4.22,8.7,7.63,15.76,10,20.65,1.16,2.43,2.07,4.32,2.7,5.63.3.63.52,1.12.69,1.47.15.33.22.51.22.51,0,0-.1-.16-.27-.48-.18-.34-.42-.83-.74-1.45-.65-1.3-1.58-3.17-2.79-5.58-2.41-4.88-5.87-11.9-10.15-20.58l.24.09c-7.8,3.37-16.93,7.32-27.04,11.7l-.57.25.26-.57c5.28-11.35,11.15-23.97,17.33-37.25,11.91-25.48,22.68-48.55,30.5-65.28,3.92-8.33,7.09-15.07,9.3-19.76,1.1-2.31,1.96-4.12,2.55-5.36.29-.6.51-1.06.68-1.39.15-.31.25-.47.25-.47Z"/>
            <path class="cls-2" d="M186.02,225.99c.14.04-7.57,25.22-17.22,56.22-9.65,31.02-17.58,56.12-17.72,56.07s7.57-25.21,17.22-56.23c9.65-31,17.58-56.11,17.72-56.07Z"/>
            <polygon class="cls-9" points="184.4 220.33 186.02 225.99 151.08 338.28 124.02 349.93 184.4 220.33"/>
          </g>
          <path class="cls-2" d="M141.65,229.35s.26-.09.76-.21c.55-.13,1.28-.3,2.19-.51,1.96-.43,4.7-1.04,8.07-1.79,6.87-1.47,16.28-3.48,26.68-5.71,1.7-.36,3.37-.71,5-1.05l.24-.05.07.23c.55,1.94,1.09,3.83,1.61,5.66l-.25-.18c4.07-.09,7.84-.18,11.21-.25h.28s-.06.26-.06.26c-1.14,4.79-2.08,8.76-2.76,11.58-.33,1.34-.6,2.42-.8,3.21-.09.34-.16.61-.22.84-.05.19-.09.28-.1.28-.01,0,0-.1.03-.3.04-.23.1-.51.16-.85.17-.79.4-1.88.68-3.23.63-2.84,1.51-6.82,2.58-11.63l.21.26c-3.37.1-7.14.21-11.21.33h-.19s-.05-.18-.05-.18c-.53-1.83-1.07-3.71-1.63-5.65l.3.18c-1.63.35-3.3.7-5,1.06-10.41,2.17-19.82,4.13-26.71,5.56-3.38.68-6.14,1.23-8.11,1.63-.92.17-1.66.31-2.21.42-.51.09-.77.13-.78.11Z"/>
        </g>
        <path class="cls-8" d="M187.69,211.31c-.09.07-.72-1.38-2.56-2.97-.92-.78-2.14-1.58-3.64-2.09-.74-.28-1.57-.38-2.45-.66-.44-.15-.89-.36-1.25-.73-.36-.37-.57-.87-.66-1.36-.17-.99-.07-1.89-.2-2.74-.11-.86-.31-1.67-.58-2.42-.27-.74-.59-1.45-.99-2-.4-.57-.93-.91-1.49-1.08-.55-.18-1.1-.21-1.51-.04-.41.17-.66.5-.79.8-.27.6-.28,1-.33.99-.02,0-.02-.1-.01-.28,0-.18.04-.46.16-.79.11-.33.37-.75.86-.99.49-.23,1.12-.22,1.73-.04.61.16,1.29.56,1.73,1.17.46.61.79,1.32,1.09,2.09.29.77.51,1.62.63,2.52.15.89.05,1.85.21,2.7.08.43.25.81.53,1.1.28.29.65.47,1.05.61.79.26,1.67.39,2.45.69,1.56.56,2.81,1.43,3.73,2.27.92.85,1.51,1.68,1.86,2.27.35.6.48.96.46.97Z"/>
        <path class="cls-8" d="M175.69,183.46c.06.06-.45.67-1.11,1.76-.67,1.09-1.43,2.69-2.01,4.55-1.15,3.74-1.22,6.97-1.4,6.95-.07,0-.12-.81-.03-2.11.09-1.3.34-3.09.93-5,.59-1.91,1.43-3.53,2.19-4.6.76-1.07,1.38-1.6,1.42-1.56Z"/>
        <path class="cls-2" d="M178.47,195.3c.13.06-2.54,6.57-5.98,14.56-3.43,7.98-6.32,14.41-6.46,14.35-.13-.06,2.54-6.57,5.98-14.56,3.43-7.98,6.32-14.41,6.45-14.35Z"/>
        <path class="cls-2" d="M180.51,197.04c.14.04-1.33,5.78-3.29,12.81-1.95,7.04-3.65,12.71-3.79,12.68-.14-.04,1.33-5.78,3.29-12.82,1.95-7.04,3.65-12.71,3.79-12.68Z"/>
        <path class="cls-8" d="M212.69,202.9c-.01.14-4.35-.18-9.67-.72-5.33-.54-9.64-1.09-9.62-1.23.01-.14,4.34.18,9.67.72,5.33.54,9.63,1.09,9.62,1.23Z"/>
        <path class="cls-8" d="M209.16,193.52c.12.07-.51,1.22-1.73,2.24-1.21,1.03-2.44,1.46-2.49,1.33-.07-.14,1.01-.75,2.16-1.73,1.16-.97,1.94-1.93,2.07-1.84Z"/>
      </g>
      <path class="cls-2" d="M219.99,239.85s.08,0,.24.02c.18.03.41.06.7.11.65.11,1.56.26,2.72.46,2.41.43,5.88,1.04,10.25,1.82l.14.03-.02.15c-1.33,12.19-3.79,31.76-8.04,53.52-1.8,9.25-3.79,18.02-5.79,25.94-1.83,7.94-3.62,15.12-5.97,20.86-1.18,2.84-2.58,5.4-4.49,7.01-1.82,1.68-3.68,2.77-5.29,3.42-1.61.65-2.95.91-3.85,1.03-.91.11-1.39.09-1.39.09,0,0,.12-.03.35-.05.23-.02.57-.07,1.02-.14.89-.15,2.21-.44,3.79-1.11,1.58-.67,3.4-1.77,5.17-3.44,1.87-1.61,3.19-4.09,4.35-6.93,2.29-5.72,4.04-12.87,5.85-20.84,1.97-7.92,3.94-16.68,5.74-25.92,4.25-21.74,6.78-41.28,8.24-53.45l.13.17c-4.36-.84-7.82-1.5-10.23-1.96-1.16-.23-2.06-.41-2.71-.54-.29-.06-.51-.11-.69-.15-.16-.04-.23-.06-.23-.07Z"/>
    </g>
  </g>
  <g id="Speech_Bubble" data-name="Speech Bubble">
    <g>
      <g>
        <path class="cls-7" d="M344.33,140.96l3.91-11.77c-3.93-5.88-6.33-12.89-6.61-20.48-.8-21.82,16.24-40.16,38.06-40.96,21.82-.8,40.16,16.24,40.96,38.06.8,21.82-16.24,40.16-38.06,40.96-9.11.33-17.61-2.45-24.48-7.39v.02s-13.77,1.56-13.77,1.56Z"/>
        <path class="cls-2" d="M344.33,140.96s.32-.05.92-.12c.61-.08,1.49-.18,2.65-.33,2.33-.28,5.76-.69,10.21-1.23l-.08.2v-.02c-.06-.05-.05-.13,0-.17.04-.04.11-.04.15,0,4.21,2.98,10.34,6.1,18.16,7.03,1.95.23,3.99.34,6.09.26,2.1-.18,4.28-.29,6.47-.81,4.39-.89,8.91-2.59,13.13-5.25,4.22-2.66,8.12-6.27,11.23-10.72,3.11-4.44,5.41-9.7,6.47-15.41,2.22-11.37-1.13-24.54-9.87-33.84-4.45-4.71-9.91-8.37-15.83-10.34-5.89-2.04-12.11-2.61-17.97-1.87-5.88.72-11.35,2.86-15.99,5.82-4.65,2.97-8.48,6.79-11.34,10.96-2.87,4.17-4.76,8.68-5.81,13.08-.12.55-.24,1.1-.36,1.65-.13.54-.24,1.08-.28,1.63-.13,1.09-.25,2.16-.38,3.22-.02,2.12-.14,4.17.07,6.13.69,7.88,3.6,14.08,6.38,18.29.02.03.02.07.01.1-1.29,3.79-2.28,6.7-2.96,8.69-.34.98-.6,1.73-.78,2.26-.18.51-.28.78-.28.78,0,0,.07-.24.23-.74.17-.52.41-1.27.72-2.24.65-2.02,1.61-4.98,2.85-8.82v.1c-2.83-4.21-5.8-10.43-6.54-18.39-.22-1.98-.11-4.05-.1-6.19.12-1.07.24-2.15.37-3.25.04-.55.15-1.1.28-1.65.12-.55.24-1.11.36-1.67,1.05-4.45,2.95-9.02,5.84-13.25,2.88-4.23,6.74-8.11,11.45-11.12,4.7-3,10.24-5.19,16.2-5.92,5.94-.76,12.24-.19,18.22,1.88,6.01,2,11.55,5.7,16.06,10.48.59.55,1.08,1.19,1.58,1.82l1.5,1.87,1.31,2c.44.66.88,1.32,1.23,2.03.37.7.74,1.4,1.1,2.09.39.69.62,1.44.93,2.16.28.73.62,1.44.86,2.18.22.75.44,1.49.66,2.23,1.68,5.96,1.92,12.17.82,17.94-1.08,5.78-3.42,11.11-6.58,15.6-3.16,4.5-7.12,8.15-11.4,10.82-4.28,2.69-8.85,4.39-13.29,5.27-2.22.51-4.42.62-6.54.79-2.13.07-4.19-.04-6.15-.29-7.9-.98-14.06-4.17-18.26-7.2l.17-.18v.02c.06.05.05.13,0,.17-.02.02-.04.03-.07.03-4.5.47-7.96.84-10.31,1.09-1.14.12-2.01.21-2.62.27-.58.06-.87.08-.87.08Z"/>
      </g>
      <polygon class="cls-1" points="362.87 108.32 368.39 102.22 380.1 111.62 397.5 91.64 403.19 97.18 379.84 122.87 362.87 108.32"/>
    </g>
  </g>
</svg>