<?xml version="1.0" encoding="UTF-8"?>
<svg id="Layer_1" data-name="Layer 1" xmlns="http://www.w3.org/2000/svg" viewBox="0 0 368.64 177.48">
  <defs>
    <style>
      .cls-1 {
        fill: #010101;
        stroke-width: 0px;
      }
    </style>
  </defs>
  <g>
    <path class="cls-1" d="M135.06,63.15c-3.75-2.37-5.63-5.99-5.63-10.87,0-2.58.45-4.55,1.34-5.91.89-1.36,2.2-2.04,3.94-2.04,1.27,0,2.3.33,3.1.98.8.66,1.2,1.5,1.2,2.53,0,.94-.07,1.76-.21,2.46,0,.19-.03.52-.1.98s-.1.96-.1,1.48c0,2.11,1.07,3.68,3.2,4.71,2.13,1.03,5.12,1.55,8.97,1.55s7.11-.71,9.36-2.15c2.25-1.43,3.38-3.43,3.38-6.01,0-1.59-.52-2.97-1.55-4.12-1.03-1.15-2.32-2.11-3.87-2.88-1.55-.77-3.73-1.72-6.54-2.85-3.61-1.41-6.56-2.74-8.83-4.01s-4.22-2.99-5.84-5.17c-1.62-2.18-2.43-4.89-2.43-8.12s.9-6.38,2.71-9.01,4.41-4.67,7.81-6.12c3.4-1.45,7.4-2.18,12-2.18,3.42,0,6.56.5,9.43,1.51,2.86,1.01,5.15,2.54,6.86,4.61,1.71,2.06,2.57,4.6,2.57,7.6s-.45,5.18-1.34,6.68c-.89,1.5-2.21,2.25-3.94,2.25-1.22,0-2.24-.38-3.06-1.13-.82-.75-1.23-1.64-1.23-2.67,0-.89.07-1.71.21-2.46.14-1.41.21-2.3.21-2.67,0-1.97-.96-3.47-2.88-4.5-1.92-1.03-4.32-1.55-7.18-1.55-4.03,0-7.12.74-9.25,2.22-2.14,1.48-3.2,3.55-3.2,6.23,0,1.78.55,3.31,1.65,4.57s2.47,2.32,4.11,3.17c1.64.84,3.94,1.85,6.9,3.02,3.56,1.46,6.43,2.77,8.58,3.94s4,2.77,5.52,4.78c1.53,2.02,2.29,4.5,2.29,7.46,0,5.54-2.1,9.79-6.3,12.77s-9.82,4.47-16.85,4.47c-6.24,0-11.23-1.18-14.99-3.55Z"/>
    <path class="cls-1" d="M180.82,63.25c-1.38-2.16-2.08-5.02-2.08-8.58,0-2.11.27-4.82.81-8.12.54-3.31,1.23-6.39,2.08-9.25.42-1.5.98-2.53,1.69-3.1s1.83-.85,3.38-.85c2.39,0,3.59.8,3.59,2.39,0,1.17-.45,3.89-1.34,8.16-1.13,5.16-1.69,8.65-1.69,10.48,0,1.41.19,2.49.56,3.24.37.75,1.01,1.13,1.9,1.13.84,0,1.9-.58,3.17-1.76,1.26-1.17,2.96-3.02,5.06-5.56.56-.66,1.2-.99,1.9-.99.61,0,1.09.28,1.44.85.35.56.53,1.34.53,2.32,0,1.88-.45,3.33-1.34,4.36-4.64,5.67-8.98,8.51-13.02,8.51-3.05,0-5.27-1.08-6.65-3.24ZM183.6,27.33c-.98-.91-1.48-2.19-1.48-3.83s.64-3.01,1.93-4.12c1.29-1.1,2.9-1.65,4.82-1.65,1.74,0,3.14.42,4.22,1.27,1.08.84,1.62,2.04,1.62,3.59,0,1.88-.61,3.37-1.83,4.47-1.22,1.1-2.84,1.65-4.86,1.65s-3.45-.46-4.43-1.37Z"/>
    <path class="cls-1" d="M197.36,63.67c-.73-1.87-1.09-4.88-1.09-9.01,0-6.1.87-11.89,2.6-17.38.42-1.36,1.11-2.36,2.08-2.99.96-.63,2.31-.95,4.04-.95.94,0,1.59.12,1.97.35.37.24.56.68.56,1.34,0,.75-.35,2.44-1.05,5.07-.47,1.88-.85,3.51-1.13,4.89-.28,1.38-.52,3.11-.7,5.17,1.27-3.66,2.78-6.76,4.54-9.29,1.76-2.53,3.56-4.42,5.42-5.66,1.85-1.24,3.6-1.87,5.24-1.87s2.8.38,3.48,1.13c.68.75,1.02,1.9,1.02,3.45s-.45,4.22-1.34,8.16c-.38,1.69-.63,2.96-.77,3.8,2.35-5.77,4.95-9.96,7.81-12.59s5.53-3.94,8.02-3.94c3.05,0,4.57,1.53,4.57,4.57,0,1.83-.52,5.14-1.55,9.92-.89,4.08-1.34,6.78-1.34,8.09,0,1.88.68,2.81,2.04,2.81.94,0,2.05-.57,3.34-1.72s3.01-3.01,5.17-5.59c.56-.66,1.2-.99,1.9-.99.61,0,1.09.28,1.44.85.35.56.53,1.34.53,2.32,0,1.88-.45,3.33-1.34,4.36-2.02,2.49-4.19,4.53-6.51,6.12-2.32,1.6-4.96,2.39-7.91,2.39-2.39,0-4.2-.69-5.42-2.08-1.22-1.38-1.83-3.39-1.83-6.01,0-1.31.33-3.66.98-7.04.61-2.96.92-5,.92-6.12,0-.75-.26-1.13-.77-1.13-.61,0-1.48.79-2.6,2.36s-2.25,3.65-3.38,6.23c-1.13,2.58-2.04,5.3-2.74,8.16-.52,2.25-1.11,3.75-1.79,4.5-.68.75-1.77,1.13-3.27,1.13s-2.71-.74-3.48-2.21c-.77-1.48-1.16-3.27-1.16-5.38,0-1.78.24-4.36.7-7.74.37-3,.56-4.97.56-5.91,0-.75-.26-1.13-.77-1.13-.7,0-1.6.85-2.67,2.53s-2.12,3.85-3.13,6.47c-1.01,2.63-1.82,5.21-2.43,7.74-.52,2.21-1.11,3.69-1.79,4.47-.68.77-1.75,1.16-3.2,1.16-1.78,0-3.04-.94-3.76-2.81Z"/>
    <path class="cls-1" d="M287.49,51.29c.35.56.53,1.34.53,2.32,0,1.88-.45,3.33-1.34,4.36-2.02,2.49-4.19,4.53-6.51,6.12-2.32,1.6-4.96,2.39-7.91,2.39-2.49,0-4.5-.89-6.05-2.67-2.67,1.74-5.46,2.63-8.37,2.67-.61,9.05-1.99,16.62-4.15,22.69-2.16,6.07-5.33,9.11-9.5,9.11-2.53,0-4.41-.92-5.63-2.75s-1.83-4.36-1.83-7.6c0-4.6,1.05-9.96,3.17-16.08,2.11-6.12,5.37-12.86,9.78-20.23,0-6.85-.05-11.61-.14-14.28-.05-1.36.49-2.44,1.62-3.24,1.13-.8,2.53-1.2,4.22-1.2.98,0,1.7.2,2.15.6.45.4.69,1.18.74,2.36,0,1.17.02,2.04.07,2.6,1.5-1.88,2.98-3.22,4.43-4.05,1.45-.82,3-1.23,4.64-1.23,2.63,0,4.77,1.05,6.44,3.16,1.66,2.11,2.5,4.88,2.5,8.3,0,2.49-.4,4.9-1.2,7.25s-1.9,4.48-3.31,6.4c.98.28,1.8.42,2.46.42,1.55,0,3.03-.56,4.43-1.69,1.41-1.13,3.21-3,5.42-5.63.56-.66,1.2-.99,1.9-.99.61,0,1.09.28,1.44.85ZM247.91,83.13c.85-5.51,1.38-12.37,1.62-20.58-2.02,4.69-3.61,9.17-4.78,13.44-1.17,4.27-1.76,7.86-1.76,10.77,0,1.5.18,2.65.53,3.45.35.8.76,1.2,1.23,1.2,1.26,0,2.32-2.76,3.16-8.27ZM262.86,56.95c1.43-1.48,2.57-3.31,3.41-5.49.85-2.18,1.27-4.47,1.27-6.86,0-1.41-.28-2.47-.84-3.2-.56-.73-1.31-1.09-2.25-1.09-1.69,0-3.73,1.78-6.12,5.35-.05,2.06-.07,5.09-.07,9.07,0,2.16-.03,3.82-.07,5,1.69-.37,3.25-1.3,4.68-2.78Z"/>
    <path class="cls-1" d="M310.42,51.29c.35.56.53,1.34.53,2.32,0,1.88-.45,3.33-1.34,4.36-2.02,2.49-4.21,4.53-6.58,6.12-2.37,1.6-5.05,2.39-8.06,2.39-4.13,0-7.19-1.87-9.18-5.63-1.99-3.75-2.99-8.61-2.99-14.57s.74-12.24,2.22-19.56c1.48-7.32,3.66-13.6,6.54-18.86,2.88-5.25,6.32-7.88,10.31-7.88,2.25,0,4.02,1.04,5.31,3.13,1.29,2.09,1.93,5.08,1.93,8.97,0,5.58-1.55,12.06-4.64,19.42-3.1,7.37-7.29,14.66-12.59,21.88.33,1.93.87,3.3,1.62,4.12.75.82,1.74,1.23,2.96,1.23,1.92,0,3.61-.55,5.07-1.65,1.45-1.1,3.31-2.99,5.56-5.66.56-.66,1.2-.99,1.9-.99.61,0,1.09.28,1.44.85ZM296.67,12.8c-1.36,3.89-2.56,8.72-3.59,14.49-1.03,5.77-1.59,11.3-1.69,16.6,3.33-5.49,5.98-10.99,7.95-16.5,1.97-5.51,2.96-10.54,2.96-15.09,0-3.56-.66-5.35-1.97-5.35-1.08,0-2.3,1.95-3.66,5.84Z"/>
    <path class="cls-1" d="M338.07,51.29c.35.56.53,1.34.53,2.32,0,1.88-.45,3.33-1.34,4.36-1.74,2.11-4.19,4.06-7.35,5.84-3.16,1.78-6.55,2.67-10.17,2.67-4.93,0-8.75-1.34-11.47-4.01-2.72-2.67-4.08-6.33-4.08-10.97,0-3.24.68-6.25,2.04-9.04,1.36-2.79,3.25-5,5.66-6.65,2.41-1.64,5.15-2.46,8.2-2.46,2.72,0,4.9.81,6.54,2.43,1.64,1.62,2.46,3.81,2.46,6.58,0,3.24-1.16,6.01-3.48,8.34-2.32,2.32-6.25,4.16-11.78,5.52,1.17,2.16,3.4,3.24,6.68,3.24,2.11,0,4.51-.74,7.21-2.21,2.7-1.48,5.03-3.41,7-5.81.56-.66,1.2-.99,1.9-.99.61,0,1.09.28,1.44.85ZM314.5,43.27c-1.2,2.02-1.79,4.45-1.79,7.32v.14c2.77-.66,4.95-1.64,6.54-2.96,1.59-1.31,2.39-2.84,2.39-4.57,0-.89-.25-1.61-.74-2.15-.49-.54-1.16-.81-2-.81-1.74,0-3.2,1.01-4.4,3.03Z"/>
    <path class="cls-1" d="M340.39,66.35c-1.29-1.13-1.93-2.39-1.93-3.8,0-1.22.45-2.27,1.34-3.17s2.2-1.34,3.94-1.34c.61,0,1.32.06,2.15.18.82.12,1.44.2,1.86.25-.05-1.22-.32-2.37-.81-3.45s-1.11-2.12-1.86-3.13c-.75-1.01-1.46-1.89-2.11-2.64-1.45,2.77-2.9,5.06-4.33,6.89s-2.99,3.56-4.68,5.21c-.85.85-1.74,1.27-2.67,1.27-.75,0-1.36-.27-1.83-.81s-.7-1.21-.7-2c0-.94.33-1.81.99-2.6l.91-1.13c2.58-3.19,4.53-5.82,5.84-7.88.8-1.36,1.74-3.18,2.81-5.45,1.08-2.27,2.14-4.63,3.17-7.07.89-2.06,2.75-3.09,5.56-3.09,1.31,0,2.23.12,2.74.35.52.24.77.61.77,1.13,0,.28-.09.73-.28,1.34s-.45,1.22-.77,1.83c-.85,1.69-1.27,3.12-1.27,4.29,0,.7.25,1.48.74,2.32.49.84,1.25,1.9,2.29,3.16,1.5,1.97,2.64,3.65,3.41,5.03.77,1.38,1.16,2.9,1.16,4.54,0,.47-.05,1.13-.14,1.97,2.3-.89,5-3.26,8.09-7.11.56-.66,1.19-.99,1.9-.99.61,0,1.09.28,1.44.85.35.56.53,1.34.53,2.32,0,1.78-.45,3.24-1.34,4.36-2.35,2.91-4.59,4.89-6.72,5.94-2.14,1.05-4.77,1.63-7.91,1.72-1.88,1.59-4.1,2.39-6.68,2.39-2.44,0-4.3-.56-5.59-1.69Z"/>
    <path class="cls-1" d="M190.18,120.87c.49.47.74,1.08.74,1.83,0,1.22-.36,2.3-1.09,3.24-.73.94-1.87,1.43-3.41,1.48-3.75.09-7.08-.19-9.99-.85-3.33,6.99-7.35,12.8-12.07,17.42-4.71,4.62-9.44,6.93-14.18,6.93s-8.51-2.84-10.91-8.51-3.59-13.34-3.59-23.01c0-8.26.59-15.67,1.76-22.23.42-2.44,1.02-4.09,1.8-4.96.77-.87,2.1-1.3,3.98-1.3,3.09,0,4.64,1.34,4.64,4.01,0,.28-.05.8-.14,1.55-1.41,8.44-2.11,16.09-2.11,22.94s.6,12.63,1.79,16.36c1.2,3.73,2.99,5.6,5.38,5.6s5.09-1.69,7.95-5.07,5.49-7.62,7.88-12.73c-2.86-1.78-5.02-4.09-6.47-6.93-1.46-2.84-2.18-6.11-2.18-9.82s.58-6.84,1.72-9.39c1.15-2.55,2.72-4.47,4.71-5.73,1.99-1.26,4.21-1.9,6.65-1.9,3,0,5.38,1.08,7.14,3.24,1.76,2.16,2.64,5.11,2.64,8.87,0,5.39-1.17,11.28-3.52,17.66,2.48.42,5.32.63,8.51.63,1.08,0,1.87.24,2.36.7ZM171.5,116.51c1.83-5.25,2.74-9.59,2.74-13.02,0-1.97-.26-3.41-.77-4.33-.52-.91-1.22-1.37-2.11-1.37-1.27,0-2.3.74-3.1,2.22-.8,1.48-1.2,3.58-1.2,6.3,0,4.6,1.48,8,4.43,10.2Z"/>
    <path class="cls-1" d="M216.92,135.72c.35.56.53,1.34.53,2.32,0,1.88-.45,3.33-1.34,4.36-1.74,2.11-4.19,4.06-7.35,5.84-3.16,1.78-6.55,2.67-10.17,2.67-4.93,0-8.75-1.34-11.47-4.01-2.72-2.67-4.08-6.33-4.08-10.97,0-3.24.68-6.25,2.04-9.04,1.36-2.79,3.25-5,5.66-6.65,2.41-1.64,5.15-2.46,8.2-2.46,2.72,0,4.9.81,6.54,2.43,1.64,1.62,2.46,3.81,2.46,6.58,0,3.24-1.16,6.01-3.48,8.34-2.32,2.32-6.25,4.16-11.78,5.52,1.17,2.16,3.4,3.24,6.68,3.24,2.11,0,4.51-.74,7.21-2.21,2.7-1.48,5.03-3.41,7-5.81.56-.66,1.2-.99,1.9-.99.61,0,1.09.28,1.44.85ZM193.35,127.7c-1.2,2.02-1.79,4.45-1.79,7.32v.14c2.77-.66,4.95-1.64,6.54-2.96,1.59-1.31,2.39-2.84,2.39-4.57,0-.89-.25-1.61-.74-2.15-.49-.54-1.16-.81-2-.81-1.74,0-3.2,1.01-4.4,3.03Z"/>
    <path class="cls-1" d="M212.98,148.1c-.73-1.87-1.09-4.88-1.09-9.01,0-6.1.87-11.89,2.6-17.38.42-1.36,1.11-2.36,2.08-2.99.96-.63,2.31-.95,4.04-.95.94,0,1.59.12,1.97.35.37.24.56.68.56,1.34,0,.75-.35,2.44-1.05,5.07-.47,1.88-.85,3.52-1.13,4.93-.28,1.41-.52,3.14-.7,5.21,1.55-4.03,3.28-7.32,5.21-9.85,1.92-2.53,3.81-4.34,5.66-5.42s3.55-1.62,5.1-1.62c3.05,0,4.57,1.53,4.57,4.57,0,1.83-.52,5.14-1.55,9.92-.89,4.08-1.34,6.78-1.34,8.09,0,1.88.68,2.81,2.04,2.81.94,0,2.05-.57,3.34-1.72,1.29-1.15,3.01-3.01,5.17-5.59.56-.66,1.2-.99,1.9-.99.61,0,1.09.28,1.44.85.35.56.53,1.34.53,2.32,0,1.88-.45,3.33-1.34,4.36-2.02,2.49-4.19,4.53-6.51,6.12-2.32,1.6-4.96,2.39-7.92,2.39-2.39,0-4.2-.69-5.42-2.08-1.22-1.38-1.83-3.39-1.83-6.01,0-1.31.33-3.66.98-7.04.61-2.96.91-5,.91-6.12,0-.75-.26-1.13-.77-1.13-.61,0-1.47.79-2.57,2.36-1.1,1.57-2.23,3.65-3.38,6.23-1.15,2.58-2.08,5.3-2.78,8.16-.52,2.21-1.11,3.69-1.79,4.47-.68.77-1.75,1.16-3.2,1.16-1.78,0-3.04-.94-3.76-2.81Z"/>
    <path class="cls-1" d="M288.05,135.72c.35.56.53,1.34.53,2.32,0,1.88-.45,3.33-1.34,4.36-1.92,2.35-4.04,4.35-6.33,6.01s-4.57,2.5-6.82,2.5c-3.56,0-6.29-2.09-8.16-6.26-1.97,2.49-3.7,4.15-5.17,5-1.48.84-3.2,1.26-5.17,1.26-2.86,0-5.22-1.07-7.07-3.2-1.86-2.13-2.78-4.91-2.78-8.34,0-3.75.8-7.23,2.39-10.45,1.59-3.21,3.79-5.84,6.58-7.88,2.79-2.04,5.92-3.25,9.39-3.62.89-9.1,2.59-16.87,5.1-23.32,2.51-6.45,5.8-9.67,9.89-9.67,2.02,0,3.69.91,5.03,2.74,1.34,1.83,2,4.6,2,8.3,0,5.25-1.29,11.4-3.87,18.43s-6.03,14.26-10.34,21.67c.19,2.72.6,4.67,1.23,5.84.63,1.17,1.44,1.76,2.43,1.76,1.27,0,2.56-.56,3.87-1.69,1.31-1.13,3.07-3,5.28-5.63.56-.66,1.2-.99,1.9-.99.61,0,1.09.28,1.44.85ZM260.72,142.72c.89-.73,2.02-2.08,3.38-4.05-.47-2.53-.7-5.37-.7-8.51,0-1.13.05-2.96.14-5.49-2.58.8-4.73,2.52-6.44,5.17-1.71,2.65-2.57,5.6-2.57,8.83,0,3.42,1.17,5.14,3.52,5.14.89,0,1.78-.36,2.67-1.09ZM275.63,96.07c-.89,3.17-1.65,7.31-2.29,12.42-.63,5.11-1.09,10.46-1.37,16.04,5.25-11.44,7.88-20.64,7.88-27.58,0-1.78-.15-3.16-.46-4.15-.31-.99-.67-1.48-1.09-1.48-.89,0-1.78,1.58-2.67,4.75Z"/>
    <path class="cls-1" d="M283.86,147.75c-1.74-2.11-2.6-4.88-2.6-8.3,0-3.75.87-7.31,2.6-10.66,1.74-3.35,4.05-6.05,6.93-8.09,2.88-2.04,5.95-3.06,9.18-3.06,1.03,0,1.72.2,2.08.6.35.4.64,1.11.88,2.15.99-.19,2.02-.28,3.1-.28,2.3,0,3.45.82,3.45,2.46,0,.99-.35,3.33-1.05,7.04-1.08,5.39-1.62,9.15-1.62,11.26,0,.7.18,1.27.53,1.69.35.42.81.63,1.37.63.89,0,1.97-.57,3.24-1.72s2.98-3.01,5.14-5.59c.56-.66,1.2-.99,1.9-.99.61,0,1.09.28,1.44.85.35.56.53,1.34.53,2.32,0,1.88-.45,3.33-1.34,4.36-1.92,2.39-3.96,4.41-6.12,6.05s-4.25,2.46-6.26,2.46c-1.55,0-2.97-.53-4.26-1.58-1.29-1.06-2.26-2.5-2.92-4.33-2.44,3.94-5.51,5.91-9.22,5.91-2.91,0-5.23-1.05-6.97-3.16ZM296.32,141.98c.94-1.22,1.62-2.84,2.04-4.85l2.6-12.95c-1.97.05-3.79.79-5.45,2.21-1.66,1.43-2.99,3.32-3.97,5.66-.99,2.35-1.48,4.83-1.48,7.46,0,1.45.29,2.53.88,3.24s1.4,1.05,2.43,1.05,2.02-.61,2.96-1.83Z"/>
  </g>
  <path class="cls-1" d="M112.58,133.45l-22.78-45.56c1.06-1.03,2.09-2.1,3.07-3.23,8.58-9.95,12.76-22.65,11.79-35.75C102.65,21.86,79.04,1.53,51.96,3.51c-13.1.97-25.04,6.99-33.61,16.94-8.57,9.95-12.76,22.65-11.79,35.75.77,10.31,4.7,19.88,11.18,27.67L.34,134.19c-1.11,3.21.59,6.72,3.8,7.83.67.23,1.35.34,2.01.34,2.55,0,4.93-1.6,5.81-4.14l15.65-45.24c6.42,4.47,13.72,7.27,21.4,8.29l-2.95,69.81c-.14,3.4,2.49,6.26,5.89,6.41.09,0,.18,0,.26,0,3.28,0,6-2.59,6.14-5.89l2.97-70.24c6.58-.77,12.81-2.81,18.44-5.99l21.8,43.6c1.08,2.16,3.25,3.4,5.51,3.4.93,0,1.86-.21,2.75-.65,3.04-1.52,4.27-5.22,2.75-8.26ZM54.78,27.9c2.95-6.11,10.32-8.69,16.43-5.74,6.11,2.95,8.69,10.32,5.74,16.43-2.95,6.11-10.32,8.69-16.43,5.74-2.96-1.43-5.19-3.92-6.27-7.03-1.08-3.1-.89-6.44.53-9.4ZM18.84,55.29c-1.38-18.53,11.27-34.88,28.93-38.72-1.61,1.74-2.99,3.74-4.08,5.98-5.9,12.22-.75,26.97,11.48,32.86,3.44,1.66,7.07,2.44,10.65,2.44,9.16,0,17.97-5.13,22.21-13.92.8-1.66,1.38-3.36,1.78-5.09,1.37,3.42,2.28,7.1,2.56,10.97.73,9.82-2.41,19.34-8.84,26.8-6.43,7.46-15.38,11.97-25.2,12.7-.57.04-1.13.03-1.69.04-.32-.06-.63-.12-.97-.14-.51-.01-1,.05-1.48.15-8.32-.31-16.25-3.38-22.66-8.89-7.46-6.43-11.97-15.38-12.7-25.2Z"/>
</svg>