<svg width="536" height="520" viewBox="0 0 536 520" fill="none" xmlns="http://www.w3.org/2000/svg">
<path d="M342.215 267.796C290.78 267.314 244.234 266.885 210.498 266.564C193.668 266.489 180.042 266.424 170.577 266.371C165.892 266.381 162.247 266.392 159.728 266.392C158.517 266.403 157.573 266.424 156.909 266.424C156.276 266.435 155.944 266.456 155.944 266.478C155.944 266.499 156.265 266.521 156.909 266.542C157.584 266.553 158.517 266.574 159.728 266.606C162.247 266.639 165.892 266.681 170.577 266.735C180.042 266.789 193.668 266.853 210.498 266.949C244.234 266.971 290.791 267.003 342.225 267.035C393.638 267.035 440.195 267.1 473.899 267.335C490.751 267.453 504.387 267.614 513.81 267.786C518.526 267.871 522.182 267.968 524.658 268.064C527.135 268.161 528.442 268.257 528.442 268.343C528.442 268.429 527.135 268.515 524.658 268.579C522.182 268.643 518.516 268.708 513.799 268.75C504.376 268.836 490.729 268.858 473.878 268.804C440.174 268.708 393.617 268.311 342.215 267.796Z" fill="#EBEBEB"/>
<path d="M341.196 279.074C290.469 270.83 244.555 263.358 211.281 257.955C194.665 255.34 181.222 253.217 171.874 251.748C167.243 251.052 163.641 250.516 161.143 250.14C159.942 249.969 159.01 249.84 158.345 249.755C157.713 249.669 157.391 249.647 157.391 249.658C157.391 249.68 157.702 249.744 158.334 249.862C158.999 249.98 159.91 250.14 161.111 250.355C163.598 250.762 167.189 251.363 171.81 252.124C181.147 253.603 194.6 255.736 211.206 258.363C244.534 263.476 290.512 270.53 341.314 278.323C392.106 286.074 438.084 293.171 471.337 298.498C487.964 301.157 501.407 303.376 510.69 304.973C515.332 305.777 518.934 306.42 521.367 306.892C523.801 307.364 525.076 307.653 525.055 307.739C525.044 307.825 523.736 307.718 521.281 307.407C518.816 307.107 515.193 306.603 510.529 305.938C501.203 304.598 487.728 302.561 471.09 299.967C437.816 294.789 391.891 287.36 341.186 279.074H341.196Z" fill="#EBEBEB"/>
<path d="M338.355 290.051C289.59 274.143 245.467 259.746 213.478 249.304C197.495 244.18 184.556 240.021 175.572 237.137C171.113 235.744 167.639 234.661 165.238 233.91C164.08 233.557 163.18 233.289 162.537 233.096C161.926 232.924 161.615 232.838 161.604 232.86C161.604 232.881 161.904 232.999 162.494 233.214C163.126 233.428 164.005 233.728 165.152 234.125C167.532 234.907 170.995 236.054 175.433 237.512C184.416 240.407 197.355 244.566 213.328 249.701C245.413 259.853 289.676 273.853 338.58 289.322C387.474 304.748 431.737 318.791 463.715 329.136C479.709 334.314 492.627 338.559 501.535 341.561C505.984 343.062 509.436 344.251 511.762 345.088C514.088 345.924 515.3 346.406 515.268 346.492C515.235 346.578 513.97 346.267 511.591 345.591C509.211 344.916 505.705 343.866 501.214 342.493C492.22 339.749 479.248 335.665 463.233 330.562C431.212 320.346 387.067 305.981 338.334 290.04L338.355 290.051Z" fill="#EBEBEB"/>
<path d="M333.789 300.46C288.207 277.294 246.957 256.326 217.059 241.136C202.104 233.621 190.001 227.543 181.597 223.33C177.416 221.271 174.168 219.663 171.917 218.559C170.823 218.034 169.987 217.637 169.387 217.348C168.819 217.08 168.519 216.951 168.508 216.973C168.508 216.994 168.776 217.155 169.333 217.455C169.923 217.766 170.748 218.195 171.82 218.763C174.05 219.899 177.277 221.561 181.425 223.683C189.83 227.907 201.933 233.996 216.876 241.522C246.914 256.455 288.357 277.048 334.153 299.817C379.938 322.533 421.371 343.169 451.28 358.284C466.234 365.841 478.305 372.005 486.613 376.326C490.772 378.491 493.988 380.185 496.154 381.364C498.319 382.543 499.434 383.208 499.391 383.283C499.348 383.369 498.148 382.865 495.907 381.825C493.667 380.785 490.376 379.22 486.163 377.172C477.726 373.077 465.57 367.074 450.594 359.57C420.621 344.584 379.349 323.647 333.81 300.46H333.789Z" fill="#EBEBEB"/>
<path d="M327.593 310.044C286.299 280.242 248.929 253.26 221.84 233.707C208.279 224.016 197.302 216.179 189.68 210.723C185.885 208.054 182.926 205.974 180.889 204.537C179.892 203.851 179.131 203.326 178.585 202.951C178.059 202.597 177.791 202.426 177.77 202.447C177.759 202.458 178.006 202.661 178.51 203.047C179.046 203.444 179.785 204.001 180.75 204.72C182.765 206.188 185.692 208.311 189.444 211.034C197.066 216.49 208.032 224.337 221.593 234.039C248.865 253.346 286.481 279.996 328.054 309.433C369.626 338.827 407.231 365.498 434.332 384.977C447.882 394.71 458.816 402.632 466.331 408.175C470.083 410.94 472.988 413.106 474.939 414.607C476.89 416.097 477.887 416.922 477.823 416.997C477.769 417.072 476.665 416.397 474.617 415.025C472.57 413.663 469.579 411.616 465.741 408.957C458.066 403.629 447.024 395.847 433.431 386.177C406.235 366.828 368.843 339.878 327.593 310.054V310.044Z" fill="#EBEBEB"/>
<path d="M319.938 318.566C283.919 282.879 251.319 250.591 227.693 227.178C215.847 215.558 206.263 206.146 199.595 199.617C196.272 196.401 193.689 193.903 191.899 192.178C191.03 191.352 190.355 190.72 189.872 190.269C189.411 189.841 189.165 189.637 189.154 189.648C189.143 189.658 189.358 189.905 189.787 190.355C190.248 190.827 190.891 191.491 191.738 192.338C193.496 194.096 196.047 196.626 199.317 199.896C205.974 206.435 215.558 215.847 227.392 227.478C251.234 250.677 284.133 282.687 320.485 318.052C356.847 353.374 389.725 385.406 413.384 408.743C425.219 420.406 434.749 429.883 441.278 436.486C444.547 439.788 447.067 442.372 448.75 444.14C450.433 445.909 451.29 446.874 451.226 446.938C451.162 447.003 450.175 446.167 448.374 444.505C446.574 442.854 443.936 440.378 440.581 437.162C433.849 430.74 424.19 421.382 412.312 409.772C388.546 386.542 355.915 354.275 319.938 318.577V318.566Z" fill="#EBEBEB"/>
<path d="M311.019 325.824C281.143 285.131 254.117 248.297 234.521 221.604C224.68 208.333 216.715 197.591 211.184 190.13C208.418 186.453 206.263 183.591 204.773 181.618C204.044 180.675 203.487 179.946 203.08 179.421C202.694 178.928 202.49 178.681 202.468 178.692C202.447 178.702 202.629 178.97 202.983 179.485C203.369 180.021 203.894 180.771 204.591 181.747C206.049 183.741 208.161 186.635 210.862 190.355C216.394 197.816 224.348 208.568 234.178 221.84C254.021 248.361 281.4 284.948 311.652 325.384C341.925 365.777 369.272 402.386 388.911 429.014C398.73 442.329 406.631 453.134 412.023 460.638C414.725 464.39 416.804 467.328 418.176 469.332C419.559 471.337 420.245 472.42 420.17 472.473C420.095 472.527 419.259 471.551 417.737 469.643C416.215 467.735 414.017 464.894 411.208 461.217C405.591 453.863 397.54 443.154 387.667 429.883C367.91 403.351 340.842 366.528 311.019 325.834V325.824Z" fill="#EBEBEB"/>
<path d="M301.039 331.645C278.087 286.91 257.312 246.421 242.25 217.08C234.661 202.479 228.518 190.655 224.262 182.444C222.118 178.392 220.446 175.24 219.299 173.064C218.731 172.024 218.291 171.22 217.98 170.641C217.68 170.094 217.509 169.826 217.498 169.837C217.476 169.837 217.605 170.137 217.873 170.695C218.163 171.284 218.57 172.099 219.095 173.171C220.21 175.368 221.829 178.542 223.908 182.626C228.164 190.837 234.296 202.662 241.875 217.273C257.205 246.485 278.366 286.781 301.736 331.312C325.137 375.8 346.256 416.118 361.371 445.405C368.929 460.038 374.985 471.916 379.113 480.16C381.171 484.276 382.757 487.492 383.797 489.679C384.837 491.866 385.341 493.045 385.255 493.077C385.169 493.12 384.505 492.027 383.304 489.915C382.114 487.803 380.388 484.662 378.212 480.599C373.849 472.484 367.621 460.681 359.999 446.081C344.755 416.869 323.937 376.39 301.028 331.666L301.039 331.645Z" fill="#EBEBEB"/>
<path d="M290.244 335.879C274.818 288.186 260.861 245.038 250.741 213.746C245.617 198.17 241.457 185.552 238.584 176.794C237.127 172.463 235.99 169.097 235.197 166.771C234.8 165.656 234.5 164.788 234.286 164.177C234.071 163.598 233.953 163.298 233.932 163.308C233.911 163.308 233.996 163.619 234.168 164.22C234.361 164.841 234.629 165.72 234.972 166.846C235.722 169.183 236.805 172.57 238.188 176.923C241.061 185.681 245.209 198.298 250.323 213.885C260.743 245.081 275.107 288.111 290.984 335.654C306.892 383.165 321.225 426.216 331.409 457.444C336.501 473.052 340.564 485.712 343.308 494.471C344.68 498.855 345.72 502.264 346.395 504.59C347.071 506.917 347.382 508.149 347.285 508.171C347.199 508.203 346.706 507.024 345.87 504.751C345.034 502.479 343.844 499.112 342.343 494.771C339.342 486.088 335.107 473.481 329.951 457.894C319.628 426.71 305.627 383.562 290.244 335.879Z" fill="#EBEBEB"/>
<path d="M278.891 338.398C271.377 288.947 264.58 244.191 259.649 211.752C257.108 195.586 255.05 182.487 253.624 173.396C252.885 168.894 252.306 165.399 251.909 162.976C251.705 161.808 251.545 160.918 251.427 160.275C251.309 159.664 251.245 159.353 251.223 159.364C251.202 159.364 251.223 159.685 251.309 160.296C251.395 160.939 251.523 161.84 251.684 163.019C252.048 165.442 252.563 168.947 253.238 173.46C254.664 182.551 256.712 195.64 259.242 211.817C264.473 244.212 271.698 288.904 279.674 338.291C287.693 387.646 294.875 432.348 299.881 464.744C302.39 480.942 304.351 494.053 305.638 503.133C306.281 507.667 306.753 511.194 307.042 513.595C307.332 515.997 307.439 517.261 307.342 517.272C307.246 517.283 306.967 516.05 306.506 513.681C306.045 511.312 305.423 507.806 304.641 503.283C303.086 494.246 300.942 481.156 298.37 464.969C293.213 432.595 286.374 387.839 278.902 338.409L278.891 338.398Z" fill="#EBEBEB"/>
<path d="M267.271 339.17C267.732 289.183 268.15 243.944 268.461 211.152C268.536 194.793 268.589 181.554 268.632 172.356C268.622 167.8 268.611 164.252 268.6 161.808C268.579 160.628 268.568 159.717 268.557 159.063C268.547 158.442 268.525 158.131 268.504 158.131C268.482 158.131 268.461 158.452 268.439 159.063C268.429 159.717 268.407 160.628 268.375 161.808C268.343 164.252 268.3 167.8 268.246 172.356C268.203 181.554 268.139 194.793 268.053 211.152C268.053 243.944 268.053 289.183 268.053 339.17C268.086 389.136 268.053 434.385 267.828 467.135C267.721 483.515 267.571 496.765 267.389 505.93C267.303 510.508 267.207 514.067 267.11 516.479C267.014 518.891 266.917 520.156 266.831 520.156C266.735 520.156 266.649 518.891 266.585 516.479C266.51 514.067 266.456 510.508 266.403 505.93C266.317 496.765 266.285 483.515 266.328 467.135C266.403 434.374 266.788 389.136 267.282 339.17H267.271Z" fill="#EBEBEB"/>
<path d="M255.661 338.173C264.12 288.861 271.763 244.234 277.316 211.892C279.996 195.747 282.172 182.669 283.684 173.589C284.402 169.087 284.949 165.581 285.334 163.158C285.506 161.99 285.635 161.09 285.731 160.446C285.817 159.835 285.849 159.514 285.828 159.514C285.806 159.514 285.731 159.825 285.613 160.425C285.495 161.068 285.324 161.958 285.109 163.126C284.691 165.538 284.08 169.033 283.287 173.525C281.775 182.605 279.588 195.672 276.887 211.817C271.645 244.212 264.42 288.904 256.423 338.28C248.479 387.646 241.211 432.338 235.744 464.659C233.021 480.824 230.748 493.892 229.108 502.918C228.293 507.431 227.629 510.926 227.146 513.295C226.664 515.664 226.364 516.897 226.278 516.886C226.181 516.876 226.299 515.611 226.61 513.209C226.921 510.819 227.436 507.292 228.122 502.757C229.494 493.688 231.584 480.599 234.243 464.423C239.549 432.08 247.171 387.442 255.661 338.162V338.173Z" fill="#EBEBEB"/>
<path d="M244.362 335.429C260.7 288.025 275.493 245.134 286.213 214.036C291.477 198.502 295.743 185.917 298.702 177.191C300.138 172.849 301.253 169.483 302.025 167.146C302.379 166.021 302.658 165.152 302.861 164.52C303.044 163.93 303.129 163.619 303.108 163.619C303.086 163.619 302.968 163.909 302.754 164.488C302.529 165.099 302.218 165.956 301.821 167.071C301.017 169.387 299.838 172.742 298.337 177.062C295.368 185.799 291.091 198.363 285.816 213.896C275.397 245.081 261.01 288.111 245.123 335.654C229.279 383.186 214.861 426.216 204.237 457.294C198.92 472.838 194.568 485.402 191.48 494.053C189.937 498.384 188.715 501.739 187.857 504.001C187 506.263 186.506 507.442 186.41 507.41C186.324 507.378 186.635 506.145 187.332 503.829C188.029 501.514 189.101 498.116 190.516 493.742C193.335 485.005 197.527 472.388 202.769 456.822C213.253 425.691 228.014 382.779 244.384 335.407L244.362 335.429Z" fill="#EBEBEB"/>
<path d="M233.653 330.991C257.462 286.674 279.01 246.571 294.618 217.509C302.336 202.972 308.586 191.202 312.917 183.033C315.04 178.97 316.68 175.808 317.827 173.621C318.363 172.56 318.781 171.745 319.07 171.155C319.349 170.598 319.478 170.309 319.456 170.298C319.435 170.298 319.274 170.566 318.963 171.102C318.642 171.67 318.202 172.474 317.623 173.514C316.455 175.679 314.75 178.82 312.574 182.851C308.232 191.02 301.972 202.779 294.243 217.316C278.902 246.517 257.73 286.814 234.339 331.334C210.991 375.854 189.787 416.129 174.254 445.202C166.493 459.738 160.157 471.476 155.708 479.559C153.489 483.601 151.742 486.72 150.52 488.832C149.308 490.933 148.622 492.027 148.547 491.984C148.462 491.941 148.976 490.772 150.048 488.596C151.109 486.42 152.717 483.225 154.829 479.12C159.031 470.919 165.206 459.105 172.914 444.537C188.308 415.4 209.823 375.275 233.653 331.001V330.991Z" fill="#EBEBEB"/>
<path d="M223.791 324.977C254.428 284.83 282.161 248.489 302.261 222.15C312.22 208.965 320.281 198.288 325.888 190.88C328.632 187.193 330.766 184.32 332.245 182.336C332.942 181.372 333.488 180.632 333.874 180.096C334.239 179.592 334.41 179.324 334.4 179.313C334.389 179.303 334.174 179.549 333.778 180.032C333.37 180.546 332.802 181.275 332.063 182.208C330.551 184.169 328.375 187.01 325.566 190.655C319.96 198.063 311.888 208.729 301.918 221.915C282.065 248.425 254.675 285.013 224.412 325.427C194.193 365.852 166.771 402.418 146.757 428.768C136.755 441.943 128.608 452.577 122.915 459.877C120.075 463.533 117.845 466.352 116.301 468.249C114.768 470.147 113.921 471.112 113.846 471.058C113.771 471.005 114.468 469.933 115.872 467.939C117.277 465.945 119.378 463.04 122.111 459.309C127.579 451.848 135.586 441.117 145.535 427.899C165.431 401.453 193.131 365.091 223.791 324.987V324.977Z" fill="#EBEBEB"/>
<path d="M215.011 317.548C251.706 282.515 284.916 250.816 308.982 227.832C320.935 216.308 330.605 206.993 337.326 200.507C340.628 197.28 343.201 194.761 344.98 193.024C345.827 192.178 346.481 191.524 346.942 191.052C347.382 190.602 347.596 190.366 347.585 190.355C347.574 190.344 347.328 190.548 346.856 190.977C346.374 191.427 345.698 192.06 344.809 192.874C343.008 194.579 340.392 197.055 337.047 200.239C330.326 206.714 320.646 216.03 308.693 227.543C284.841 250.73 251.931 282.729 215.558 318.084C179.238 353.449 146.296 385.416 122.304 408.432C110.309 419.935 100.564 429.207 93.7678 435.564C90.3695 438.738 87.7217 441.192 85.8993 442.833C84.0769 444.473 83.0906 445.298 83.0263 445.234C82.962 445.17 83.8196 444.215 85.5241 442.457C87.2286 440.699 89.7692 438.148 93.071 434.878C99.6745 428.339 109.29 418.938 121.232 407.392C145.117 384.28 178.306 352.549 215.011 317.559V317.548Z" fill="#EBEBEB"/>
<path d="M207.539 308.875C249.39 279.814 287.274 253.517 314.728 234.457C328.375 224.884 339.427 217.134 347.092 211.752C350.876 209.062 353.813 206.96 355.85 205.513C356.826 204.806 357.576 204.259 358.112 203.862C358.616 203.487 358.873 203.283 358.852 203.273C358.841 203.262 358.562 203.423 358.037 203.777C357.49 204.152 356.719 204.666 355.711 205.342C353.653 206.757 350.683 208.804 346.856 211.441C339.181 216.823 328.128 224.563 314.471 234.125C287.199 253.432 249.561 280.06 207.989 309.486C166.449 338.934 128.79 365.531 101.411 384.634C87.7216 394.185 76.6049 401.871 68.8865 407.124C65.0273 409.751 62.015 411.766 59.9461 413.117C57.8878 414.457 56.7729 415.132 56.7193 415.057C56.6657 414.982 57.6627 414.167 59.6352 412.688C61.5969 411.209 64.5235 409.065 68.3077 406.342C75.876 400.874 86.8854 393.049 100.532 383.444C127.825 364.223 165.688 337.895 207.539 308.886V308.875Z" fill="#EBEBEB"/>
<path d="M201.536 299.184C247.557 276.844 289.193 256.626 319.381 241.972C334.4 234.586 346.556 228.615 355.004 224.466C359.174 222.376 362.411 220.757 364.652 219.631C365.724 219.074 366.549 218.656 367.149 218.345C367.707 218.045 367.985 217.884 367.985 217.873C367.985 217.863 367.675 217.98 367.096 218.238C366.495 218.516 365.648 218.913 364.555 219.428C362.304 220.51 359.034 222.086 354.832 224.112C346.385 228.261 334.217 234.221 319.199 241.597C289.151 256.519 247.707 277.101 201.9 299.849C156.137 322.618 114.661 343.179 84.5486 357.876C69.487 365.23 57.2769 371.126 48.8081 375.146C44.5737 377.151 41.272 378.695 39.0208 379.702C36.7696 380.721 35.5582 381.203 35.5153 381.128C35.4725 381.042 36.5981 380.399 38.7742 379.231C40.9504 378.073 44.1771 376.401 48.3579 374.278C56.7088 370.033 68.8438 363.976 83.8625 356.558C113.911 341.721 155.547 321.471 201.557 299.174L201.536 299.184Z" fill="#EBEBEB"/>
<path d="M197.184 288.69C246.238 273.671 290.641 260.067 322.822 250.216C338.848 245.22 351.82 241.179 360.835 238.37C365.284 236.944 368.757 235.84 371.148 235.079C372.295 234.693 373.185 234.404 373.817 234.189C374.417 233.985 374.718 233.868 374.718 233.846C374.718 233.825 374.396 233.9 373.785 234.071C373.142 234.253 372.241 234.521 371.083 234.854C368.682 235.583 365.198 236.633 360.717 237.995C351.702 240.793 338.73 244.823 322.693 249.808C290.608 259.949 246.346 273.939 197.43 289.397C148.558 304.888 104.273 318.845 72.1455 328.761C56.087 333.724 43.0729 337.68 34.0466 340.349C29.5335 341.679 26.0281 342.697 23.6375 343.351C21.247 344.005 19.982 344.305 19.9498 344.219C19.9177 344.133 21.129 343.662 23.466 342.847C25.803 342.032 29.2655 340.875 33.7358 339.417C42.6762 336.501 55.6367 332.374 71.6738 327.346C103.748 317.291 148.14 303.655 197.184 288.679V288.69Z" fill="#EBEBEB"/>
<path d="M194.579 277.659C245.456 270.326 291.498 263.69 324.88 258.877C341.518 256.401 354.982 254.385 364.341 252.992C368.972 252.263 372.574 251.705 375.061 251.32C376.261 251.116 377.183 250.966 377.837 250.848C378.459 250.741 378.78 250.666 378.78 250.644C378.78 250.623 378.448 250.644 377.816 250.73C377.151 250.816 376.218 250.934 375.018 251.094C372.531 251.448 368.918 251.952 364.276 252.606C354.918 253.989 341.453 255.993 324.816 258.459C291.487 263.562 245.509 270.616 194.697 278.398C143.916 286.224 97.9271 293.235 64.5987 298.112C47.9398 300.557 34.4433 302.475 25.1062 303.73C20.4323 304.362 16.8089 304.823 14.3433 305.102C11.8777 305.381 10.5806 305.488 10.5591 305.402C10.5484 305.316 11.8241 305.027 14.2575 304.587C16.7017 304.137 20.3036 303.526 24.9561 302.776C34.2504 301.264 47.7254 299.163 64.3736 296.654C97.6806 291.627 143.723 284.948 194.589 277.659H194.579Z" fill="#EBEBEB"/>
<path d="M193.785 266.371C245.22 266.789 291.766 267.164 325.502 267.443C342.333 267.496 355.958 267.55 365.423 267.582C370.108 267.561 373.753 267.55 376.272 267.539C377.483 267.518 378.427 267.507 379.091 267.496C379.724 267.485 380.056 267.464 380.056 267.443C380.056 267.421 379.735 267.4 379.091 267.378C378.416 267.368 377.483 267.346 376.272 267.314C373.753 267.282 370.108 267.25 365.423 267.196C355.958 267.153 342.333 267.1 325.502 267.035C291.766 267.057 245.22 267.078 193.775 267.11C142.362 267.175 95.8047 267.164 62.101 266.971C45.2491 266.874 31.6133 266.735 22.1904 266.564C17.4736 266.478 13.8181 266.392 11.3418 266.306C8.86546 266.221 7.55762 266.124 7.55762 266.028C7.55762 265.942 8.86546 265.856 11.3418 265.781C13.8288 265.706 17.4843 265.652 22.2011 265.599C31.624 265.502 45.2706 265.47 62.1224 265.502C95.8261 265.556 142.383 265.899 193.785 266.349V266.371Z" fill="#EBEBEB"/>
<path d="M194.793 255.093C245.531 263.272 291.456 270.68 324.741 276.051C341.357 278.645 354.811 280.757 364.148 282.215C368.779 282.901 372.392 283.437 374.879 283.812C376.079 283.973 377.012 284.101 377.676 284.198C378.309 284.273 378.631 284.305 378.631 284.294C378.631 284.273 378.32 284.209 377.687 284.091C377.023 283.973 376.101 283.812 374.911 283.597C372.424 283.19 368.832 282.601 364.212 281.839C354.875 280.371 341.421 278.259 324.805 275.654C291.477 270.583 245.488 263.583 194.665 255.854C143.863 248.168 97.8737 241.125 64.6203 235.84C47.9936 233.203 34.54 231.005 25.2564 229.408C20.6147 228.615 17.0128 227.971 14.5793 227.51C12.1459 227.05 10.8702 226.76 10.8809 226.664C10.8916 226.578 12.1995 226.685 14.6651 226.985C17.1307 227.285 20.754 227.778 25.4172 228.443C34.7436 229.772 48.2187 231.798 64.8668 234.371C98.1525 239.517 144.088 246.882 194.793 255.104V255.093Z" fill="#EBEBEB"/>
<path d="M197.612 244.105C246.399 259.96 290.544 274.303 322.543 284.702C338.527 289.815 351.476 293.942 360.46 296.815C364.919 298.209 368.393 299.292 370.794 300.031C371.952 300.374 372.852 300.642 373.495 300.835C374.106 301.007 374.417 301.093 374.428 301.071C374.428 301.05 374.128 300.932 373.538 300.728C372.906 300.514 372.027 300.214 370.88 299.817C368.489 299.034 365.037 297.898 360.599 296.44C351.616 293.556 338.677 289.419 322.693 284.294C290.598 274.185 246.313 260.239 197.387 244.823C148.472 229.462 104.188 215.472 72.1991 205.159C56.2048 200.003 43.2765 195.779 34.3682 192.788C29.9087 191.298 26.4568 190.108 24.1306 189.272C21.8043 188.436 20.593 187.954 20.6251 187.868C20.6573 187.782 21.9223 188.093 24.3021 188.768C26.6819 189.444 30.1874 190.484 34.6898 191.856C43.6839 194.589 56.6658 198.652 72.6922 203.744C104.734 213.918 148.89 228.229 197.644 244.105H197.612Z" fill="#EBEBEB"/>
<path d="M202.168 233.696C247.782 256.808 289.054 277.723 318.974 292.881C333.939 300.374 346.052 306.431 354.457 310.644C358.638 312.702 361.896 314.3 364.137 315.404C365.23 315.929 366.067 316.326 366.667 316.615C367.246 316.883 367.535 317.012 367.546 316.99C367.546 316.969 367.278 316.808 366.72 316.508C366.131 316.197 365.305 315.768 364.233 315.2C362.004 314.064 358.777 312.413 354.628 310.29C346.224 306.078 334.11 299.999 319.156 292.495C289.097 277.605 247.632 257.055 201.804 234.35C155.987 211.688 114.522 191.106 84.6022 176.033C69.6371 168.497 57.5557 162.344 49.2477 158.034C45.0883 155.88 41.8723 154.175 39.7069 153.007C37.5415 151.827 36.4266 151.174 36.4695 151.088C36.5123 151.002 37.713 151.506 39.9535 152.546C42.1939 153.575 45.485 155.14 49.7087 157.187C58.1453 161.272 70.3125 167.264 85.3098 174.736C115.304 189.68 156.598 210.562 202.168 233.696Z" fill="#EBEBEB"/>
<path d="M208.354 224.102C249.69 253.86 287.092 280.789 314.203 300.299C327.775 309.969 338.763 317.805 346.395 323.24C350.201 325.909 353.149 327.978 355.197 329.415C356.193 330.09 356.955 330.615 357.501 330.991C358.027 331.344 358.295 331.516 358.316 331.495C358.327 331.484 358.08 331.28 357.576 330.894C357.04 330.498 356.301 329.951 355.336 329.233C353.32 327.775 350.394 325.652 346.631 322.929C339.009 317.483 328.021 309.647 314.46 299.967C287.167 280.692 249.508 254.096 207.904 224.702C166.289 195.361 128.651 168.733 101.529 149.287C87.9683 139.574 77.0232 131.663 69.4978 126.131C65.735 123.366 62.8299 121.2 60.8789 119.71C58.9278 118.22 57.9309 117.395 57.9845 117.32C58.0381 117.245 59.1422 117.92 61.2005 119.281C63.248 120.643 66.2496 122.69 70.0874 125.338C77.7629 130.655 88.8152 138.417 102.419 148.086C129.637 167.403 167.071 194.311 208.354 224.08V224.102Z" fill="#EBEBEB"/>
<path d="M215.997 215.568C252.059 251.212 284.702 283.469 308.361 306.839C320.217 318.448 329.822 327.839 336.49 334.367C339.813 337.573 342.408 340.07 344.198 341.796C345.066 342.622 345.742 343.254 346.224 343.705C346.685 344.133 346.931 344.337 346.942 344.326C346.953 344.316 346.738 344.08 346.31 343.619C345.849 343.147 345.195 342.493 344.359 341.636C342.601 339.888 340.049 337.348 336.769 334.089C330.101 327.56 320.507 318.159 308.661 306.538C284.788 283.372 251.845 251.405 215.451 216.083C179.046 180.803 146.124 148.815 122.433 125.51C110.588 113.857 101.047 104.391 94.4969 97.7985C91.2273 94.4967 88.6974 91.9239 87.0144 90.1551C85.3313 88.3863 84.4737 87.4215 84.538 87.3572C84.6024 87.2929 85.5886 88.1291 87.3896 89.7799C89.2012 91.4308 91.8276 93.9071 95.1937 97.1124C101.926 103.523 111.606 112.871 123.495 124.47C147.293 147.668 179.967 179.903 215.987 215.547L215.997 215.568Z" fill="#EBEBEB"/>
<path d="M224.906 208.3C254.825 248.961 281.915 285.752 301.543 312.424C311.405 325.684 319.381 336.415 324.923 343.866C327.7 347.543 329.855 350.394 331.345 352.367C332.074 353.31 332.642 354.039 333.038 354.564C333.424 355.057 333.628 355.304 333.649 355.293C333.671 355.282 333.489 355.014 333.135 354.5C332.749 353.964 332.224 353.213 331.527 352.249C330.069 350.255 327.957 347.36 325.245 343.651C319.713 336.19 311.738 325.459 301.886 312.188C282.011 285.688 254.589 249.133 224.284 208.74C193.968 168.39 166.568 131.802 146.896 105.206C137.055 91.9134 129.144 81.1076 123.741 73.6036C121.04 69.8516 118.96 66.9251 117.577 64.9204C116.194 62.9158 115.508 61.8331 115.583 61.7902C115.658 61.7366 116.494 62.7121 118.017 64.6203C119.539 66.5284 121.747 69.3692 124.556 73.0462C130.184 80.4001 138.245 91.0879 148.14 104.349C167.929 130.859 195.051 167.639 224.927 208.3H224.906Z" fill="#EBEBEB"/>
<path d="M234.886 202.469C257.902 247.182 278.731 287.639 293.824 316.958C301.425 331.548 307.589 343.362 311.866 351.573C314.01 355.625 315.682 358.777 316.84 360.942C317.408 361.982 317.848 362.786 318.159 363.365C318.459 363.912 318.63 364.18 318.641 364.169C318.663 364.169 318.534 363.869 318.255 363.311C317.966 362.722 317.558 361.907 317.033 360.835C315.918 358.638 314.289 355.464 312.209 351.391C307.943 343.179 301.789 331.366 294.199 316.765C278.827 287.575 257.623 247.3 234.189 202.801C210.734 158.334 189.551 118.049 174.403 88.783C166.824 74.1502 160.746 62.2831 156.619 54.0502C154.55 49.9337 152.963 46.7284 151.924 44.5415C150.884 42.3547 150.369 41.1862 150.455 41.1433C150.541 41.1004 151.205 42.1939 152.406 44.3057C153.607 46.4175 155.322 49.5585 157.509 53.6214C161.883 61.7364 168.122 73.5177 175.765 88.1183C191.052 117.309 211.913 157.766 234.875 202.469H234.886Z" fill="#EBEBEB"/>
<path d="M245.67 198.224C261.161 245.895 275.182 289.033 285.334 320.303C290.48 335.879 294.65 348.486 297.544 357.244C299.013 361.575 300.149 364.941 300.943 367.267C301.339 368.382 301.639 369.25 301.854 369.862C302.068 370.44 302.186 370.741 302.208 370.73C302.229 370.73 302.143 370.419 301.972 369.819C301.779 369.197 301.511 368.318 301.168 367.192C300.417 364.855 299.335 361.468 297.93 357.126C295.047 348.368 290.887 335.761 285.752 320.185C275.3 289.011 260.871 245.992 244.931 198.47C228.958 150.981 214.572 107.94 204.345 76.7338C199.231 61.1255 195.147 48.4759 192.403 39.7177C191.03 35.3332 189.98 31.9242 189.305 29.6087C188.629 27.2932 188.318 26.0497 188.404 26.0282C188.49 25.9961 188.983 27.1753 189.819 29.4479C190.655 31.7205 191.856 35.0866 193.357 39.4282C196.369 48.1114 200.625 60.7074 205.803 76.2943C216.169 107.457 230.223 150.595 245.67 198.256V198.224Z" fill="#EBEBEB"/>
<path d="M257.023 195.683C264.602 245.124 271.462 289.869 276.437 322.308C278.999 338.473 281.078 351.562 282.515 360.653C283.265 365.155 283.844 368.65 284.251 371.062C284.455 372.231 284.616 373.12 284.734 373.764C284.852 374.375 284.916 374.685 284.937 374.675C284.959 374.675 284.937 374.353 284.852 373.742C284.766 373.099 284.637 372.198 284.477 371.019C284.112 368.597 283.587 365.091 282.911 360.578C281.475 351.487 279.417 338.398 276.865 322.233C271.591 289.847 264.312 245.166 256.261 195.79C248.179 146.446 240.932 101.754 235.893 69.3584C233.364 53.1605 231.391 40.0499 230.094 30.9808C229.44 26.4463 228.968 22.9194 228.668 20.5181C228.379 18.1168 228.272 16.8519 228.357 16.8411C228.454 16.8304 228.743 18.0632 229.204 20.4323C229.665 22.8015 230.298 26.3069 231.08 30.82C232.645 39.857 234.811 52.9461 237.405 69.1226C242.604 101.486 249.497 146.232 257.033 195.661L257.023 195.683Z" fill="#EBEBEB"/>
<path d="M268.632 194.9C268.236 244.888 267.871 290.126 267.614 322.919C267.56 339.277 267.528 352.516 267.496 361.714C267.518 366.27 267.528 369.819 267.539 372.263C267.56 373.442 267.571 374.353 267.582 375.007C267.603 375.629 267.614 375.94 267.635 375.94C267.657 375.94 267.678 375.618 267.7 375.007C267.71 374.353 267.732 373.442 267.764 372.263C267.796 369.819 267.828 366.27 267.882 361.714C267.914 352.516 267.968 339.277 268.021 322.919C267.978 290.126 267.925 244.888 267.861 194.9C267.764 144.934 267.743 99.6853 267.925 66.9357C268.011 50.5555 268.15 37.3056 268.311 28.14C268.397 23.5626 268.482 20.0035 268.568 17.5915C268.665 15.1795 268.75 13.9146 268.847 13.9146C268.943 13.9146 269.029 15.1795 269.104 17.5915C269.179 20.0035 269.243 23.5626 269.297 28.14C269.404 37.3056 269.447 50.5555 269.426 66.9357C269.394 99.696 269.072 144.934 268.632 194.9Z" fill="#EBEBEB"/>
<path d="M280.242 195.876C271.849 245.199 264.259 289.826 258.759 322.179C256.101 338.334 253.946 351.402 252.445 360.482C251.738 364.984 251.191 368.489 250.805 370.912C250.634 372.081 250.505 372.981 250.409 373.624C250.323 374.235 250.291 374.557 250.312 374.557C250.334 374.557 250.409 374.246 250.526 373.646C250.644 373.003 250.816 372.113 251.03 370.944C251.448 368.532 252.059 365.038 252.831 360.546C254.332 351.466 256.498 338.398 259.178 322.243C264.377 289.848 271.548 245.145 279.471 195.747C287.35 146.371 294.564 101.669 299.978 69.337C302.679 53.1713 304.941 40.0929 306.571 31.0774C307.385 26.5642 308.039 23.0695 308.522 20.7004C309.004 18.3313 309.294 17.0985 309.39 17.1092C309.486 17.1199 309.369 18.3849 309.058 20.7862C308.747 23.1767 308.243 26.7036 307.568 31.2382C306.206 40.3073 304.137 53.4071 301.5 69.5836C296.237 101.937 288.679 146.585 280.253 195.876H280.242Z" fill="#EBEBEB"/>
<path d="M291.552 198.609C275.279 246.035 260.539 288.947 249.862 320.056C244.62 335.6 240.364 348.186 237.416 356.922C235.99 361.264 234.875 364.641 234.114 366.967C233.76 368.093 233.482 368.961 233.289 369.593C233.106 370.183 233.031 370.494 233.042 370.505C233.063 370.505 233.181 370.215 233.396 369.636C233.621 369.025 233.932 368.157 234.328 367.042C235.132 364.726 236.301 361.36 237.802 357.051C240.76 348.314 245.016 335.74 250.269 320.196C260.646 288.99 274.968 245.949 290.801 198.384C306.581 150.83 320.935 107.79 331.527 76.6908C336.822 61.1361 341.164 48.5723 344.23 39.9105C345.763 35.5796 346.985 32.2243 347.843 29.9623C348.7 27.7004 349.193 26.5212 349.279 26.5534C349.365 26.5855 349.054 27.8183 348.357 30.1339C347.66 32.4494 346.599 35.8583 345.195 40.2214C342.386 48.9689 338.216 61.5863 332.985 77.1625C322.543 108.304 307.846 151.238 291.53 198.62L291.552 198.609Z" fill="#EBEBEB"/>
<path d="M302.261 203.037C278.516 247.385 257.023 287.51 241.447 316.594C233.75 331.141 227.521 342.922 223.19 351.091C221.079 355.154 219.438 358.327 218.302 360.503C217.766 361.564 217.359 362.379 217.059 362.968C216.78 363.526 216.651 363.815 216.673 363.826C216.694 363.826 216.855 363.558 217.166 363.022C217.487 362.443 217.927 361.65 218.506 360.61C219.674 358.445 221.368 355.304 223.544 351.273C227.875 343.104 234.114 331.323 241.833 316.787C257.141 287.564 278.259 247.246 301.586 202.694C324.87 158.152 346.02 117.845 361.521 88.7508C369.261 74.2038 375.586 62.4546 380.024 54.3717C382.243 50.3303 383.98 47.2001 385.191 45.0989C386.402 42.9871 387.078 41.9044 387.164 41.9473C387.249 41.9902 386.735 43.1586 385.673 45.3348C384.612 47.5217 383.004 50.7162 380.914 54.8113C376.722 63.0121 370.558 74.847 362.872 89.4154C347.51 118.574 326.049 158.72 302.272 203.026L302.261 203.037Z" fill="#EBEBEB"/>
<path d="M312.134 209.04C281.539 249.229 253.86 285.602 233.792 311.963C223.844 325.159 215.804 335.847 210.208 343.265C207.464 346.964 205.331 349.837 203.862 351.82C203.165 352.785 202.619 353.535 202.233 354.06C201.868 354.575 201.697 354.832 201.708 354.843C201.718 354.854 201.933 354.607 202.319 354.125C202.726 353.61 203.294 352.881 204.034 351.948C205.535 349.987 207.721 347.146 210.519 343.49C216.115 336.072 224.177 325.395 234.125 312.209C253.946 285.667 281.282 249.058 311.491 208.601C341.657 168.143 369.036 131.545 389.018 105.163C399.009 91.967 407.146 81.3327 412.816 74.0217C415.657 70.3662 417.887 67.5361 419.42 65.6494C420.953 63.7519 421.8 62.7871 421.875 62.8407C421.95 62.8943 421.253 63.9663 419.86 65.9603C418.466 67.9542 416.365 70.87 413.631 74.6006C408.164 82.0724 400.178 92.8139 390.251 106.042C370.387 132.51 342.74 168.904 312.124 209.051L312.134 209.04Z" fill="#EBEBEB"/>
<path d="M320.925 216.458C284.273 251.534 251.105 283.276 227.071 306.281C215.14 317.816 205.47 327.153 198.77 333.639C195.468 336.876 192.906 339.395 191.127 341.132C190.28 341.979 189.626 342.633 189.165 343.104C188.726 343.555 188.511 343.79 188.522 343.801C188.533 343.812 188.779 343.608 189.24 343.179C189.723 342.729 190.398 342.097 191.277 341.282C193.078 339.567 195.683 337.09 199.038 333.907C205.749 327.432 215.418 318.095 227.36 306.571C251.18 283.351 284.048 251.32 320.378 215.922C356.654 180.514 389.554 148.504 413.513 125.467C425.487 113.943 435.232 104.67 442.007 98.3025C445.395 95.1186 448.042 92.6638 449.865 91.0236C451.687 89.3834 452.673 88.5473 452.738 88.6116C452.802 88.6759 451.944 89.63 450.24 91.3881C448.535 93.1462 445.995 95.7082 442.704 98.9778C436.111 105.528 426.506 114.929 414.575 126.507C390.723 149.651 357.576 181.425 320.914 216.458H320.925Z" fill="#EBEBEB"/>
<path d="M328.407 225.12C286.588 254.225 248.747 280.575 221.314 299.667C207.678 309.261 196.637 317.023 188.972 322.415C185.199 325.116 182.261 327.217 180.225 328.665C179.249 329.372 178.509 329.919 177.973 330.315C177.47 330.691 177.212 330.894 177.234 330.905C177.244 330.916 177.523 330.755 178.048 330.401C178.595 330.026 179.367 329.511 180.364 328.836C182.411 327.421 185.392 325.363 189.208 322.726C196.873 317.344 207.925 309.583 221.561 299.999C248.811 280.66 286.406 253.989 327.946 224.509C369.443 195.018 407.07 168.368 434.428 149.233C448.107 139.66 459.213 131.963 466.931 126.71C470.79 124.084 473.802 122.058 475.861 120.707C477.919 119.357 479.034 118.692 479.087 118.767C479.141 118.842 478.144 119.657 476.182 121.136C474.221 122.615 471.305 124.759 467.521 127.493C459.963 132.971 448.964 140.807 435.328 150.434C408.067 169.687 370.237 196.069 328.418 225.131L328.407 225.12Z" fill="#EBEBEB"/>
<path d="M334.421 234.811C288.432 257.205 246.817 277.477 216.651 292.163C201.643 299.56 189.487 305.552 181.05 309.712C176.891 311.802 173.643 313.431 171.413 314.557C170.341 315.114 169.515 315.543 168.915 315.843C168.358 316.144 168.079 316.304 168.09 316.315C168.09 316.337 168.401 316.208 168.979 315.94C169.58 315.661 170.427 315.265 171.52 314.75C173.771 313.657 177.041 312.081 181.243 310.055C189.68 305.895 201.836 299.913 216.855 292.527C246.882 277.573 288.304 256.937 334.078 234.125C379.81 211.302 421.253 190.687 451.355 175.947C466.406 168.572 478.605 162.655 487.074 158.635C491.308 156.619 494.61 155.086 496.861 154.068C499.113 153.049 500.313 152.556 500.356 152.642C500.399 152.728 499.273 153.371 497.108 154.54C494.932 155.708 491.705 157.38 487.535 159.514C479.184 163.769 467.06 169.848 452.052 177.277C422.025 192.156 380.421 212.46 334.432 234.8L334.421 234.811Z" fill="#EBEBEB"/>
<path d="M338.784 245.295C289.74 260.378 245.37 274.035 213.199 283.93C197.184 288.947 184.212 292.999 175.208 295.819C170.759 297.244 167.296 298.359 164.906 299.131C163.759 299.517 162.869 299.806 162.236 300.021C161.636 300.224 161.336 300.342 161.336 300.364C161.336 300.385 161.658 300.299 162.269 300.139C162.912 299.956 163.812 299.688 164.97 299.345C167.371 298.616 170.855 297.555 175.326 296.194C184.33 293.385 197.302 289.333 213.328 284.327C245.402 274.143 289.644 260.099 338.538 244.577C387.399 229.022 431.662 215.011 463.769 205.052C479.827 200.067 492.831 196.101 501.846 193.421C506.348 192.081 509.865 191.063 512.244 190.409C514.635 189.744 515.9 189.444 515.932 189.53C515.964 189.615 514.753 190.087 512.416 190.913C510.079 191.727 506.616 192.896 502.157 194.354C493.227 197.28 480.267 201.429 464.24 206.467C432.177 216.566 387.807 230.255 338.773 245.295H338.784Z" fill="#EBEBEB"/>
<path d="M341.41 256.315C290.544 263.712 244.502 270.412 211.141 275.258C194.503 277.755 181.039 279.781 171.691 281.186C167.06 281.915 163.469 282.483 160.982 282.879C159.781 283.083 158.859 283.244 158.206 283.351C157.584 283.469 157.262 283.533 157.262 283.555C157.262 283.576 157.595 283.555 158.216 283.469C158.881 283.383 159.814 283.265 161.014 283.105C163.501 282.751 167.114 282.236 171.756 281.582C181.103 280.178 194.579 278.173 211.205 275.676C244.523 270.53 290.501 263.423 341.292 255.576C392.062 247.686 438.04 240.621 471.369 235.701C488.028 233.235 501.524 231.306 510.861 230.041C515.525 229.408 519.159 228.936 521.624 228.658C524.09 228.368 525.387 228.272 525.408 228.358C525.419 228.443 524.154 228.733 521.71 229.183C519.266 229.633 515.664 230.255 511.022 231.016C501.728 232.538 488.264 234.65 471.615 237.18C438.319 242.251 392.277 248.983 341.432 256.337L341.41 256.315Z" fill="#EBEBEB"/>
<path d="M490.708 518.58C490.708 518.73 390.23 518.859 266.296 518.859C142.362 518.859 41.8618 518.73 41.8618 518.58C41.8618 518.43 142.319 518.301 266.296 518.301C390.273 518.301 490.708 518.43 490.708 518.58Z" fill="#263238"/>
<path d="M371.651 458.934C371.651 458.934 366.838 469.815 368.5 479.57C370.161 489.325 368.285 500.86 372.552 502.886C376.818 504.923 378.662 502.564 378.909 497.987C379.155 493.409 379.691 486.398 379.831 480.996C379.97 475.593 380.27 474.135 380.27 474.135L382.093 459.491L371.651 458.923V458.934Z" fill="#FFBF9D"/>
<path d="M390.122 452.566C390.122 452.566 396.811 479.248 396.79 482.55C396.768 485.852 394.646 490.493 394.646 490.493C394.646 490.493 392.62 502.178 391.515 503.593C390.422 505.008 379.53 506.874 379.53 506.874L372.552 502.897L375.382 496.829L381.406 497.815L382.789 492.809L378.877 487.031L375.532 459.159L390.111 452.577L390.122 452.566Z" fill="#FFBF9D"/>
<path d="M383.143 473.148C383.143 473.148 383.047 473.652 382.768 474.521C382.511 475.4 382.125 476.654 381.707 478.24C380.882 481.392 379.96 485.809 379.563 490.772C379.456 492.005 379.402 493.216 379.359 494.395C379.327 495.564 379.306 496.711 379.145 497.804C378.877 499.991 377.805 501.932 376.304 502.8C374.793 503.7 373.227 503.347 372.456 502.854C372.048 502.607 371.802 502.328 371.662 502.125C371.523 501.921 371.48 501.792 371.491 501.792C371.544 501.749 371.77 502.253 372.552 502.671C373.302 503.068 374.75 503.325 376.09 502.468C377.43 501.631 378.395 499.831 378.63 497.74C378.77 496.69 378.78 495.564 378.802 494.385C378.834 493.206 378.888 491.983 378.995 490.729C379.391 485.734 380.378 481.285 381.31 478.144C381.771 476.568 382.222 475.325 382.543 474.467C382.875 473.609 383.079 473.148 383.122 473.159L383.143 473.148Z" fill="#FF9A6C"/>
<path d="M371.652 458.934L366.828 442.457C366.828 442.457 384.483 429.979 385.448 430.805C386.413 431.63 390.84 455.439 390.84 455.439L381.793 465.162L371.652 458.945V458.934Z" fill="#FFBF9D"/>
<path d="M336.254 214.314C330.262 205.309 298.831 196.508 298.831 196.508L307.278 203.551L325.523 301.886L365.831 446.831L397.229 440.956C397.229 440.956 356.601 244.92 336.243 214.304L336.254 214.314Z" fill="#16DB65"/>
<path d="M354.317 407.446L280.103 443.905C280.103 443.905 274.196 488.092 279.277 518.58H346.385C363.376 460.017 354.317 407.446 354.317 407.446Z" fill="#263238"/>
<path d="M290.941 449.19L212.91 385.824C212.91 385.824 181.554 433.538 191.416 480.996C192.896 488.114 197.591 508.31 200.668 518.58H292.817C290.48 485.027 290.941 449.19 290.941 449.19Z" fill="#263238"/>
<path d="M354.682 408.486C354.972 408.378 291.648 454.775 291.648 454.775L206.746 397.133L222.408 367.149C222.408 367.149 265.856 385.674 288.39 381.032C310.912 376.39 335.6 356.279 335.6 356.279C341.143 368.339 351.209 395.129 354.671 408.496L354.682 408.486Z" fill="#263238"/>
<path d="M312.735 420.192C312.456 420.578 312.081 421.103 311.588 421.789C310.569 423.236 309.09 425.327 307.182 428.028C303.333 433.538 297.748 441.546 290.694 451.676L290.63 451.762V451.869C291.445 460.724 291.745 471.005 292.292 482.454C292.838 493.903 292.442 505.073 293.085 518.612L293.975 518.569C293.278 505.041 293.642 493.87 293.053 482.421C292.452 471.026 292.099 460.767 291.23 451.934C298.166 441.782 303.655 433.753 307.428 428.221C309.283 425.477 310.708 423.365 311.705 421.886C312.166 421.189 312.52 420.642 312.788 420.245C313.024 419.87 313.142 419.688 313.131 419.677C313.12 419.677 312.981 419.849 312.724 420.203L312.735 420.192Z" fill="#455A64"/>
<path d="M309.015 87.3252C317.484 94.0038 322.318 105.035 321.493 115.787C321.085 121.007 319.649 126.968 323.047 130.956C326.413 134.901 333.017 134.793 336.244 138.856C340.038 143.637 336.865 150.755 338.216 156.705C339.492 162.29 345.388 166.407 351.069 165.688C344.401 171.134 336.211 174.682 327.678 175.84C325.502 173.042 323.315 170.244 321.139 167.436C323.615 170.373 322.961 175.068 320.56 178.07C318.159 181.072 314.45 182.712 310.784 183.88C293.267 189.433 273.188 186.174 258.331 175.358" fill="#263238"/>
<path d="M210.798 133.485C212.106 129.476 214.304 125.767 215.183 121.651C217.08 112.796 212.76 102.826 217.059 94.8613C220.114 89.1905 226.632 86.414 232.796 84.5165C238.96 82.6191 245.563 81.0111 250.162 76.4873C253.528 73.1748 255.447 68.6081 258.802 65.2741C263.583 60.5359 270.648 58.9279 277.38 58.5098C284.284 58.081 291.423 58.7457 297.63 61.8009C303.837 64.8453 308.993 70.5698 310.108 77.3985C310.644 80.7324 310.237 84.2164 311.287 87.4217C312.445 90.9485 315.211 93.6929 316.915 96.9839C320.517 103.941 318.566 113.31 312.477 118.252L265.074 179.485C255.115 183.248 230.984 178.702 223.287 171.338C215.59 163.984 207.496 143.616 210.798 133.496V133.485Z" fill="#263238"/>
<path d="M311.223 110.459C309.272 96.5552 298.702 80.1321 284.895 82.6728L242.272 96.9947C238.08 97.7665 241.082 104.606 241.489 108.851L250.751 204.967C250.687 204.988 244.995 209.072 242.937 208.29C242.401 208.086 241.929 208.686 242.25 209.158C247.364 216.587 271.527 249.079 296.429 239.163C301.993 236.944 295.85 219.417 296.494 212.921L295.754 196.337C295.207 187.868 294.939 184.395 294.95 184.481C294.95 184.481 312.574 180.15 314.482 156.576C315.436 144.86 313.388 125.917 311.223 110.47V110.459Z" fill="#FFBF9D"/>
<path d="M304.073 131.395C304.244 132.971 303.065 134.418 301.425 134.633C299.785 134.847 298.316 133.753 298.145 132.178C297.973 130.602 299.152 129.155 300.792 128.94C302.433 128.726 303.901 129.83 304.083 131.395H304.073Z" fill="#263238"/>
<path d="M274.85 132.928C275.032 134.504 273.842 135.951 272.202 136.165C270.562 136.38 269.093 135.286 268.922 133.711C268.75 132.135 269.93 130.688 271.57 130.473C273.21 130.259 274.678 131.363 274.861 132.928H274.85Z" fill="#263238"/>
<path d="M309.325 122.004C309.004 122.551 306.227 120.793 302.743 121.297C299.259 121.747 297.03 124.191 296.579 123.752C296.354 123.559 296.633 122.615 297.598 121.522C298.541 120.429 300.267 119.249 302.443 118.949C304.609 118.66 306.581 119.324 307.782 120.118C309.004 120.922 309.508 121.758 309.336 122.004H309.325Z" fill="#263238"/>
<path d="M278.087 124.588C277.68 125.092 274.947 123.109 271.205 123.269C267.464 123.377 264.816 125.542 264.387 125.07C264.184 124.856 264.57 123.966 265.727 122.991C266.864 122.015 268.825 121.029 271.162 120.943C273.499 120.868 275.493 121.704 276.672 122.605C277.862 123.505 278.302 124.374 278.098 124.599L278.087 124.588Z" fill="#263238"/>
<path d="M289.815 146.618C289.783 146.435 291.756 145.942 294.961 145.278C295.776 145.127 296.537 144.902 296.633 144.334C296.783 143.723 296.365 142.866 295.904 141.944C294.982 140.014 294.018 137.999 292.999 135.887C288.947 127.246 285.945 120.118 286.288 119.968C286.642 119.807 290.212 126.678 294.264 135.319C295.24 137.452 296.183 139.478 297.073 141.429C297.459 142.34 298.07 143.359 297.748 144.613C297.577 145.245 297.008 145.738 296.494 145.921C295.979 146.124 295.518 146.167 295.111 146.221C291.863 146.65 289.847 146.821 289.826 146.639L289.815 146.618Z" fill="#263238"/>
<path d="M294.961 184.47C294.961 184.47 279.374 186.689 263.133 178.552C263.133 178.552 272.224 194.289 295.368 190.323L294.961 184.47Z" fill="#FF9A6C"/>
<path d="M280.017 155.997C280.457 155.247 280.918 154.475 281.668 154.036C282.494 153.553 283.512 153.585 284.445 153.757C285.806 154.014 287.146 154.582 288.089 155.612C289.022 156.63 289.483 158.152 289.011 159.46C288.647 160.8 286.642 161.54 285.281 161.776C283.909 162.011 282.494 161.615 281.271 160.929C280.253 160.361 279.278 159.439 279.224 158.281C279.192 157.466 279.61 156.705 280.028 155.997H280.017Z" fill="#FF9A6C"/>
<path d="M280.671 151.474C281.196 151.399 281.464 154.893 284.637 157.134C287.81 159.385 291.498 158.71 291.562 159.192C291.627 159.406 290.79 159.932 289.225 160.092C287.692 160.264 285.409 159.942 283.458 158.57C281.518 157.187 280.585 155.226 280.349 153.8C280.103 152.353 280.424 151.463 280.671 151.463V151.474Z" fill="#263238"/>
<path d="M277.809 112.013C277.562 112.914 274.314 112.742 270.584 113.493C266.832 114.157 263.873 115.497 263.315 114.758C263.069 114.404 263.53 113.536 264.698 112.592C265.856 111.66 267.732 110.705 269.983 110.277C272.224 109.859 274.325 110.052 275.74 110.512C277.166 110.963 277.916 111.595 277.809 112.024V112.013Z" fill="#263238"/>
<path d="M307.343 110.255C306.753 111.038 304.169 110.47 301.125 110.673C298.07 110.781 295.54 111.595 294.897 110.877C294.607 110.523 294.961 109.762 296.033 108.99C297.094 108.219 298.906 107.511 300.996 107.404C303.087 107.297 304.952 107.822 306.067 108.487C307.203 109.151 307.611 109.88 307.353 110.255H307.343Z" fill="#263238"/>
<path d="M232.849 100.35C235.004 97.0376 238.863 95.3331 242.54 93.9181C258.416 87.7862 275.022 83.5625 291.906 81.3435C294.007 84.8061 292.066 89.5229 288.893 92.0421C285.72 94.5613 281.646 95.5582 277.852 96.984C274.057 98.399 270.165 100.586 268.6 104.327C266.939 108.304 268.343 113.01 266.885 117.063C264.377 124.041 254.643 126.292 252.166 133.271C250.301 138.556 253.356 144.184 254.128 149.737C254.997 156.03 252.66 162.687 248.061 167.061C244.427 170.512 239.453 172.453 234.457 172.549C233.299 152.535 232.152 132.521 230.994 112.507C230.759 108.336 230.598 103.845 232.87 100.35H232.849Z" fill="#263238"/>
<path d="M192.52 150.916C195.683 148.086 199.649 145.631 200.903 141.579C202.737 135.672 197.998 128.737 201.054 123.355C203.841 118.456 212.042 118.703 214.636 113.686C216.662 109.773 214.336 106.31 215.107 102.869C215.879 99.4281 220.757 96.4158 224.252 96.8338L251.588 136.455C254.128 149.748 256.68 156.823 253.828 164.595C252.263 168.862 250.226 173.021 249.604 177.513C248.993 182.015 250.14 187.118 253.817 189.776C237.48 191.063 222.161 182.508 208 174.232C203.005 171.316 198.009 168.401 193.024 165.485C191.47 164.574 189.84 163.598 188.908 162.054C186.71 158.42 189.369 153.746 192.52 150.916Z" fill="#263238"/>
<path d="M207.593 170.234C207.593 170.234 208.172 170.448 209.34 170.566C210.498 170.684 212.256 170.738 214.432 170.202C216.587 169.676 219.203 168.572 221.529 166.374C223.866 164.209 225.742 160.832 226.203 156.823C226.428 154.818 226.288 152.674 225.667 150.552C225.034 148.418 223.855 146.446 222.633 144.474C221.422 142.501 220.114 140.486 219.503 138.17C218.902 135.898 218.902 133.196 220.382 131.245C221.872 129.251 224.627 128.769 227.189 127.729C228.475 127.214 229.815 126.41 230.673 125.145C231.531 123.88 231.831 122.326 231.799 120.857C231.766 117.866 230.491 115.133 229.944 112.346C229.665 110.952 229.558 109.505 229.923 108.176C230.266 106.836 231.112 105.667 232.281 104.863C234.639 103.18 237.652 102.912 240.546 102.655C243.462 102.44 246.506 101.786 248.972 100.178C251.459 98.6455 253.453 96.4372 254.739 93.9287C256.004 91.3881 256.465 88.6652 256.862 86.0924C257.259 83.5089 257.612 81.0111 258.459 78.7492C259.317 76.498 260.689 74.547 262.308 72.9604C265.599 69.8194 269.769 68.1578 273.617 67.8362C277.487 67.5039 281.003 68.533 283.737 69.9481C286.492 71.3631 288.561 73.1319 290.03 74.7399C292.978 78.0095 293.803 80.3894 293.921 80.3143C293.932 80.3143 293.878 80.1642 293.76 79.8855C293.632 79.6175 293.481 79.1994 293.192 78.6849C292.667 77.645 291.756 76.1657 290.298 74.4826C288.84 72.8103 286.781 70.9558 283.973 69.4657C281.196 67.9756 277.584 66.8607 273.553 67.1609C269.554 67.4503 265.224 69.1334 261.75 72.3815C260.056 74.0324 258.588 76.0799 257.666 78.449C256.755 80.8182 256.39 83.391 255.983 85.953C255.576 88.5151 255.104 91.1415 253.914 93.5106C252.703 95.8583 250.816 97.938 248.468 99.3745C246.131 100.886 243.355 101.486 240.45 101.701C237.587 101.958 234.361 102.205 231.724 104.081C230.416 104.981 229.397 106.375 229.001 107.929C228.593 109.483 228.722 111.07 229.011 112.528C229.612 115.476 230.844 118.124 230.866 120.879C230.898 122.23 230.63 123.57 229.912 124.631C229.194 125.692 228.068 126.4 226.835 126.893C225.613 127.407 224.305 127.761 223.04 128.297C221.786 128.812 220.521 129.573 219.685 130.709C217.97 133.025 218.056 135.973 218.699 138.385C219.374 140.872 220.757 142.93 221.968 144.892C223.201 146.843 224.359 148.751 224.97 150.766C225.581 152.782 225.731 154.829 225.538 156.748C225.141 160.607 223.383 163.866 221.164 165.989C218.945 168.143 216.426 169.269 214.336 169.837C210.069 170.92 207.582 170.051 207.593 170.223V170.234Z" fill="#455A64"/>
<path d="M185.799 142.061C185.799 142.061 185.467 142.458 185.263 143.401C185.049 144.323 185.07 145.835 185.96 147.454C186.421 148.236 187.085 149.062 188.05 149.651C189.004 150.241 190.226 150.605 191.545 150.584C194.15 150.616 197.216 149.04 198.706 146.039C199.456 144.57 199.874 142.855 199.874 141.054C199.874 139.253 199.403 137.42 198.727 135.651C197.43 132.113 195.072 128.672 195.029 124.534C194.986 122.53 195.458 120.353 196.926 118.917C198.384 117.438 200.636 117.084 202.865 117.062C205.106 116.987 207.55 117.277 209.94 116.333C211.12 115.851 212.181 114.983 212.846 113.879C213.532 112.785 213.885 111.531 214.036 110.277C214.336 107.725 213.746 105.313 213.446 103.008C213.092 100.704 213.232 98.431 213.821 96.2763C215.022 91.9776 217.905 88.365 221.432 86.296C224.97 84.1627 229.076 83.9269 232.763 83.7125C236.483 83.5195 240.074 83.2837 243.108 82.083C246.142 80.9467 248.586 79.2422 250.43 77.4734C252.295 75.7153 253.56 73.8822 254.439 72.3278C256.176 69.1654 256.38 67.1394 256.38 67.1394C256.262 67.0965 255.919 69.0904 254.118 72.1456C253.206 73.6464 251.92 75.4152 250.065 77.0875C248.232 78.7706 245.831 80.4 242.872 81.4506C239.935 82.5654 236.451 82.7584 232.72 82.9299C229.033 83.1229 224.777 83.3051 220.982 85.5456C217.241 87.7218 214.207 91.4952 212.921 96.0298C212.277 98.2917 212.127 100.768 212.503 103.137C212.813 105.496 213.371 107.854 213.092 110.169C212.856 112.474 211.666 114.672 209.565 115.465C207.507 116.301 205.127 116.076 202.833 116.14C200.56 116.162 197.988 116.537 196.272 118.284C194.557 120 194.086 122.433 194.139 124.566C194.182 126.743 194.825 128.822 195.64 130.655C196.433 132.51 197.312 134.225 197.988 135.951C198.663 137.666 199.113 139.392 199.135 141.075C199.156 142.758 198.792 144.377 198.106 145.749C196.755 148.558 193.968 150.037 191.534 150.069C190.312 150.112 189.187 149.801 188.286 149.287C187.386 148.761 186.742 148.022 186.281 147.293C185.392 145.792 185.306 144.356 185.445 143.466C185.585 142.555 185.842 142.115 185.799 142.094V142.061Z" fill="#263238"/>
<path d="M358.037 151.828C357.887 151.828 358.927 153.393 357.983 156.105C357.512 157.38 356.45 158.924 354.585 159.546C352.774 160.168 350.254 159.685 348.582 157.906C347.746 157.037 347.263 155.815 347.178 154.486C347.092 153.157 347.349 151.752 347.799 150.348C348.668 147.582 350.437 144.57 350.169 140.968C349.976 137.473 348.196 133.893 345.195 131.524C343.715 130.334 341.968 129.423 340.103 128.844C338.227 128.244 336.222 128.104 334.282 128.008C332.33 127.911 330.412 127.858 328.632 127.418C326.863 126.989 325.255 126.089 324.237 124.684C323.218 123.291 322.768 121.554 322.65 119.85C322.532 118.135 322.736 116.452 323.068 114.811C323.733 111.542 324.719 108.369 324.537 105.249C324.376 102.14 323.197 99.3853 321.621 97.3056C320.035 95.183 317.998 93.8859 316.293 92.8032C314.567 91.7205 313.099 90.7878 312.038 89.8659C309.851 88.0221 309.475 86.3498 309.358 86.4248C309.347 86.4248 309.358 86.532 309.433 86.7142C309.508 86.8965 309.572 87.1859 309.765 87.5182C310.086 88.2043 310.73 89.1691 311.802 90.1446C312.863 91.1416 314.332 92.1386 316.015 93.2534C317.698 94.379 319.627 95.6654 321.096 97.713C322.565 99.7176 323.647 102.365 323.765 105.292C323.905 108.229 322.94 111.317 322.232 114.64C321.878 116.301 321.643 118.092 321.761 119.914C321.878 121.726 322.35 123.645 323.508 125.242C324.666 126.85 326.52 127.89 328.428 128.34C330.347 128.812 332.32 128.855 334.26 128.962C336.2 129.058 338.087 129.187 339.845 129.755C341.603 130.302 343.243 131.149 344.637 132.264C347.446 134.461 349.107 137.784 349.311 141.032C349.6 144.334 347.96 147.218 347.071 150.123C346.62 151.592 346.352 153.092 346.47 154.55C346.577 156.008 347.156 157.413 348.121 158.377C350.029 160.328 352.784 160.789 354.778 160.06C356.826 159.31 357.908 157.595 358.348 156.233C358.809 154.829 358.68 153.639 358.509 152.91C358.305 152.171 358.059 151.838 358.059 151.838L358.037 151.828Z" fill="#263238"/>
<path d="M313.088 201.6C313.088 201.6 335.214 239.506 343.147 257.28C347.564 267.175 348.657 285.87 341.346 314.514C335.868 335.997 347.435 365.091 349.193 369.261C353.16 378.684 327.807 391.902 324.269 394.239C292.913 414.907 222.622 376.947 222.622 376.947L241.95 333.778L225.677 297.308L219.653 202.361L249.69 191.909C265.631 199.756 289.193 199.949 295.701 195.393L313.088 201.6Z" fill="#16DB65"/>
<path d="M310.323 400.403C310.323 400.403 310.484 400.349 310.805 400.274C311.148 400.188 311.62 400.081 312.231 399.942C312.863 399.792 313.635 399.62 314.536 399.406C315.436 399.116 316.455 398.784 317.612 398.419C318.781 398.076 319.992 397.476 321.375 396.929C322.736 396.361 324.152 395.579 325.695 394.807C328.697 393.102 331.999 390.948 335.354 388.182C338.709 385.416 342.108 382.061 345.313 378.084C345.731 377.601 346.095 377.076 346.492 376.551C346.889 376.036 347.264 375.5 347.628 374.953C348.014 374.417 348.357 373.86 348.7 373.281C348.883 373.002 349.033 372.702 349.172 372.413L349.397 371.973L349.515 371.534C349.665 370.247 349.461 368.854 349.247 367.481C349.022 366.109 348.743 364.716 348.422 363.311C347.157 357.705 345.516 351.884 343.844 345.838C343.008 342.815 342.14 339.749 341.314 336.619C340.907 335.054 340.5 333.467 340.146 331.859C339.964 331.055 339.803 330.24 339.696 329.404C339.61 328.557 339.599 327.732 339.599 326.885C339.717 320.238 340.414 313.806 341.089 307.589V307.567V307.546C343.78 296.922 346.138 286.835 346.546 277.573C346.61 275.268 346.599 273.017 346.288 270.862C345.977 268.729 345.356 266.692 344.798 264.741C343.63 260.839 342.225 257.323 340.832 254.193C338.045 247.911 335.236 243.162 333.253 239.946C332.256 238.338 331.452 237.116 330.894 236.301C330.626 235.904 330.423 235.593 330.262 235.368C330.123 235.154 330.048 235.047 330.058 235.047C330.058 235.047 330.155 235.143 330.305 235.336C330.466 235.54 330.691 235.84 330.969 236.237C331.548 237.041 332.384 238.241 333.403 239.838C335.44 243.022 338.291 247.761 341.143 254.042C342.558 257.183 343.994 260.7 345.184 264.612C345.752 266.574 346.385 268.611 346.717 270.798C347.039 272.985 347.06 275.257 347.007 277.584C346.631 286.91 344.284 297.03 341.604 307.675V307.642C340.939 313.839 340.242 320.281 340.135 326.874C340.135 327.7 340.135 328.525 340.221 329.329C340.317 330.133 340.478 330.937 340.66 331.73C341.014 333.328 341.421 334.903 341.829 336.469C342.654 339.599 343.512 342.665 344.348 345.688C346.02 351.734 347.65 357.555 348.904 363.193C349.215 364.598 349.494 366.002 349.719 367.396C349.922 368.789 350.137 370.172 349.976 371.609C349.922 371.791 349.88 371.984 349.826 372.155L349.59 372.627C349.44 372.938 349.279 373.249 349.097 373.528C348.754 374.117 348.389 374.685 348.004 375.221C347.639 375.779 347.253 376.315 346.846 376.829C346.449 377.344 346.074 377.88 345.656 378.362C342.408 382.35 338.967 385.716 335.579 388.471C332.192 391.237 328.858 393.381 325.824 395.075C324.259 395.836 322.844 396.608 321.461 397.165C320.067 397.69 318.845 398.28 317.666 398.612C316.497 398.966 315.468 399.277 314.557 399.556C313.646 399.77 312.863 399.91 312.231 400.038C311.62 400.156 311.148 400.253 310.794 400.317C310.473 400.381 310.301 400.392 310.301 400.392L310.323 400.403Z" fill="#263238"/>
<g opacity="0.3">
<path d="M348.336 359.495C344.412 343.908 343.405 327.593 345.388 311.641C347.007 298.681 349.622 285.517 346.835 272.749C346.932 284.52 344.487 293.664 341.357 307.621C338.409 320.764 340.264 327.153 340.467 332.084" fill="black"/>
</g>
<path opacity="0.3" d="M222.622 376.947C222.622 376.947 228.4 379.585 233.696 371.491C238.992 363.397 245.424 336.244 246.324 333.338C246.892 331.495 248.886 274.646 248.886 274.646L239.635 328.6L241.95 333.778C239.227 341.153 236.987 344.509 234.285 351.627C230.34 361.972 225.999 375.082 222.622 376.947Z" fill="black"/>
<path d="M246.999 274.282C246.999 274.282 237.491 367.428 222.622 376.947C218.902 379.327 214.389 380.078 209.715 379.874C193.078 379.134 180.149 365.048 180.107 348.389C180.053 328.632 183.387 301.789 184.663 290.748C187.214 268.633 196.187 208.547 219.653 202.361C243.119 196.165 246.999 229.848 246.999 229.848V274.293V274.282Z" fill="#16DB65"/>
<path d="M187.182 196.551C187.182 196.551 182.883 202.254 182.904 208.354C182.904 210.091 186.12 222.74 186.12 222.74L199.402 232.946L224.209 240.954L222.225 254.815L243.569 258.438C243.569 258.438 243.987 242.015 243.569 231.67C243.151 221.315 230.683 210.916 230.683 210.916C230.683 210.916 220.328 198.449 215.901 199.092C211.462 199.724 211.677 204.581 213.789 207.325C215.901 210.069 221.818 216.619 221.818 216.619L197.312 214.507L189.915 208.172C189.915 208.172 192.359 201.761 191.609 199.51C190.408 195.93 187.171 196.551 187.171 196.551H187.182Z" fill="#FFBF9D"/>
<path d="M189.712 214.014C189.754 213.95 190.633 214.486 192.027 215.408C193.421 216.33 195.318 217.627 197.387 219.096C197.526 219.192 197.677 219.299 197.805 219.385H197.484C199.595 217.959 202.007 217.82 203.562 218.141C204.355 218.292 204.955 218.517 205.352 218.72C205.749 218.924 205.942 219.063 205.931 219.096C205.888 219.192 205.03 218.71 203.508 218.517C202.007 218.313 199.767 218.517 197.805 219.846L197.644 219.953L197.484 219.846C197.355 219.749 197.205 219.653 197.065 219.556C194.986 218.088 193.131 216.737 191.791 215.729C190.462 214.722 189.658 214.079 189.701 214.014H189.712Z" fill="#FF9A6C"/>
<path d="M188.758 224.23C188.897 224.305 182.765 235.658 175.068 249.572C167.371 263.498 161.025 274.722 160.886 274.647C160.746 274.571 166.878 263.23 174.575 249.304C182.272 235.379 188.618 224.155 188.747 224.23H188.758Z" fill="#263238"/>
<path d="M200.603 214.615C200.754 214.615 200.293 225.292 199.574 238.434C198.856 251.577 198.138 262.233 197.988 262.222C197.838 262.222 198.299 251.556 199.017 238.402C199.735 225.259 200.453 214.604 200.603 214.615Z" fill="#263238"/>
<path d="M201.611 214.872C201.761 214.861 202.79 226.524 203.894 240.932C204.998 255.34 205.77 267.025 205.62 267.035C205.47 267.046 204.441 255.383 203.337 240.975C202.233 226.578 201.461 214.883 201.611 214.872Z" fill="#263238"/>
<path d="M78.5669 418.852L144.516 266.939L222.076 247.814L157.348 410.072L78.5669 418.852Z" fill="#455A64"/>
<path d="M112.817 435.607L78.5669 418.852L157.348 410.072L201.118 430.762L112.817 435.607Z" fill="#455A64"/>
<path opacity="0.3" d="M112.817 435.607L78.5669 418.852L157.348 410.072L201.118 430.762L112.817 435.607Z" fill="black"/>
<path d="M222.076 247.814L223.812 254.9L235.829 254.536L201.118 430.762L157.348 410.072L222.076 247.814Z" fill="#455A64"/>
<path d="M222.075 247.814C222.075 247.814 222.011 248.018 221.872 248.415C221.711 248.822 221.497 249.401 221.207 250.151C220.607 251.695 219.728 253.936 218.602 256.809C216.308 262.608 213.017 270.959 208.943 281.261C200.732 301.908 189.39 330.401 176.869 361.875C169.955 379.167 163.405 395.568 157.573 410.158L157.23 409.837C168.036 404.423 177.813 399.524 186.26 395.3L186.453 395.204L186.539 395.407C191.062 406.299 194.718 415.132 197.259 421.253C198.502 424.298 199.478 426.667 200.142 428.296C200.464 429.09 200.71 429.701 200.882 430.129C201.043 430.548 201.118 430.762 201.118 430.762C201.118 430.762 201.011 430.558 200.828 430.151C200.646 429.722 200.378 429.122 200.035 428.339C199.349 426.721 198.341 424.362 197.044 421.339C194.461 415.229 190.752 406.428 186.153 395.568L186.431 395.675C177.995 399.931 168.229 404.862 157.445 410.308L156.844 410.608L157.091 409.987C162.912 395.386 169.44 378.984 176.333 361.682C188.908 330.241 200.303 301.768 208.558 281.132C212.695 270.852 216.051 262.522 218.388 256.744C219.556 253.882 220.457 251.652 221.089 250.119C221.4 249.38 221.636 248.811 221.807 248.404C221.968 248.018 222.065 247.825 222.065 247.825L222.075 247.814Z" fill="#263238"/>
<path d="M223.812 254.9C223.962 254.943 215.697 286.449 205.352 325.266C195.008 364.094 186.507 395.536 186.357 395.493C186.206 395.45 194.472 363.955 204.816 325.127C215.161 286.31 223.662 254.868 223.812 254.911V254.9Z" fill="#263238"/>
<path opacity="0.3" d="M222.076 247.814L223.812 254.9L186.356 395.482L157.348 410.072L222.076 247.814Z" fill="black"/>
<path d="M183.548 211.967C183.666 212.074 173.214 223.587 160.232 237.684C147.239 251.791 136.615 263.133 136.498 263.026C136.38 262.919 146.821 251.405 159.824 237.309C172.817 223.212 183.44 211.859 183.558 211.967H183.548Z" fill="#263238"/>
<path d="M54.1787 382.65L120.128 252.563L197.677 236.194L132.949 375.125L54.1787 382.65Z" fill="#16DB65"/>
<path d="M88.4184 396.994L54.1787 382.65L132.949 375.125L176.73 392.845L88.4184 396.994Z" fill="#16DB65"/>
<path opacity="0.3" d="M88.4184 396.994L54.1787 382.65L132.949 375.125L176.73 392.845L88.4184 396.994Z" fill="black"/>
<path d="M197.677 236.194L199.413 242.261L211.43 241.95L176.73 392.845L132.949 375.125L197.677 236.194Z" fill="#16DB65"/>
<path d="M197.676 236.194C197.676 236.194 197.612 236.376 197.462 236.719C197.301 237.084 197.076 237.587 196.787 238.231C196.176 239.581 195.286 241.522 194.15 244.019C191.823 249.058 188.479 256.315 184.341 265.277C176.001 283.222 164.498 307.975 151.795 335.322C145.159 349.547 138.856 363.065 133.174 375.232L132.842 374.889C143.701 370.237 153.499 366.034 161.872 362.454L162.054 362.379L162.14 362.55C166.664 371.877 170.319 379.445 172.86 384.687C174.103 387.292 175.079 389.318 175.754 390.723C176.076 391.398 176.312 391.923 176.494 392.299C176.655 392.652 176.73 392.845 176.73 392.845C176.73 392.845 176.622 392.674 176.44 392.331C176.247 391.966 175.99 391.441 175.647 390.776C174.95 389.383 173.953 387.378 172.656 384.795C170.072 379.563 166.363 372.038 161.775 362.733L162.032 362.829C153.671 366.442 143.884 370.676 133.046 375.372L132.435 375.64L132.713 375.029C138.373 362.861 144.666 349.333 151.291 335.097C164.059 307.782 175.604 283.051 183.987 265.116C188.189 256.187 191.588 248.961 193.957 243.934C195.136 241.457 196.058 239.517 196.69 238.188C197.001 237.545 197.237 237.051 197.419 236.698C197.58 236.365 197.687 236.194 197.687 236.194H197.676Z" fill="#263238"/>
<path d="M199.413 242.261C199.563 242.304 191.298 269.297 180.953 302.529C170.609 335.783 162.108 362.69 161.958 362.636C161.807 362.583 170.073 335.611 180.417 302.358C190.762 269.126 199.263 242.208 199.413 242.251V242.261Z" fill="#263238"/>
<path opacity="0.3" d="M197.677 236.194L199.413 242.261L161.958 362.636L132.949 375.125L197.677 236.194Z" fill="black"/>
<path d="M151.849 245.863C151.849 245.863 152.127 245.767 152.663 245.638C153.253 245.499 154.035 245.316 155.011 245.091C157.112 244.63 160.049 243.976 163.662 243.172C171.027 241.597 181.114 239.442 192.263 237.051C194.085 236.665 195.876 236.29 197.623 235.926L197.88 235.872L197.955 236.119C198.545 238.198 199.124 240.224 199.681 242.186L199.413 241.993C203.776 241.897 207.818 241.8 211.43 241.725H211.731L211.666 242.004C210.444 247.139 209.436 251.395 208.707 254.418C208.354 255.854 208.064 257.012 207.85 257.859C207.753 258.223 207.678 258.513 207.614 258.759C207.56 258.963 207.518 259.059 207.507 259.059C207.496 259.059 207.507 258.952 207.539 258.738C207.582 258.491 207.646 258.191 207.711 257.827C207.893 256.98 208.139 255.811 208.439 254.364C209.115 251.32 210.058 247.053 211.205 241.897L211.43 242.175C207.818 242.283 203.776 242.401 199.413 242.529H199.21L199.156 242.336C198.588 240.374 198.009 238.359 197.409 236.279L197.73 236.472C195.983 236.848 194.193 237.223 192.37 237.609C181.211 239.935 171.123 242.036 163.737 243.569C160.114 244.298 157.155 244.888 155.043 245.316C154.057 245.499 153.264 245.649 152.674 245.767C152.127 245.863 151.849 245.906 151.838 245.885L151.849 245.863Z" fill="#263238"/>
<path d="M201.203 226.524C201.107 226.599 200.432 225.045 198.459 223.341C197.473 222.504 196.165 221.647 194.557 221.1C193.764 220.8 192.874 220.693 191.931 220.393C191.459 220.232 190.977 220.007 190.591 219.61C190.205 219.213 189.98 218.677 189.883 218.152C189.701 217.091 189.808 216.126 189.669 215.215C189.551 214.293 189.336 213.425 189.047 212.621C188.758 211.827 188.414 211.066 187.986 210.477C187.557 209.866 186.989 209.501 186.388 209.319C185.799 209.126 185.209 209.094 184.77 209.276C184.33 209.458 184.062 209.812 183.923 210.134C183.633 210.777 183.623 211.206 183.569 211.195C183.548 211.195 183.548 211.088 183.558 210.895C183.558 210.702 183.601 210.402 183.73 210.048C183.848 209.694 184.126 209.244 184.652 208.987C185.177 208.74 185.852 208.751 186.506 208.944C187.16 209.115 187.889 209.544 188.361 210.198C188.854 210.852 189.208 211.613 189.529 212.438C189.84 213.264 190.076 214.175 190.205 215.14C190.366 216.094 190.258 217.123 190.43 218.034C190.516 218.495 190.698 218.903 190.998 219.213C191.298 219.524 191.695 219.717 192.124 219.867C192.97 220.146 193.914 220.285 194.75 220.607C196.422 221.207 197.762 222.14 198.749 223.04C199.735 223.952 200.367 224.841 200.742 225.474C201.118 226.117 201.257 226.503 201.236 226.514L201.203 226.524Z" fill="#FF9A6C"/>
<path d="M188.339 196.669C188.404 196.734 187.857 197.387 187.149 198.556C186.431 199.724 185.616 201.44 184.995 203.434C183.762 207.443 183.687 210.905 183.494 210.884C183.419 210.884 183.365 210.016 183.462 208.622C183.558 207.228 183.826 205.31 184.459 203.262C185.091 201.215 185.992 199.478 186.806 198.331C187.621 197.184 188.286 196.616 188.329 196.659L188.339 196.669Z" fill="#FF9A6C"/>
<path d="M191.32 209.362C191.459 209.426 188.597 216.405 184.909 224.97C181.232 233.525 178.134 240.418 177.984 240.353C177.845 240.289 180.707 233.31 184.394 224.745C188.071 216.19 191.169 209.297 191.309 209.362H191.32Z" fill="#263238"/>
<path d="M193.506 211.227C193.656 211.27 192.081 217.423 189.98 224.959C187.889 232.506 186.067 238.584 185.917 238.552C185.767 238.509 187.342 232.356 189.444 224.809C191.534 217.262 193.356 211.184 193.506 211.216V211.227Z" fill="#263238"/>
<path d="M228.004 217.509C227.993 217.659 223.34 217.316 217.637 216.737C211.924 216.158 207.303 215.569 207.325 215.419C207.336 215.268 211.977 215.611 217.691 216.19C223.405 216.769 228.014 217.359 228.004 217.509Z" fill="#FF9A6C"/>
<path d="M224.219 207.454C224.348 207.529 223.672 208.761 222.365 209.855C221.068 210.959 219.749 211.42 219.695 211.281C219.62 211.131 220.778 210.477 222.011 209.426C223.254 208.386 224.091 207.357 224.23 207.454H224.219Z" fill="#FF9A6C"/>
<path d="M235.829 257.119C235.829 257.119 235.915 257.119 236.086 257.141C236.279 257.173 236.526 257.205 236.837 257.258C237.533 257.376 238.509 257.537 239.752 257.752C242.336 258.213 246.056 258.866 250.74 259.703L250.89 259.735L250.869 259.896C249.443 272.963 246.806 293.942 242.25 317.269C240.321 327.185 238.187 336.586 236.043 345.077C234.082 353.588 232.163 361.285 229.643 367.439C228.378 370.483 226.878 373.227 224.83 374.953C222.879 376.754 220.885 377.923 219.159 378.62C217.433 379.316 215.997 379.595 215.032 379.724C214.057 379.842 213.542 379.82 213.542 379.82C213.542 379.82 213.671 379.788 213.917 379.767C214.164 379.745 214.528 379.692 215.011 379.617C215.965 379.456 217.38 379.145 219.074 378.427C220.767 377.708 222.718 376.529 224.616 374.739C226.62 373.013 228.035 370.355 229.279 367.31C231.734 361.178 233.61 353.513 235.55 344.97C237.662 336.479 239.774 327.089 241.703 317.183C246.259 293.878 248.972 272.931 250.537 259.885L250.676 260.067C246.002 259.167 242.293 258.459 239.71 257.966C238.466 257.719 237.501 257.527 236.804 257.387C236.494 257.323 236.258 257.269 236.065 257.226C235.893 257.183 235.818 257.162 235.818 257.151L235.829 257.119Z" fill="#263238"/>
<path d="M369.122 151.109L373.313 138.492C369.1 132.188 366.527 124.673 366.227 116.537C365.37 93.146 383.637 73.4855 407.028 72.6279C430.419 71.7703 450.079 90.0372 450.937 113.428C451.794 136.819 433.527 156.48 410.136 157.337C400.37 157.691 391.258 154.711 383.894 149.415V149.437L369.132 151.109H369.122Z" fill="white"/>
<path d="M369.121 151.109C369.121 151.109 369.465 151.055 370.108 150.98C370.762 150.895 371.705 150.787 372.949 150.627C375.446 150.326 379.123 149.887 383.894 149.308L383.808 149.522V149.501C383.744 149.447 383.754 149.362 383.808 149.319C383.851 149.276 383.926 149.276 383.969 149.319C388.482 152.513 395.053 155.858 403.436 156.855C405.527 157.101 407.713 157.219 409.965 157.134C412.216 156.941 414.553 156.823 416.901 156.265C421.607 155.311 426.452 153.489 430.976 150.637C435.5 147.786 439.681 143.916 443.014 139.145C446.348 134.386 448.814 128.747 449.95 122.626C452.33 110.437 448.739 96.3191 439.37 86.3495C434.599 81.3004 428.746 77.3768 422.4 75.265C416.086 73.0781 409.418 72.4671 403.136 73.2604C396.833 74.0322 390.969 76.3263 385.995 79.4994C381.01 82.6832 376.904 86.7783 373.838 91.2485C370.762 95.7188 368.736 100.553 367.61 105.27C367.481 105.86 367.353 106.449 367.224 107.039C367.085 107.618 366.967 108.197 366.924 108.786C366.785 109.955 366.656 111.102 366.517 112.238C366.495 114.511 366.366 116.709 366.592 118.81C367.331 127.257 370.451 133.903 373.431 138.417C373.452 138.449 373.452 138.492 373.442 138.524C372.059 142.587 370.997 145.706 370.269 147.839C369.904 148.89 369.625 149.694 369.432 150.262C369.239 150.809 369.132 151.098 369.132 151.098C369.132 151.098 369.207 150.841 369.379 150.305C369.561 149.748 369.818 148.944 370.151 147.904C370.847 145.738 371.877 142.565 373.206 138.449V138.556C370.172 134.043 366.988 127.375 366.195 118.842C365.959 116.719 366.077 114.5 366.088 112.206C366.216 111.059 366.345 109.901 366.484 108.722C366.527 108.133 366.645 107.543 366.785 106.953C366.913 106.364 367.042 105.763 367.17 105.163C368.296 100.393 370.333 95.4936 373.431 90.9591C376.518 86.4245 380.656 82.2652 385.705 79.0384C390.744 75.8224 396.683 73.4748 403.072 72.6922C409.439 71.8775 416.193 72.4885 422.604 74.7076C429.046 76.8516 434.985 80.818 439.82 85.9421C440.452 86.5317 440.978 87.2178 441.514 87.8932L443.122 89.8978L444.526 92.0418C444.998 92.7493 445.469 93.4568 445.845 94.218C446.241 94.9684 446.638 95.7188 447.024 96.4584C447.442 97.1981 447.688 98.0021 448.021 98.774C448.321 99.5565 448.685 100.318 448.943 101.111C449.178 101.915 449.414 102.708 449.65 103.501C451.451 109.891 451.708 116.548 450.529 122.733C449.371 128.929 446.863 134.643 443.475 139.456C440.088 144.28 435.843 148.193 431.255 151.055C426.666 153.939 421.767 155.761 417.008 156.705C414.628 157.252 412.269 157.369 409.997 157.552C407.713 157.627 405.505 157.509 403.404 157.241C394.935 156.19 388.332 152.771 383.829 149.522L384.012 149.329V149.351C384.076 149.405 384.065 149.49 384.012 149.533C383.99 149.555 383.969 149.565 383.937 149.565C379.113 150.069 375.403 150.466 372.884 150.734C371.662 150.862 370.729 150.959 370.076 151.023C369.454 151.088 369.143 151.109 369.143 151.109H369.121Z" fill="#263238"/>
<path d="M388.997 116.119L394.914 109.58L407.467 119.657L426.12 98.238L432.22 104.177L407.188 131.717L388.997 116.119Z" fill="#16DB65"/>
</svg>
