<svg width="22" height="32" viewBox="0 0 22 32" fill="none" xmlns="http://www.w3.org/2000/svg">
<path d="M21.5441 23.9073L17.2518 15.5334C17.4515 15.3441 17.6456 15.1475 17.8303 14.9398C19.4469 13.111 20.2345 10.7767 20.0518 8.36895C19.673 3.39719 15.2244 -0.339442 10.1238 0.0244798C7.6555 0.202765 5.40574 1.30924 3.79097 3.13804C2.17619 4.96684 1.3867 7.30108 1.56947 9.70885C1.71456 11.6038 2.45506 13.3628 3.67603 14.7946L0.397489 24.0415C0.188341 24.6315 0.508658 25.2766 1.11349 25.4806C1.23974 25.5229 1.36786 25.5431 1.49222 25.5431C1.9727 25.5431 2.42114 25.2491 2.58695 24.7822L5.53575 16.4671C6.74542 17.2887 8.1209 17.8034 9.56798 17.9908L9.01214 30.8218C8.98576 31.4468 9.48131 31.9724 10.1219 32C10.1389 32 10.1559 32 10.1709 32C10.789 32 11.3015 31.524 11.3278 30.9174L11.8875 18.0074C13.1273 17.8659 14.3011 17.4909 15.362 16.9064L19.4695 24.9201C19.673 25.3171 20.0819 25.545 20.5078 25.545C20.683 25.545 20.8582 25.5064 21.0259 25.4255C21.5987 25.1461 21.8305 24.4661 21.5441 23.9073ZM10.6533 4.50734C11.2091 3.38432 12.5978 2.91012 13.7491 3.45233C14.9003 3.99454 15.3864 5.34914 14.8306 6.47215C14.2748 7.59516 12.8861 8.06936 11.7348 7.52716C11.1771 7.26433 10.7569 6.80667 10.5534 6.23505C10.3499 5.66527 10.3857 5.05138 10.6533 4.50734ZM3.88141 9.54159C3.62139 6.1358 6.00492 3.13068 9.33245 2.4249C9.02909 2.74471 8.76907 3.11231 8.56369 3.52402C7.452 5.77004 8.42238 8.48107 10.7268 9.56365C11.3749 9.86876 12.0589 10.0121 12.7335 10.0121C14.4594 10.0121 16.1194 9.06923 16.9183 7.45363C17.0691 7.14853 17.1783 6.83607 17.2537 6.5181C17.5118 7.14669 17.6833 7.82307 17.7361 8.53437C17.8736 10.3393 17.282 12.0891 16.0704 13.4602C14.8589 14.8313 13.1725 15.6603 11.3222 15.7944C11.2148 15.8018 11.1093 15.8 11.0038 15.8018C10.9435 15.7908 10.885 15.7797 10.821 15.7761C10.7249 15.7742 10.6326 15.7852 10.5421 15.8036C8.97445 15.7467 7.48027 15.1824 6.27248 14.1697C4.86686 12.9878 4.01707 11.3428 3.87953 9.53792L3.88141 9.54159Z" fill="#020202"/>
</svg>
