<?xml version="1.0" encoding="UTF-8"?>
<svg id="Layer_2" data-name="Layer 2" xmlns="http://www.w3.org/2000/svg" version="1.1" viewBox="0 0 353.4 520">
  <defs>
    <style>
      .cls-1 {
        fill: none;
      }

      .cls-1, .cls-2, .cls-3, .cls-4 {
        stroke: #1a2e35;
        stroke-linecap: round;
        stroke-linejoin: round;
      }

      .cls-1, .cls-2, .cls-3, .cls-4, .cls-5 {
        stroke-width: 1.3px;
      }

      .cls-2 {
        fill: #16db65;
      }

      .cls-3 {
        fill: #fff;
      }

      .cls-4, .cls-5, .cls-6 {
        fill: #1a2e35;
      }

      .cls-5 {
        stroke: #fff;
        stroke-miterlimit: 10;
      }

      .cls-6 {
        stroke-width: 0px;
      }
    </style>
  </defs>
  <g>
    <g>
      <path class="cls-2" d="M206.7,472s.5,6.2-1.2,8.1-16.8,2.5-18.5.2c-1.7-2.3-.7-10.9-.7-10.9,0,0,6.1,2.1,20.4,2.5Z"/>
      <path class="cls-3" d="M191.3,479.2c8.2.2,12.6-.3,15-.9-.2.8-.5,1.4-.9,1.9-1.7,1.8-16.8,2.5-18.5.2-.2-.3-.4-.8-.6-1.3,1.5,0,3.1.1,4.9.2Z"/>
      <path class="cls-2" d="M161.9,479.9s-5.9,5.3-12.9,7.4c-7.1,2.1-9,3.2-8.3,5.5.7,2.3,6.8,3,21.4,3.5,14.6.5,25.6-1.4,27.5-2.8,1.9-1.4.7-3.9,0-4.6s-25-10.9-27.7-9Z"/>
      <path class="cls-3" d="M140.7,492.8c-.3-.8-.2-1.5.3-2.1,3.4,1.4,9.5,1.8,23.5,1.6,12.3-.1,19.9-2,26-1.7.2,1,.1,2.1-.9,2.8-1.9,1.4-12.9,3.3-27.5,2.8-14.6-.5-20.7-1.2-21.4-3.5Z"/>
    </g>
    <path class="cls-4" d="M191.8,345s.5,27.7,5.8,51.5c5.3,23.8,8.8,34.9,9.7,49.9,1,15-.2,27-.2,27,0,0-2.7,1.4-9.2.9-6.6-.5-10.2-3-10.2-3,0,0-.7-25.9-.7-40.2,0-14.3-6.3-53.6-6.8-68.1-.5-14.6,3.9-21.9,7.1-24.3,3.2-2.3,4.6,6.2,4.6,6.2Z"/>
    <path class="cls-4" d="M159.7,312.6s.2,13.9.2,31.4c0,17.6,3.9,58.7,7.1,78.3,3.2,19.6,1,46.4.5,48.5s-1.5,1.4-3.2,3.5c-1.7,2.1-3.6,5.8-3.6,5.8,0,0,9.5,6.5,16.8,8.8,7.3,2.3,10,3.2,11.7,3.2s1.7-1.6,2.9-5.5c1.2-3.9,1.2-20.3,1.2-20.3,0,0,3.4-23.3,3.4-37.6s-6.6-23.1-6.6-37,4.1-51.3,6.6-56.8c2.4-5.5,7.1-13.2,7.5-17.1.5-3.9.7-6.5.7-6.5l-45.2,1.4Z"/>
    <path class="cls-2" d="M190.4,190.7s9.7,16.2,13.1,30c3.4,13.9,6.6,41.3,7.5,57.1,1,15.7,3.2,37.4,3.2,37.4,0,0-12.4,3.7-29.7,3.5-17.3-.2-32.6-3.7-32.6-3.7,0,0,5.3-45.3,10.5-71.6,5.1-26.3,10-43,10-43,0,0,13.1-10.6,18-9.7Z"/>
    <g>
      <path class="cls-3" d="M184.1,160.4s-1.9,6.2-.2,13.4c1.7,7.2,2.7,12.2,2.7,12.2,0,0-14.1,15-14.1,14.3s-.5-8.5-2.7-13.4c-2.2-4.9-3.6-7.6-3.6-7.6,0,0,4.9-2.5,7.5-8.5,2.7-6,2.9-15.5,6.6-15.7,3.6-.2,3.9,5.3,3.9,5.3Z"/>
      <path class="cls-4" d="M177.7,179s.4,3.8-1.2,7.3c-1.6,3.4-4.1,7.1-4.1,7.1l-3.8-10.9,9.1-3.4Z"/>
      <g>
        <path class="cls-3" d="M150.9,144.7s0,13.6-1,16.6c-1,3-4.4,3.7-3.9,5.3s5.1,2.5,5.1,2.5c0,0,1.2,11.5,2.2,14.8,1,3.2,3.4,3.9,8.8,3.5,5.3-.5,11.4-2.1,13.9-5.5,2.4-3.5,3.9-9.7,3.9-9.7,0,0,1.2-9.2,1.2-16.6,0-7.4,1-11.3-9.2-15.2-10.2-3.9-20.4,1.2-20.9,4.4Z"/>
        <path class="cls-6" d="M154.8,162.1c0,1.3.4,2.4.9,2.4s.9-1.1.9-2.4-.4-2.4-.9-2.4-.9,1.1-.9,2.4Z"/>
        <path class="cls-1" d="M159.9,157.1s-1.2-4.4-4.9-4.2"/>
        <path class="cls-1" d="M159.3,170.4s-.6,2.5-5.6,2.3"/>
      </g>
      <path class="cls-4" d="M177.2,167.5l-5.1-1.4s2.9-4.4-.2-6.5c-3.2-2.1-7.8-3.7-6.6-5.8,1.2-2.1,9.2-3.2,5.3-5.8-3.9-2.5-9.2-3.9-10.2-3-1,.9,0,2.1-6.3,2.1s-9.7-2.3-7.8-9.7c1.9-7.4,12.4-10.2,19-7.6,6.6,2.5,8.5,4.4,8.5,4.4,0,0,13.9.5,18,10.2,4.1,9.7,2.4,15.7-.5,18.9-2.9,3.2-7.3,6.7-9,6.7s-5.1-2.5-5.1-2.5Z"/>
      <path class="cls-3" d="M175,170.3c0-.7,1.9-10.4,5.6-10.4s5.6,2.5,4.1,8.3c-1.5,5.8-5.8,7.6-9.2,4.6"/>
    </g>
    <polygon class="cls-2" points="189.4 180.5 170.2 197.6 168.3 208.5 194.3 191.1 189.4 180.5"/>
    <g>
      <path class="cls-5" d="M214.3,366.7c1.5,0,2.8-1.1,2.9-2.5l1.9-22.6c.3-3.7-2.6-6.9-6.4-7.2l-38.5-3c-3.8-.3-7.2,2.4-7.6,6l-2.3,22.9c-.2,1.5,1,2.8,2.6,3,1.6.1,3-1,3.1-2.5l2.3-22.9c0-.7.7-1.2,1.4-1.1l38.5,3c.7,0,1.2.6,1.2,1.3l-1.9,22.6c-.1,1.5,1.1,2.8,2.7,2.9,0,0,.2,0,.2,0Z"/>
      <path class="cls-2" d="M235,364.4l-5.2,37.3c-.4,2.7-2.8,4.6-5.4,4.4l-73.9-5.9c-2.6-.2-4.7-2.4-4.7-5.1v-38.6s44.3,9,44.3,9l45-1.2Z"/>
      <g>
        <path class="cls-3" d="M219.5,401.6h1c.6.1,1.1-.3,1.2-.9l2.3-27.7c0-.6-.4-1.1-1-1.1h-1c-.6-.1-1.1.3-1.2.9l-2.3,27.7c0,.6.4,1.1,1,1.1Z"/>
        <path class="cls-3" d="M210.5,400.9h1c.6.1,1.1-.3,1.2-.9l2.3-27.7c0-.6-.4-1.1-1-1.1h-1c-.6-.1-1.1.3-1.2.9l-2.3,27.7c0,.6.4,1.1,1,1.1Z"/>
        <path class="cls-3" d="M201.6,400.2h1c.6.1,1.1-.3,1.2-.9l2.3-27.7c0-.6-.4-1.1-1-1.1h-1c-.6-.1-1.1.3-1.2.9l-2.3,27.7c0,.6.4,1.1,1,1.1Z"/>
        <path class="cls-3" d="M192.6,399.6h1c.6.1,1.1-.3,1.2-.9l2.3-27.7c0-.6-.4-1.1-1-1.1h-1c-.6-.1-1.1.3-1.2.9l-2.3,27.7c0,.6.4,1.1,1,1.1Z"/>
        <path class="cls-3" d="M183.6,398.9h1c.6.1,1.1-.3,1.2-.9l2.3-27.7c0-.6-.4-1.1-1-1.1h-1c-.6-.1-1.1.3-1.2.9l-2.3,27.7c0,.6.4,1.1,1,1.1Z"/>
        <path class="cls-3" d="M174.6,398.2h1c.6.1,1.1-.3,1.2-.9l2.3-27.7c0-.6-.4-1.1-1-1.1h-1c-.6-.1-1.1.3-1.2.9l-2.3,27.7c0,.6.4,1.1,1,1.1Z"/>
        <path class="cls-3" d="M165.7,397.6h1c.6.1,1.1-.3,1.2-.9l2.3-27.7c0-.6-.4-1.1-1-1.1h-1c-.6-.1-1.1.3-1.2.9l-2.3,27.7c0,.6.4,1.1,1,1.1Z"/>
        <path class="cls-3" d="M156.7,396.9h1c.6.1,1.1-.3,1.2-.9l2.3-27.7c0-.6-.4-1.1-1-1.1h-1c-.6-.1-1.1.3-1.2.9l-2.3,27.7c0,.6.4,1.1,1,1.1Z"/>
      </g>
      <polygon class="cls-2" points="240.4 359.1 190.8 362.1 140.7 350.1 139.5 357.5 190.5 368.5 239.1 365.8 240.4 359.1"/>
    </g>
    <g>
      <path class="cls-3" d="M202,257.4s2.9,7.4,1.9,22.4c-1,15-9.5,40.9-9.5,42.3s5.8,7.2,5.6,9.7-2.4,6-2.4,6c0,0,2.7.9,2.4,2.1s-1,1.6-2.9,1.6-5.1,1.6-7.1-.5c-1.9-2.1-2.9-3.2-3.4-6.5-.5-3.2.5-8.3.5-16.6,0-8.3,3.6-46.2,2.4-50.1s-2.7-6.9-2.7-6.9l15.1-3.5Z"/>
      <path class="cls-2" d="M189.9,208.7s5.8,2.3,9.2,6.5c3.4,4.2,2.2,9.2,1.9,12.5-.2,3.2.2,7.9.2,7.9l5.3,21s-1.7,2.8-13.1,5.1c-11.4,2.3-15.1,2.3-15.1,2.3,0,0,1-24,0-33.7-1-9.7-2.2-14.3,1.2-17.8"/>
    </g>
  </g>
  <g>
    <g>
      <path class="cls-3" d="M245.5,22.3h-63.2c-3.9,0-7,3.1-7,7v39.8c0,3.9,3.1,7,7,7h20.5s-4.1,18.9-4.1,18.9l17.8-18.9h29c3.9,0,7-3.1,7-7V29.3c0-3.9-3.1-7-7-7Z"/>
      <g>
        <path class="cls-6" d="M227.1,48.6c0,1.9,1.5,3.4,3.4,3.4s3.4-1.5,3.4-3.4-1.5-3.4-3.4-3.4-3.4,1.5-3.4,3.4Z"/>
        <path class="cls-6" d="M210.5,48.6c0,1.9,1.5,3.4,3.4,3.4s3.4-1.5,3.4-3.4-1.5-3.4-3.4-3.4-3.4,1.5-3.4,3.4Z"/>
        <path class="cls-6" d="M194,48.6c0,1.9,1.5,3.4,3.4,3.4s3.4-1.5,3.4-3.4-1.5-3.4-3.4-3.4-3.4,1.5-3.4,3.4Z"/>
      </g>
    </g>
    <g>
      <path class="cls-2" d="M122.6,44.4h56.6c3.5,0,6.3,2.8,6.3,6.3v35.7c0,3.5-2.8,6.3-6.3,6.3h-1.2s3.7,16.9,3.7,16.9l-16-16.9h-43.1c-3.5,0-6.3-2.8-6.3-6.3v-35.7c0-3.5,2.8-6.3,6.3-6.3Z"/>
      <g>
        <path class="cls-6" d="M162.5,67.1c0,1.9,1.5,3.4,3.4,3.4s3.4-1.5,3.4-3.4-1.5-3.4-3.4-3.4-3.4,1.5-3.4,3.4Z"/>
        <path class="cls-6" d="M145.9,67.1c0,1.9,1.5,3.4,3.4,3.4s3.4-1.5,3.4-3.4-1.5-3.4-3.4-3.4-3.4,1.5-3.4,3.4Z"/>
        <path class="cls-6" d="M129.4,67.1c0,1.9,1.5,3.4,3.4,3.4s3.4-1.5,3.4-3.4-1.5-3.4-3.4-3.4-3.4,1.5-3.4,3.4Z"/>
      </g>
    </g>
  </g>
</svg>